%TF.GenerationSoftware,KiCad,Pcbnew,8.0.2-1*%
%TF.CreationDate,2024-11-25T18:38:24-05:00*%
%TF.ProjectId,EMS-Cast,454d532d-4361-4737-942e-6b696361645f,rev?*%
%TF.SameCoordinates,Original*%
%TF.FileFunction,Legend,Top*%
%TF.FilePolarity,Positive*%
%FSLAX46Y46*%
G04 Gerber Fmt 4.6, Leading zero omitted, Abs format (unit mm)*
G04 Created by KiCad (PCBNEW 8.0.2-1) date 2024-11-25 18:38:24*
%MOMM*%
%LPD*%
G01*
G04 APERTURE LIST*
%ADD10C,0.150000*%
%ADD11C,0.254000*%
%ADD12C,0.127000*%
%ADD13C,0.200000*%
%ADD14C,0.120000*%
%ADD15C,0.220000*%
%ADD16C,0.250000*%
G04 APERTURE END LIST*
D10*
X172395381Y-106906492D02*
X173205587Y-106906492D01*
X173205587Y-106906492D02*
X173300905Y-106858832D01*
X173300905Y-106858832D02*
X173348565Y-106811173D01*
X173348565Y-106811173D02*
X173396224Y-106715855D01*
X173396224Y-106715855D02*
X173396224Y-106525218D01*
X173396224Y-106525218D02*
X173348565Y-106429900D01*
X173348565Y-106429900D02*
X173300905Y-106382240D01*
X173300905Y-106382240D02*
X173205587Y-106334581D01*
X173205587Y-106334581D02*
X172395381Y-106334581D01*
X172395381Y-105953308D02*
X172395381Y-105333738D01*
X172395381Y-105333738D02*
X172776654Y-105667353D01*
X172776654Y-105667353D02*
X172776654Y-105524375D01*
X172776654Y-105524375D02*
X172824313Y-105429057D01*
X172824313Y-105429057D02*
X172871973Y-105381398D01*
X172871973Y-105381398D02*
X172967291Y-105333738D01*
X172967291Y-105333738D02*
X173205587Y-105333738D01*
X173205587Y-105333738D02*
X173300905Y-105381398D01*
X173300905Y-105381398D02*
X173348565Y-105429057D01*
X173348565Y-105429057D02*
X173396224Y-105524375D01*
X173396224Y-105524375D02*
X173396224Y-105810330D01*
X173396224Y-105810330D02*
X173348565Y-105905649D01*
X173348565Y-105905649D02*
X173300905Y-105953308D01*
D11*
X149680667Y-62776818D02*
X149680667Y-63683961D01*
X149680667Y-63683961D02*
X149620190Y-63865389D01*
X149620190Y-63865389D02*
X149499238Y-63986342D01*
X149499238Y-63986342D02*
X149317809Y-64046818D01*
X149317809Y-64046818D02*
X149196857Y-64046818D01*
X150224952Y-62897770D02*
X150285428Y-62837294D01*
X150285428Y-62837294D02*
X150406381Y-62776818D01*
X150406381Y-62776818D02*
X150708762Y-62776818D01*
X150708762Y-62776818D02*
X150829714Y-62837294D01*
X150829714Y-62837294D02*
X150890190Y-62897770D01*
X150890190Y-62897770D02*
X150950667Y-63018722D01*
X150950667Y-63018722D02*
X150950667Y-63139675D01*
X150950667Y-63139675D02*
X150890190Y-63321103D01*
X150890190Y-63321103D02*
X150164476Y-64046818D01*
X150164476Y-64046818D02*
X150950667Y-64046818D01*
X165043333Y-60794365D02*
X164982857Y-60854842D01*
X164982857Y-60854842D02*
X164801428Y-60915318D01*
X164801428Y-60915318D02*
X164680476Y-60915318D01*
X164680476Y-60915318D02*
X164499047Y-60854842D01*
X164499047Y-60854842D02*
X164378095Y-60733889D01*
X164378095Y-60733889D02*
X164317618Y-60612937D01*
X164317618Y-60612937D02*
X164257142Y-60371032D01*
X164257142Y-60371032D02*
X164257142Y-60189603D01*
X164257142Y-60189603D02*
X164317618Y-59947699D01*
X164317618Y-59947699D02*
X164378095Y-59826746D01*
X164378095Y-59826746D02*
X164499047Y-59705794D01*
X164499047Y-59705794D02*
X164680476Y-59645318D01*
X164680476Y-59645318D02*
X164801428Y-59645318D01*
X164801428Y-59645318D02*
X164982857Y-59705794D01*
X164982857Y-59705794D02*
X165043333Y-59766270D01*
X165466666Y-59645318D02*
X166252857Y-59645318D01*
X166252857Y-59645318D02*
X165829523Y-60129127D01*
X165829523Y-60129127D02*
X166010952Y-60129127D01*
X166010952Y-60129127D02*
X166131904Y-60189603D01*
X166131904Y-60189603D02*
X166192380Y-60250080D01*
X166192380Y-60250080D02*
X166252857Y-60371032D01*
X166252857Y-60371032D02*
X166252857Y-60673413D01*
X166252857Y-60673413D02*
X166192380Y-60794365D01*
X166192380Y-60794365D02*
X166131904Y-60854842D01*
X166131904Y-60854842D02*
X166010952Y-60915318D01*
X166010952Y-60915318D02*
X165648095Y-60915318D01*
X165648095Y-60915318D02*
X165527142Y-60854842D01*
X165527142Y-60854842D02*
X165466666Y-60794365D01*
D10*
X120169819Y-67963333D02*
X120884104Y-67963333D01*
X120884104Y-67963333D02*
X121026961Y-68010952D01*
X121026961Y-68010952D02*
X121122200Y-68106190D01*
X121122200Y-68106190D02*
X121169819Y-68249047D01*
X121169819Y-68249047D02*
X121169819Y-68344285D01*
X121169819Y-66963333D02*
X121169819Y-67534761D01*
X121169819Y-67249047D02*
X120169819Y-67249047D01*
X120169819Y-67249047D02*
X120312676Y-67344285D01*
X120312676Y-67344285D02*
X120407914Y-67439523D01*
X120407914Y-67439523D02*
X120455533Y-67534761D01*
X179013351Y-79618602D02*
X179823557Y-79618602D01*
X179823557Y-79618602D02*
X179918875Y-79570942D01*
X179918875Y-79570942D02*
X179966535Y-79523283D01*
X179966535Y-79523283D02*
X180014194Y-79427965D01*
X180014194Y-79427965D02*
X180014194Y-79237328D01*
X180014194Y-79237328D02*
X179966535Y-79142010D01*
X179966535Y-79142010D02*
X179918875Y-79094350D01*
X179918875Y-79094350D02*
X179823557Y-79046691D01*
X179823557Y-79046691D02*
X179013351Y-79046691D01*
X179108669Y-78617759D02*
X179061010Y-78570100D01*
X179061010Y-78570100D02*
X179013351Y-78474781D01*
X179013351Y-78474781D02*
X179013351Y-78236485D01*
X179013351Y-78236485D02*
X179061010Y-78141167D01*
X179061010Y-78141167D02*
X179108669Y-78093508D01*
X179108669Y-78093508D02*
X179203987Y-78045848D01*
X179203987Y-78045848D02*
X179299306Y-78045848D01*
X179299306Y-78045848D02*
X179442283Y-78093508D01*
X179442283Y-78093508D02*
X180014194Y-78665418D01*
X180014194Y-78665418D02*
X180014194Y-78045848D01*
X122333333Y-47509580D02*
X122285714Y-47557200D01*
X122285714Y-47557200D02*
X122142857Y-47604819D01*
X122142857Y-47604819D02*
X122047619Y-47604819D01*
X122047619Y-47604819D02*
X121904762Y-47557200D01*
X121904762Y-47557200D02*
X121809524Y-47461961D01*
X121809524Y-47461961D02*
X121761905Y-47366723D01*
X121761905Y-47366723D02*
X121714286Y-47176247D01*
X121714286Y-47176247D02*
X121714286Y-47033390D01*
X121714286Y-47033390D02*
X121761905Y-46842914D01*
X121761905Y-46842914D02*
X121809524Y-46747676D01*
X121809524Y-46747676D02*
X121904762Y-46652438D01*
X121904762Y-46652438D02*
X122047619Y-46604819D01*
X122047619Y-46604819D02*
X122142857Y-46604819D01*
X122142857Y-46604819D02*
X122285714Y-46652438D01*
X122285714Y-46652438D02*
X122333333Y-46700057D01*
X123285714Y-47604819D02*
X122714286Y-47604819D01*
X123000000Y-47604819D02*
X123000000Y-46604819D01*
X123000000Y-46604819D02*
X122904762Y-46747676D01*
X122904762Y-46747676D02*
X122809524Y-46842914D01*
X122809524Y-46842914D02*
X122714286Y-46890533D01*
X122333333Y-64009580D02*
X122285714Y-64057200D01*
X122285714Y-64057200D02*
X122142857Y-64104819D01*
X122142857Y-64104819D02*
X122047619Y-64104819D01*
X122047619Y-64104819D02*
X121904762Y-64057200D01*
X121904762Y-64057200D02*
X121809524Y-63961961D01*
X121809524Y-63961961D02*
X121761905Y-63866723D01*
X121761905Y-63866723D02*
X121714286Y-63676247D01*
X121714286Y-63676247D02*
X121714286Y-63533390D01*
X121714286Y-63533390D02*
X121761905Y-63342914D01*
X121761905Y-63342914D02*
X121809524Y-63247676D01*
X121809524Y-63247676D02*
X121904762Y-63152438D01*
X121904762Y-63152438D02*
X122047619Y-63104819D01*
X122047619Y-63104819D02*
X122142857Y-63104819D01*
X122142857Y-63104819D02*
X122285714Y-63152438D01*
X122285714Y-63152438D02*
X122333333Y-63200057D01*
X122714286Y-63200057D02*
X122761905Y-63152438D01*
X122761905Y-63152438D02*
X122857143Y-63104819D01*
X122857143Y-63104819D02*
X123095238Y-63104819D01*
X123095238Y-63104819D02*
X123190476Y-63152438D01*
X123190476Y-63152438D02*
X123238095Y-63200057D01*
X123238095Y-63200057D02*
X123285714Y-63295295D01*
X123285714Y-63295295D02*
X123285714Y-63390533D01*
X123285714Y-63390533D02*
X123238095Y-63533390D01*
X123238095Y-63533390D02*
X122666667Y-64104819D01*
X122666667Y-64104819D02*
X123285714Y-64104819D01*
X147238333Y-79604819D02*
X146905000Y-79128628D01*
X146666905Y-79604819D02*
X146666905Y-78604819D01*
X146666905Y-78604819D02*
X147047857Y-78604819D01*
X147047857Y-78604819D02*
X147143095Y-78652438D01*
X147143095Y-78652438D02*
X147190714Y-78700057D01*
X147190714Y-78700057D02*
X147238333Y-78795295D01*
X147238333Y-78795295D02*
X147238333Y-78938152D01*
X147238333Y-78938152D02*
X147190714Y-79033390D01*
X147190714Y-79033390D02*
X147143095Y-79081009D01*
X147143095Y-79081009D02*
X147047857Y-79128628D01*
X147047857Y-79128628D02*
X146666905Y-79128628D01*
X147619286Y-78700057D02*
X147666905Y-78652438D01*
X147666905Y-78652438D02*
X147762143Y-78604819D01*
X147762143Y-78604819D02*
X148000238Y-78604819D01*
X148000238Y-78604819D02*
X148095476Y-78652438D01*
X148095476Y-78652438D02*
X148143095Y-78700057D01*
X148143095Y-78700057D02*
X148190714Y-78795295D01*
X148190714Y-78795295D02*
X148190714Y-78890533D01*
X148190714Y-78890533D02*
X148143095Y-79033390D01*
X148143095Y-79033390D02*
X147571667Y-79604819D01*
X147571667Y-79604819D02*
X148190714Y-79604819D01*
D11*
X93543333Y-119294365D02*
X93482857Y-119354842D01*
X93482857Y-119354842D02*
X93301428Y-119415318D01*
X93301428Y-119415318D02*
X93180476Y-119415318D01*
X93180476Y-119415318D02*
X92999047Y-119354842D01*
X92999047Y-119354842D02*
X92878095Y-119233889D01*
X92878095Y-119233889D02*
X92817618Y-119112937D01*
X92817618Y-119112937D02*
X92757142Y-118871032D01*
X92757142Y-118871032D02*
X92757142Y-118689603D01*
X92757142Y-118689603D02*
X92817618Y-118447699D01*
X92817618Y-118447699D02*
X92878095Y-118326746D01*
X92878095Y-118326746D02*
X92999047Y-118205794D01*
X92999047Y-118205794D02*
X93180476Y-118145318D01*
X93180476Y-118145318D02*
X93301428Y-118145318D01*
X93301428Y-118145318D02*
X93482857Y-118205794D01*
X93482857Y-118205794D02*
X93543333Y-118266270D01*
X94692380Y-118145318D02*
X94087618Y-118145318D01*
X94087618Y-118145318D02*
X94027142Y-118750080D01*
X94027142Y-118750080D02*
X94087618Y-118689603D01*
X94087618Y-118689603D02*
X94208571Y-118629127D01*
X94208571Y-118629127D02*
X94510952Y-118629127D01*
X94510952Y-118629127D02*
X94631904Y-118689603D01*
X94631904Y-118689603D02*
X94692380Y-118750080D01*
X94692380Y-118750080D02*
X94752857Y-118871032D01*
X94752857Y-118871032D02*
X94752857Y-119173413D01*
X94752857Y-119173413D02*
X94692380Y-119294365D01*
X94692380Y-119294365D02*
X94631904Y-119354842D01*
X94631904Y-119354842D02*
X94510952Y-119415318D01*
X94510952Y-119415318D02*
X94208571Y-119415318D01*
X94208571Y-119415318D02*
X94087618Y-119354842D01*
X94087618Y-119354842D02*
X94027142Y-119294365D01*
D10*
X137261905Y-102319819D02*
X137261905Y-101319819D01*
X137261905Y-101319819D02*
X137500000Y-101319819D01*
X137500000Y-101319819D02*
X137642857Y-101367438D01*
X137642857Y-101367438D02*
X137738095Y-101462676D01*
X137738095Y-101462676D02*
X137785714Y-101557914D01*
X137785714Y-101557914D02*
X137833333Y-101748390D01*
X137833333Y-101748390D02*
X137833333Y-101891247D01*
X137833333Y-101891247D02*
X137785714Y-102081723D01*
X137785714Y-102081723D02*
X137738095Y-102176961D01*
X137738095Y-102176961D02*
X137642857Y-102272200D01*
X137642857Y-102272200D02*
X137500000Y-102319819D01*
X137500000Y-102319819D02*
X137261905Y-102319819D01*
X138166667Y-101319819D02*
X138785714Y-101319819D01*
X138785714Y-101319819D02*
X138452381Y-101700771D01*
X138452381Y-101700771D02*
X138595238Y-101700771D01*
X138595238Y-101700771D02*
X138690476Y-101748390D01*
X138690476Y-101748390D02*
X138738095Y-101796009D01*
X138738095Y-101796009D02*
X138785714Y-101891247D01*
X138785714Y-101891247D02*
X138785714Y-102129342D01*
X138785714Y-102129342D02*
X138738095Y-102224580D01*
X138738095Y-102224580D02*
X138690476Y-102272200D01*
X138690476Y-102272200D02*
X138595238Y-102319819D01*
X138595238Y-102319819D02*
X138309524Y-102319819D01*
X138309524Y-102319819D02*
X138214286Y-102272200D01*
X138214286Y-102272200D02*
X138166667Y-102224580D01*
X134795238Y-105157533D02*
X135404762Y-105157533D01*
X135100000Y-105462295D02*
X135100000Y-104852771D01*
X147333333Y-82104819D02*
X147000000Y-81628628D01*
X146761905Y-82104819D02*
X146761905Y-81104819D01*
X146761905Y-81104819D02*
X147142857Y-81104819D01*
X147142857Y-81104819D02*
X147238095Y-81152438D01*
X147238095Y-81152438D02*
X147285714Y-81200057D01*
X147285714Y-81200057D02*
X147333333Y-81295295D01*
X147333333Y-81295295D02*
X147333333Y-81438152D01*
X147333333Y-81438152D02*
X147285714Y-81533390D01*
X147285714Y-81533390D02*
X147238095Y-81581009D01*
X147238095Y-81581009D02*
X147142857Y-81628628D01*
X147142857Y-81628628D02*
X146761905Y-81628628D01*
X148190476Y-81438152D02*
X148190476Y-82104819D01*
X147952381Y-81057200D02*
X147714286Y-81771485D01*
X147714286Y-81771485D02*
X148333333Y-81771485D01*
X185104819Y-102166666D02*
X184628628Y-102499999D01*
X185104819Y-102738094D02*
X184104819Y-102738094D01*
X184104819Y-102738094D02*
X184104819Y-102357142D01*
X184104819Y-102357142D02*
X184152438Y-102261904D01*
X184152438Y-102261904D02*
X184200057Y-102214285D01*
X184200057Y-102214285D02*
X184295295Y-102166666D01*
X184295295Y-102166666D02*
X184438152Y-102166666D01*
X184438152Y-102166666D02*
X184533390Y-102214285D01*
X184533390Y-102214285D02*
X184581009Y-102261904D01*
X184581009Y-102261904D02*
X184628628Y-102357142D01*
X184628628Y-102357142D02*
X184628628Y-102738094D01*
X184533390Y-101595237D02*
X184485771Y-101690475D01*
X184485771Y-101690475D02*
X184438152Y-101738094D01*
X184438152Y-101738094D02*
X184342914Y-101785713D01*
X184342914Y-101785713D02*
X184295295Y-101785713D01*
X184295295Y-101785713D02*
X184200057Y-101738094D01*
X184200057Y-101738094D02*
X184152438Y-101690475D01*
X184152438Y-101690475D02*
X184104819Y-101595237D01*
X184104819Y-101595237D02*
X184104819Y-101404761D01*
X184104819Y-101404761D02*
X184152438Y-101309523D01*
X184152438Y-101309523D02*
X184200057Y-101261904D01*
X184200057Y-101261904D02*
X184295295Y-101214285D01*
X184295295Y-101214285D02*
X184342914Y-101214285D01*
X184342914Y-101214285D02*
X184438152Y-101261904D01*
X184438152Y-101261904D02*
X184485771Y-101309523D01*
X184485771Y-101309523D02*
X184533390Y-101404761D01*
X184533390Y-101404761D02*
X184533390Y-101595237D01*
X184533390Y-101595237D02*
X184581009Y-101690475D01*
X184581009Y-101690475D02*
X184628628Y-101738094D01*
X184628628Y-101738094D02*
X184723866Y-101785713D01*
X184723866Y-101785713D02*
X184914342Y-101785713D01*
X184914342Y-101785713D02*
X185009580Y-101738094D01*
X185009580Y-101738094D02*
X185057200Y-101690475D01*
X185057200Y-101690475D02*
X185104819Y-101595237D01*
X185104819Y-101595237D02*
X185104819Y-101404761D01*
X185104819Y-101404761D02*
X185057200Y-101309523D01*
X185057200Y-101309523D02*
X185009580Y-101261904D01*
X185009580Y-101261904D02*
X184914342Y-101214285D01*
X184914342Y-101214285D02*
X184723866Y-101214285D01*
X184723866Y-101214285D02*
X184628628Y-101261904D01*
X184628628Y-101261904D02*
X184581009Y-101309523D01*
X184581009Y-101309523D02*
X184533390Y-101404761D01*
X185104819Y-82666666D02*
X184628628Y-82999999D01*
X185104819Y-83238094D02*
X184104819Y-83238094D01*
X184104819Y-83238094D02*
X184104819Y-82857142D01*
X184104819Y-82857142D02*
X184152438Y-82761904D01*
X184152438Y-82761904D02*
X184200057Y-82714285D01*
X184200057Y-82714285D02*
X184295295Y-82666666D01*
X184295295Y-82666666D02*
X184438152Y-82666666D01*
X184438152Y-82666666D02*
X184533390Y-82714285D01*
X184533390Y-82714285D02*
X184581009Y-82761904D01*
X184581009Y-82761904D02*
X184628628Y-82857142D01*
X184628628Y-82857142D02*
X184628628Y-83238094D01*
X184104819Y-81761904D02*
X184104819Y-82238094D01*
X184104819Y-82238094D02*
X184581009Y-82285713D01*
X184581009Y-82285713D02*
X184533390Y-82238094D01*
X184533390Y-82238094D02*
X184485771Y-82142856D01*
X184485771Y-82142856D02*
X184485771Y-81904761D01*
X184485771Y-81904761D02*
X184533390Y-81809523D01*
X184533390Y-81809523D02*
X184581009Y-81761904D01*
X184581009Y-81761904D02*
X184676247Y-81714285D01*
X184676247Y-81714285D02*
X184914342Y-81714285D01*
X184914342Y-81714285D02*
X185009580Y-81761904D01*
X185009580Y-81761904D02*
X185057200Y-81809523D01*
X185057200Y-81809523D02*
X185104819Y-81904761D01*
X185104819Y-81904761D02*
X185104819Y-82142856D01*
X185104819Y-82142856D02*
X185057200Y-82238094D01*
X185057200Y-82238094D02*
X185009580Y-82285713D01*
X140238333Y-115104819D02*
X139905000Y-114628628D01*
X139666905Y-115104819D02*
X139666905Y-114104819D01*
X139666905Y-114104819D02*
X140047857Y-114104819D01*
X140047857Y-114104819D02*
X140143095Y-114152438D01*
X140143095Y-114152438D02*
X140190714Y-114200057D01*
X140190714Y-114200057D02*
X140238333Y-114295295D01*
X140238333Y-114295295D02*
X140238333Y-114438152D01*
X140238333Y-114438152D02*
X140190714Y-114533390D01*
X140190714Y-114533390D02*
X140143095Y-114581009D01*
X140143095Y-114581009D02*
X140047857Y-114628628D01*
X140047857Y-114628628D02*
X139666905Y-114628628D01*
X140571667Y-114104819D02*
X141238333Y-114104819D01*
X141238333Y-114104819D02*
X140809762Y-115104819D01*
X107607200Y-106833332D02*
X107654819Y-106690475D01*
X107654819Y-106690475D02*
X107654819Y-106452380D01*
X107654819Y-106452380D02*
X107607200Y-106357142D01*
X107607200Y-106357142D02*
X107559580Y-106309523D01*
X107559580Y-106309523D02*
X107464342Y-106261904D01*
X107464342Y-106261904D02*
X107369104Y-106261904D01*
X107369104Y-106261904D02*
X107273866Y-106309523D01*
X107273866Y-106309523D02*
X107226247Y-106357142D01*
X107226247Y-106357142D02*
X107178628Y-106452380D01*
X107178628Y-106452380D02*
X107131009Y-106642856D01*
X107131009Y-106642856D02*
X107083390Y-106738094D01*
X107083390Y-106738094D02*
X107035771Y-106785713D01*
X107035771Y-106785713D02*
X106940533Y-106833332D01*
X106940533Y-106833332D02*
X106845295Y-106833332D01*
X106845295Y-106833332D02*
X106750057Y-106785713D01*
X106750057Y-106785713D02*
X106702438Y-106738094D01*
X106702438Y-106738094D02*
X106654819Y-106642856D01*
X106654819Y-106642856D02*
X106654819Y-106404761D01*
X106654819Y-106404761D02*
X106702438Y-106261904D01*
X106654819Y-105928570D02*
X107654819Y-105690475D01*
X107654819Y-105690475D02*
X106940533Y-105499999D01*
X106940533Y-105499999D02*
X107654819Y-105309523D01*
X107654819Y-105309523D02*
X106654819Y-105071428D01*
X106654819Y-104785713D02*
X106654819Y-104166666D01*
X106654819Y-104166666D02*
X107035771Y-104499999D01*
X107035771Y-104499999D02*
X107035771Y-104357142D01*
X107035771Y-104357142D02*
X107083390Y-104261904D01*
X107083390Y-104261904D02*
X107131009Y-104214285D01*
X107131009Y-104214285D02*
X107226247Y-104166666D01*
X107226247Y-104166666D02*
X107464342Y-104166666D01*
X107464342Y-104166666D02*
X107559580Y-104214285D01*
X107559580Y-104214285D02*
X107607200Y-104261904D01*
X107607200Y-104261904D02*
X107654819Y-104357142D01*
X107654819Y-104357142D02*
X107654819Y-104642856D01*
X107654819Y-104642856D02*
X107607200Y-104738094D01*
X107607200Y-104738094D02*
X107559580Y-104785713D01*
X125833333Y-96304819D02*
X125500000Y-95828628D01*
X125261905Y-96304819D02*
X125261905Y-95304819D01*
X125261905Y-95304819D02*
X125642857Y-95304819D01*
X125642857Y-95304819D02*
X125738095Y-95352438D01*
X125738095Y-95352438D02*
X125785714Y-95400057D01*
X125785714Y-95400057D02*
X125833333Y-95495295D01*
X125833333Y-95495295D02*
X125833333Y-95638152D01*
X125833333Y-95638152D02*
X125785714Y-95733390D01*
X125785714Y-95733390D02*
X125738095Y-95781009D01*
X125738095Y-95781009D02*
X125642857Y-95828628D01*
X125642857Y-95828628D02*
X125261905Y-95828628D01*
X126309524Y-96304819D02*
X126500000Y-96304819D01*
X126500000Y-96304819D02*
X126595238Y-96257200D01*
X126595238Y-96257200D02*
X126642857Y-96209580D01*
X126642857Y-96209580D02*
X126738095Y-96066723D01*
X126738095Y-96066723D02*
X126785714Y-95876247D01*
X126785714Y-95876247D02*
X126785714Y-95495295D01*
X126785714Y-95495295D02*
X126738095Y-95400057D01*
X126738095Y-95400057D02*
X126690476Y-95352438D01*
X126690476Y-95352438D02*
X126595238Y-95304819D01*
X126595238Y-95304819D02*
X126404762Y-95304819D01*
X126404762Y-95304819D02*
X126309524Y-95352438D01*
X126309524Y-95352438D02*
X126261905Y-95400057D01*
X126261905Y-95400057D02*
X126214286Y-95495295D01*
X126214286Y-95495295D02*
X126214286Y-95733390D01*
X126214286Y-95733390D02*
X126261905Y-95828628D01*
X126261905Y-95828628D02*
X126309524Y-95876247D01*
X126309524Y-95876247D02*
X126404762Y-95923866D01*
X126404762Y-95923866D02*
X126595238Y-95923866D01*
X126595238Y-95923866D02*
X126690476Y-95876247D01*
X126690476Y-95876247D02*
X126738095Y-95828628D01*
X126738095Y-95828628D02*
X126785714Y-95733390D01*
X138933333Y-94804819D02*
X138600000Y-94328628D01*
X138361905Y-94804819D02*
X138361905Y-93804819D01*
X138361905Y-93804819D02*
X138742857Y-93804819D01*
X138742857Y-93804819D02*
X138838095Y-93852438D01*
X138838095Y-93852438D02*
X138885714Y-93900057D01*
X138885714Y-93900057D02*
X138933333Y-93995295D01*
X138933333Y-93995295D02*
X138933333Y-94138152D01*
X138933333Y-94138152D02*
X138885714Y-94233390D01*
X138885714Y-94233390D02*
X138838095Y-94281009D01*
X138838095Y-94281009D02*
X138742857Y-94328628D01*
X138742857Y-94328628D02*
X138361905Y-94328628D01*
X139790476Y-93804819D02*
X139600000Y-93804819D01*
X139600000Y-93804819D02*
X139504762Y-93852438D01*
X139504762Y-93852438D02*
X139457143Y-93900057D01*
X139457143Y-93900057D02*
X139361905Y-94042914D01*
X139361905Y-94042914D02*
X139314286Y-94233390D01*
X139314286Y-94233390D02*
X139314286Y-94614342D01*
X139314286Y-94614342D02*
X139361905Y-94709580D01*
X139361905Y-94709580D02*
X139409524Y-94757200D01*
X139409524Y-94757200D02*
X139504762Y-94804819D01*
X139504762Y-94804819D02*
X139695238Y-94804819D01*
X139695238Y-94804819D02*
X139790476Y-94757200D01*
X139790476Y-94757200D02*
X139838095Y-94709580D01*
X139838095Y-94709580D02*
X139885714Y-94614342D01*
X139885714Y-94614342D02*
X139885714Y-94376247D01*
X139885714Y-94376247D02*
X139838095Y-94281009D01*
X139838095Y-94281009D02*
X139790476Y-94233390D01*
X139790476Y-94233390D02*
X139695238Y-94185771D01*
X139695238Y-94185771D02*
X139504762Y-94185771D01*
X139504762Y-94185771D02*
X139409524Y-94233390D01*
X139409524Y-94233390D02*
X139361905Y-94281009D01*
X139361905Y-94281009D02*
X139314286Y-94376247D01*
X94107200Y-106983332D02*
X94154819Y-106840475D01*
X94154819Y-106840475D02*
X94154819Y-106602380D01*
X94154819Y-106602380D02*
X94107200Y-106507142D01*
X94107200Y-106507142D02*
X94059580Y-106459523D01*
X94059580Y-106459523D02*
X93964342Y-106411904D01*
X93964342Y-106411904D02*
X93869104Y-106411904D01*
X93869104Y-106411904D02*
X93773866Y-106459523D01*
X93773866Y-106459523D02*
X93726247Y-106507142D01*
X93726247Y-106507142D02*
X93678628Y-106602380D01*
X93678628Y-106602380D02*
X93631009Y-106792856D01*
X93631009Y-106792856D02*
X93583390Y-106888094D01*
X93583390Y-106888094D02*
X93535771Y-106935713D01*
X93535771Y-106935713D02*
X93440533Y-106983332D01*
X93440533Y-106983332D02*
X93345295Y-106983332D01*
X93345295Y-106983332D02*
X93250057Y-106935713D01*
X93250057Y-106935713D02*
X93202438Y-106888094D01*
X93202438Y-106888094D02*
X93154819Y-106792856D01*
X93154819Y-106792856D02*
X93154819Y-106554761D01*
X93154819Y-106554761D02*
X93202438Y-106411904D01*
X93154819Y-106078570D02*
X94154819Y-105840475D01*
X94154819Y-105840475D02*
X93440533Y-105649999D01*
X93440533Y-105649999D02*
X94154819Y-105459523D01*
X94154819Y-105459523D02*
X93154819Y-105221428D01*
X93250057Y-104888094D02*
X93202438Y-104840475D01*
X93202438Y-104840475D02*
X93154819Y-104745237D01*
X93154819Y-104745237D02*
X93154819Y-104507142D01*
X93154819Y-104507142D02*
X93202438Y-104411904D01*
X93202438Y-104411904D02*
X93250057Y-104364285D01*
X93250057Y-104364285D02*
X93345295Y-104316666D01*
X93345295Y-104316666D02*
X93440533Y-104316666D01*
X93440533Y-104316666D02*
X93583390Y-104364285D01*
X93583390Y-104364285D02*
X94154819Y-104935713D01*
X94154819Y-104935713D02*
X94154819Y-104316666D01*
X96869104Y-85849285D02*
X96869104Y-85373095D01*
X97154819Y-85944523D02*
X96154819Y-85611190D01*
X96154819Y-85611190D02*
X97154819Y-85277857D01*
X97154819Y-84420714D02*
X97154819Y-84992142D01*
X97154819Y-84706428D02*
X96154819Y-84706428D01*
X96154819Y-84706428D02*
X96297676Y-84801666D01*
X96297676Y-84801666D02*
X96392914Y-84896904D01*
X96392914Y-84896904D02*
X96440533Y-84992142D01*
X136794819Y-86396904D02*
X137604342Y-86396904D01*
X137604342Y-86396904D02*
X137699580Y-86349285D01*
X137699580Y-86349285D02*
X137747200Y-86301666D01*
X137747200Y-86301666D02*
X137794819Y-86206428D01*
X137794819Y-86206428D02*
X137794819Y-86015952D01*
X137794819Y-86015952D02*
X137747200Y-85920714D01*
X137747200Y-85920714D02*
X137699580Y-85873095D01*
X137699580Y-85873095D02*
X137604342Y-85825476D01*
X137604342Y-85825476D02*
X136794819Y-85825476D01*
X137747200Y-85396904D02*
X137794819Y-85254047D01*
X137794819Y-85254047D02*
X137794819Y-85015952D01*
X137794819Y-85015952D02*
X137747200Y-84920714D01*
X137747200Y-84920714D02*
X137699580Y-84873095D01*
X137699580Y-84873095D02*
X137604342Y-84825476D01*
X137604342Y-84825476D02*
X137509104Y-84825476D01*
X137509104Y-84825476D02*
X137413866Y-84873095D01*
X137413866Y-84873095D02*
X137366247Y-84920714D01*
X137366247Y-84920714D02*
X137318628Y-85015952D01*
X137318628Y-85015952D02*
X137271009Y-85206428D01*
X137271009Y-85206428D02*
X137223390Y-85301666D01*
X137223390Y-85301666D02*
X137175771Y-85349285D01*
X137175771Y-85349285D02*
X137080533Y-85396904D01*
X137080533Y-85396904D02*
X136985295Y-85396904D01*
X136985295Y-85396904D02*
X136890057Y-85349285D01*
X136890057Y-85349285D02*
X136842438Y-85301666D01*
X136842438Y-85301666D02*
X136794819Y-85206428D01*
X136794819Y-85206428D02*
X136794819Y-84968333D01*
X136794819Y-84968333D02*
X136842438Y-84825476D01*
X137271009Y-84063571D02*
X137318628Y-83920714D01*
X137318628Y-83920714D02*
X137366247Y-83873095D01*
X137366247Y-83873095D02*
X137461485Y-83825476D01*
X137461485Y-83825476D02*
X137604342Y-83825476D01*
X137604342Y-83825476D02*
X137699580Y-83873095D01*
X137699580Y-83873095D02*
X137747200Y-83920714D01*
X137747200Y-83920714D02*
X137794819Y-84015952D01*
X137794819Y-84015952D02*
X137794819Y-84396904D01*
X137794819Y-84396904D02*
X136794819Y-84396904D01*
X136794819Y-84396904D02*
X136794819Y-84063571D01*
X136794819Y-84063571D02*
X136842438Y-83968333D01*
X136842438Y-83968333D02*
X136890057Y-83920714D01*
X136890057Y-83920714D02*
X136985295Y-83873095D01*
X136985295Y-83873095D02*
X137080533Y-83873095D01*
X137080533Y-83873095D02*
X137175771Y-83920714D01*
X137175771Y-83920714D02*
X137223390Y-83968333D01*
X137223390Y-83968333D02*
X137271009Y-84063571D01*
X137271009Y-84063571D02*
X137271009Y-84396904D01*
X102762142Y-98104819D02*
X102428809Y-97628628D01*
X102190714Y-98104819D02*
X102190714Y-97104819D01*
X102190714Y-97104819D02*
X102571666Y-97104819D01*
X102571666Y-97104819D02*
X102666904Y-97152438D01*
X102666904Y-97152438D02*
X102714523Y-97200057D01*
X102714523Y-97200057D02*
X102762142Y-97295295D01*
X102762142Y-97295295D02*
X102762142Y-97438152D01*
X102762142Y-97438152D02*
X102714523Y-97533390D01*
X102714523Y-97533390D02*
X102666904Y-97581009D01*
X102666904Y-97581009D02*
X102571666Y-97628628D01*
X102571666Y-97628628D02*
X102190714Y-97628628D01*
X103714523Y-98104819D02*
X103143095Y-98104819D01*
X103428809Y-98104819D02*
X103428809Y-97104819D01*
X103428809Y-97104819D02*
X103333571Y-97247676D01*
X103333571Y-97247676D02*
X103238333Y-97342914D01*
X103238333Y-97342914D02*
X103143095Y-97390533D01*
X104095476Y-97200057D02*
X104143095Y-97152438D01*
X104143095Y-97152438D02*
X104238333Y-97104819D01*
X104238333Y-97104819D02*
X104476428Y-97104819D01*
X104476428Y-97104819D02*
X104571666Y-97152438D01*
X104571666Y-97152438D02*
X104619285Y-97200057D01*
X104619285Y-97200057D02*
X104666904Y-97295295D01*
X104666904Y-97295295D02*
X104666904Y-97390533D01*
X104666904Y-97390533D02*
X104619285Y-97533390D01*
X104619285Y-97533390D02*
X104047857Y-98104819D01*
X104047857Y-98104819D02*
X104666904Y-98104819D01*
D11*
X173331818Y-84527332D02*
X174238961Y-84527332D01*
X174238961Y-84527332D02*
X174420389Y-84587809D01*
X174420389Y-84587809D02*
X174541342Y-84708761D01*
X174541342Y-84708761D02*
X174601818Y-84890190D01*
X174601818Y-84890190D02*
X174601818Y-85011142D01*
X173331818Y-84043523D02*
X173331818Y-83257332D01*
X173331818Y-83257332D02*
X173815627Y-83680666D01*
X173815627Y-83680666D02*
X173815627Y-83499237D01*
X173815627Y-83499237D02*
X173876103Y-83378285D01*
X173876103Y-83378285D02*
X173936580Y-83317809D01*
X173936580Y-83317809D02*
X174057532Y-83257332D01*
X174057532Y-83257332D02*
X174359913Y-83257332D01*
X174359913Y-83257332D02*
X174480865Y-83317809D01*
X174480865Y-83317809D02*
X174541342Y-83378285D01*
X174541342Y-83378285D02*
X174601818Y-83499237D01*
X174601818Y-83499237D02*
X174601818Y-83862094D01*
X174601818Y-83862094D02*
X174541342Y-83983047D01*
X174541342Y-83983047D02*
X174480865Y-84043523D01*
X146533333Y-119612365D02*
X146472857Y-119672842D01*
X146472857Y-119672842D02*
X146291428Y-119733318D01*
X146291428Y-119733318D02*
X146170476Y-119733318D01*
X146170476Y-119733318D02*
X145989047Y-119672842D01*
X145989047Y-119672842D02*
X145868095Y-119551889D01*
X145868095Y-119551889D02*
X145807618Y-119430937D01*
X145807618Y-119430937D02*
X145747142Y-119189032D01*
X145747142Y-119189032D02*
X145747142Y-119007603D01*
X145747142Y-119007603D02*
X145807618Y-118765699D01*
X145807618Y-118765699D02*
X145868095Y-118644746D01*
X145868095Y-118644746D02*
X145989047Y-118523794D01*
X145989047Y-118523794D02*
X146170476Y-118463318D01*
X146170476Y-118463318D02*
X146291428Y-118463318D01*
X146291428Y-118463318D02*
X146472857Y-118523794D01*
X146472857Y-118523794D02*
X146533333Y-118584270D01*
X147621904Y-118463318D02*
X147379999Y-118463318D01*
X147379999Y-118463318D02*
X147259047Y-118523794D01*
X147259047Y-118523794D02*
X147198571Y-118584270D01*
X147198571Y-118584270D02*
X147077618Y-118765699D01*
X147077618Y-118765699D02*
X147017142Y-119007603D01*
X147017142Y-119007603D02*
X147017142Y-119491413D01*
X147017142Y-119491413D02*
X147077618Y-119612365D01*
X147077618Y-119612365D02*
X147138095Y-119672842D01*
X147138095Y-119672842D02*
X147259047Y-119733318D01*
X147259047Y-119733318D02*
X147500952Y-119733318D01*
X147500952Y-119733318D02*
X147621904Y-119672842D01*
X147621904Y-119672842D02*
X147682380Y-119612365D01*
X147682380Y-119612365D02*
X147742857Y-119491413D01*
X147742857Y-119491413D02*
X147742857Y-119189032D01*
X147742857Y-119189032D02*
X147682380Y-119068080D01*
X147682380Y-119068080D02*
X147621904Y-119007603D01*
X147621904Y-119007603D02*
X147500952Y-118947127D01*
X147500952Y-118947127D02*
X147259047Y-118947127D01*
X147259047Y-118947127D02*
X147138095Y-119007603D01*
X147138095Y-119007603D02*
X147077618Y-119068080D01*
X147077618Y-119068080D02*
X147017142Y-119189032D01*
X150860237Y-80304318D02*
X150860237Y-79034318D01*
X152190714Y-80183365D02*
X152130238Y-80243842D01*
X152130238Y-80243842D02*
X151948809Y-80304318D01*
X151948809Y-80304318D02*
X151827857Y-80304318D01*
X151827857Y-80304318D02*
X151646428Y-80243842D01*
X151646428Y-80243842D02*
X151525476Y-80122889D01*
X151525476Y-80122889D02*
X151464999Y-80001937D01*
X151464999Y-80001937D02*
X151404523Y-79760032D01*
X151404523Y-79760032D02*
X151404523Y-79578603D01*
X151404523Y-79578603D02*
X151464999Y-79336699D01*
X151464999Y-79336699D02*
X151525476Y-79215746D01*
X151525476Y-79215746D02*
X151646428Y-79094794D01*
X151646428Y-79094794D02*
X151827857Y-79034318D01*
X151827857Y-79034318D02*
X151948809Y-79034318D01*
X151948809Y-79034318D02*
X152130238Y-79094794D01*
X152130238Y-79094794D02*
X152190714Y-79155270D01*
X153400238Y-80304318D02*
X152674523Y-80304318D01*
X153037380Y-80304318D02*
X153037380Y-79034318D01*
X153037380Y-79034318D02*
X152916428Y-79215746D01*
X152916428Y-79215746D02*
X152795476Y-79336699D01*
X152795476Y-79336699D02*
X152674523Y-79397175D01*
X151760237Y-89574318D02*
X151760237Y-88304318D01*
X153090714Y-89453365D02*
X153030238Y-89513842D01*
X153030238Y-89513842D02*
X152848809Y-89574318D01*
X152848809Y-89574318D02*
X152727857Y-89574318D01*
X152727857Y-89574318D02*
X152546428Y-89513842D01*
X152546428Y-89513842D02*
X152425476Y-89392889D01*
X152425476Y-89392889D02*
X152364999Y-89271937D01*
X152364999Y-89271937D02*
X152304523Y-89030032D01*
X152304523Y-89030032D02*
X152304523Y-88848603D01*
X152304523Y-88848603D02*
X152364999Y-88606699D01*
X152364999Y-88606699D02*
X152425476Y-88485746D01*
X152425476Y-88485746D02*
X152546428Y-88364794D01*
X152546428Y-88364794D02*
X152727857Y-88304318D01*
X152727857Y-88304318D02*
X152848809Y-88304318D01*
X152848809Y-88304318D02*
X153030238Y-88364794D01*
X153030238Y-88364794D02*
X153090714Y-88425270D01*
X153574523Y-88425270D02*
X153634999Y-88364794D01*
X153634999Y-88364794D02*
X153755952Y-88304318D01*
X153755952Y-88304318D02*
X154058333Y-88304318D01*
X154058333Y-88304318D02*
X154179285Y-88364794D01*
X154179285Y-88364794D02*
X154239761Y-88425270D01*
X154239761Y-88425270D02*
X154300238Y-88546222D01*
X154300238Y-88546222D02*
X154300238Y-88667175D01*
X154300238Y-88667175D02*
X154239761Y-88848603D01*
X154239761Y-88848603D02*
X153514047Y-89574318D01*
X153514047Y-89574318D02*
X154300238Y-89574318D01*
X148260237Y-106074318D02*
X148260237Y-104804318D01*
X149590714Y-105953365D02*
X149530238Y-106013842D01*
X149530238Y-106013842D02*
X149348809Y-106074318D01*
X149348809Y-106074318D02*
X149227857Y-106074318D01*
X149227857Y-106074318D02*
X149046428Y-106013842D01*
X149046428Y-106013842D02*
X148925476Y-105892889D01*
X148925476Y-105892889D02*
X148864999Y-105771937D01*
X148864999Y-105771937D02*
X148804523Y-105530032D01*
X148804523Y-105530032D02*
X148804523Y-105348603D01*
X148804523Y-105348603D02*
X148864999Y-105106699D01*
X148864999Y-105106699D02*
X148925476Y-104985746D01*
X148925476Y-104985746D02*
X149046428Y-104864794D01*
X149046428Y-104864794D02*
X149227857Y-104804318D01*
X149227857Y-104804318D02*
X149348809Y-104804318D01*
X149348809Y-104804318D02*
X149530238Y-104864794D01*
X149530238Y-104864794D02*
X149590714Y-104925270D01*
X150014047Y-104804318D02*
X150800238Y-104804318D01*
X150800238Y-104804318D02*
X150376904Y-105288127D01*
X150376904Y-105288127D02*
X150558333Y-105288127D01*
X150558333Y-105288127D02*
X150679285Y-105348603D01*
X150679285Y-105348603D02*
X150739761Y-105409080D01*
X150739761Y-105409080D02*
X150800238Y-105530032D01*
X150800238Y-105530032D02*
X150800238Y-105832413D01*
X150800238Y-105832413D02*
X150739761Y-105953365D01*
X150739761Y-105953365D02*
X150679285Y-106013842D01*
X150679285Y-106013842D02*
X150558333Y-106074318D01*
X150558333Y-106074318D02*
X150195476Y-106074318D01*
X150195476Y-106074318D02*
X150074523Y-106013842D01*
X150074523Y-106013842D02*
X150014047Y-105953365D01*
X148260237Y-113574318D02*
X148260237Y-112304318D01*
X149590714Y-113453365D02*
X149530238Y-113513842D01*
X149530238Y-113513842D02*
X149348809Y-113574318D01*
X149348809Y-113574318D02*
X149227857Y-113574318D01*
X149227857Y-113574318D02*
X149046428Y-113513842D01*
X149046428Y-113513842D02*
X148925476Y-113392889D01*
X148925476Y-113392889D02*
X148864999Y-113271937D01*
X148864999Y-113271937D02*
X148804523Y-113030032D01*
X148804523Y-113030032D02*
X148804523Y-112848603D01*
X148804523Y-112848603D02*
X148864999Y-112606699D01*
X148864999Y-112606699D02*
X148925476Y-112485746D01*
X148925476Y-112485746D02*
X149046428Y-112364794D01*
X149046428Y-112364794D02*
X149227857Y-112304318D01*
X149227857Y-112304318D02*
X149348809Y-112304318D01*
X149348809Y-112304318D02*
X149530238Y-112364794D01*
X149530238Y-112364794D02*
X149590714Y-112425270D01*
X150679285Y-112727651D02*
X150679285Y-113574318D01*
X150376904Y-112243842D02*
X150074523Y-113150984D01*
X150074523Y-113150984D02*
X150860714Y-113150984D01*
D10*
X131952142Y-96304819D02*
X131618809Y-95828628D01*
X131380714Y-96304819D02*
X131380714Y-95304819D01*
X131380714Y-95304819D02*
X131761666Y-95304819D01*
X131761666Y-95304819D02*
X131856904Y-95352438D01*
X131856904Y-95352438D02*
X131904523Y-95400057D01*
X131904523Y-95400057D02*
X131952142Y-95495295D01*
X131952142Y-95495295D02*
X131952142Y-95638152D01*
X131952142Y-95638152D02*
X131904523Y-95733390D01*
X131904523Y-95733390D02*
X131856904Y-95781009D01*
X131856904Y-95781009D02*
X131761666Y-95828628D01*
X131761666Y-95828628D02*
X131380714Y-95828628D01*
X132904523Y-96304819D02*
X132333095Y-96304819D01*
X132618809Y-96304819D02*
X132618809Y-95304819D01*
X132618809Y-95304819D02*
X132523571Y-95447676D01*
X132523571Y-95447676D02*
X132428333Y-95542914D01*
X132428333Y-95542914D02*
X132333095Y-95590533D01*
X133523571Y-95304819D02*
X133618809Y-95304819D01*
X133618809Y-95304819D02*
X133714047Y-95352438D01*
X133714047Y-95352438D02*
X133761666Y-95400057D01*
X133761666Y-95400057D02*
X133809285Y-95495295D01*
X133809285Y-95495295D02*
X133856904Y-95685771D01*
X133856904Y-95685771D02*
X133856904Y-95923866D01*
X133856904Y-95923866D02*
X133809285Y-96114342D01*
X133809285Y-96114342D02*
X133761666Y-96209580D01*
X133761666Y-96209580D02*
X133714047Y-96257200D01*
X133714047Y-96257200D02*
X133618809Y-96304819D01*
X133618809Y-96304819D02*
X133523571Y-96304819D01*
X133523571Y-96304819D02*
X133428333Y-96257200D01*
X133428333Y-96257200D02*
X133380714Y-96209580D01*
X133380714Y-96209580D02*
X133333095Y-96114342D01*
X133333095Y-96114342D02*
X133285476Y-95923866D01*
X133285476Y-95923866D02*
X133285476Y-95685771D01*
X133285476Y-95685771D02*
X133333095Y-95495295D01*
X133333095Y-95495295D02*
X133380714Y-95400057D01*
X133380714Y-95400057D02*
X133428333Y-95352438D01*
X133428333Y-95352438D02*
X133523571Y-95304819D01*
X126261905Y-102319819D02*
X126261905Y-101319819D01*
X126261905Y-101319819D02*
X126500000Y-101319819D01*
X126500000Y-101319819D02*
X126642857Y-101367438D01*
X126642857Y-101367438D02*
X126738095Y-101462676D01*
X126738095Y-101462676D02*
X126785714Y-101557914D01*
X126785714Y-101557914D02*
X126833333Y-101748390D01*
X126833333Y-101748390D02*
X126833333Y-101891247D01*
X126833333Y-101891247D02*
X126785714Y-102081723D01*
X126785714Y-102081723D02*
X126738095Y-102176961D01*
X126738095Y-102176961D02*
X126642857Y-102272200D01*
X126642857Y-102272200D02*
X126500000Y-102319819D01*
X126500000Y-102319819D02*
X126261905Y-102319819D01*
X127214286Y-101415057D02*
X127261905Y-101367438D01*
X127261905Y-101367438D02*
X127357143Y-101319819D01*
X127357143Y-101319819D02*
X127595238Y-101319819D01*
X127595238Y-101319819D02*
X127690476Y-101367438D01*
X127690476Y-101367438D02*
X127738095Y-101415057D01*
X127738095Y-101415057D02*
X127785714Y-101510295D01*
X127785714Y-101510295D02*
X127785714Y-101605533D01*
X127785714Y-101605533D02*
X127738095Y-101748390D01*
X127738095Y-101748390D02*
X127166667Y-102319819D01*
X127166667Y-102319819D02*
X127785714Y-102319819D01*
X123795238Y-105157533D02*
X124404762Y-105157533D01*
X124100000Y-105462295D02*
X124100000Y-104852771D01*
D11*
X183310237Y-77574318D02*
X183310237Y-76304318D01*
X184640714Y-77453365D02*
X184580238Y-77513842D01*
X184580238Y-77513842D02*
X184398809Y-77574318D01*
X184398809Y-77574318D02*
X184277857Y-77574318D01*
X184277857Y-77574318D02*
X184096428Y-77513842D01*
X184096428Y-77513842D02*
X183975476Y-77392889D01*
X183975476Y-77392889D02*
X183914999Y-77271937D01*
X183914999Y-77271937D02*
X183854523Y-77030032D01*
X183854523Y-77030032D02*
X183854523Y-76848603D01*
X183854523Y-76848603D02*
X183914999Y-76606699D01*
X183914999Y-76606699D02*
X183975476Y-76485746D01*
X183975476Y-76485746D02*
X184096428Y-76364794D01*
X184096428Y-76364794D02*
X184277857Y-76304318D01*
X184277857Y-76304318D02*
X184398809Y-76304318D01*
X184398809Y-76304318D02*
X184580238Y-76364794D01*
X184580238Y-76364794D02*
X184640714Y-76425270D01*
X185789761Y-76304318D02*
X185184999Y-76304318D01*
X185184999Y-76304318D02*
X185124523Y-76909080D01*
X185124523Y-76909080D02*
X185184999Y-76848603D01*
X185184999Y-76848603D02*
X185305952Y-76788127D01*
X185305952Y-76788127D02*
X185608333Y-76788127D01*
X185608333Y-76788127D02*
X185729285Y-76848603D01*
X185729285Y-76848603D02*
X185789761Y-76909080D01*
X185789761Y-76909080D02*
X185850238Y-77030032D01*
X185850238Y-77030032D02*
X185850238Y-77332413D01*
X185850238Y-77332413D02*
X185789761Y-77453365D01*
X185789761Y-77453365D02*
X185729285Y-77513842D01*
X185729285Y-77513842D02*
X185608333Y-77574318D01*
X185608333Y-77574318D02*
X185305952Y-77574318D01*
X185305952Y-77574318D02*
X185184999Y-77513842D01*
X185184999Y-77513842D02*
X185124523Y-77453365D01*
D10*
X115357142Y-97604819D02*
X115023809Y-97128628D01*
X114785714Y-97604819D02*
X114785714Y-96604819D01*
X114785714Y-96604819D02*
X115166666Y-96604819D01*
X115166666Y-96604819D02*
X115261904Y-96652438D01*
X115261904Y-96652438D02*
X115309523Y-96700057D01*
X115309523Y-96700057D02*
X115357142Y-96795295D01*
X115357142Y-96795295D02*
X115357142Y-96938152D01*
X115357142Y-96938152D02*
X115309523Y-97033390D01*
X115309523Y-97033390D02*
X115261904Y-97081009D01*
X115261904Y-97081009D02*
X115166666Y-97128628D01*
X115166666Y-97128628D02*
X114785714Y-97128628D01*
X116309523Y-97604819D02*
X115738095Y-97604819D01*
X116023809Y-97604819D02*
X116023809Y-96604819D01*
X116023809Y-96604819D02*
X115928571Y-96747676D01*
X115928571Y-96747676D02*
X115833333Y-96842914D01*
X115833333Y-96842914D02*
X115738095Y-96890533D01*
X117261904Y-97604819D02*
X116690476Y-97604819D01*
X116976190Y-97604819D02*
X116976190Y-96604819D01*
X116976190Y-96604819D02*
X116880952Y-96747676D01*
X116880952Y-96747676D02*
X116785714Y-96842914D01*
X116785714Y-96842914D02*
X116690476Y-96890533D01*
D11*
X151043333Y-118294365D02*
X150982857Y-118354842D01*
X150982857Y-118354842D02*
X150801428Y-118415318D01*
X150801428Y-118415318D02*
X150680476Y-118415318D01*
X150680476Y-118415318D02*
X150499047Y-118354842D01*
X150499047Y-118354842D02*
X150378095Y-118233889D01*
X150378095Y-118233889D02*
X150317618Y-118112937D01*
X150317618Y-118112937D02*
X150257142Y-117871032D01*
X150257142Y-117871032D02*
X150257142Y-117689603D01*
X150257142Y-117689603D02*
X150317618Y-117447699D01*
X150317618Y-117447699D02*
X150378095Y-117326746D01*
X150378095Y-117326746D02*
X150499047Y-117205794D01*
X150499047Y-117205794D02*
X150680476Y-117145318D01*
X150680476Y-117145318D02*
X150801428Y-117145318D01*
X150801428Y-117145318D02*
X150982857Y-117205794D01*
X150982857Y-117205794D02*
X151043333Y-117266270D01*
X151466666Y-117145318D02*
X152313333Y-117145318D01*
X152313333Y-117145318D02*
X151769047Y-118415318D01*
D10*
X126803095Y-55429819D02*
X126803095Y-56239342D01*
X126803095Y-56239342D02*
X126850714Y-56334580D01*
X126850714Y-56334580D02*
X126898333Y-56382200D01*
X126898333Y-56382200D02*
X126993571Y-56429819D01*
X126993571Y-56429819D02*
X127184047Y-56429819D01*
X127184047Y-56429819D02*
X127279285Y-56382200D01*
X127279285Y-56382200D02*
X127326904Y-56334580D01*
X127326904Y-56334580D02*
X127374523Y-56239342D01*
X127374523Y-56239342D02*
X127374523Y-55429819D01*
X128279285Y-55763152D02*
X128279285Y-56429819D01*
X128041190Y-55382200D02*
X127803095Y-56096485D01*
X127803095Y-56096485D02*
X128422142Y-56096485D01*
X147333333Y-75104819D02*
X147000000Y-74628628D01*
X146761905Y-75104819D02*
X146761905Y-74104819D01*
X146761905Y-74104819D02*
X147142857Y-74104819D01*
X147142857Y-74104819D02*
X147238095Y-74152438D01*
X147238095Y-74152438D02*
X147285714Y-74200057D01*
X147285714Y-74200057D02*
X147333333Y-74295295D01*
X147333333Y-74295295D02*
X147333333Y-74438152D01*
X147333333Y-74438152D02*
X147285714Y-74533390D01*
X147285714Y-74533390D02*
X147238095Y-74581009D01*
X147238095Y-74581009D02*
X147142857Y-74628628D01*
X147142857Y-74628628D02*
X146761905Y-74628628D01*
X148285714Y-75104819D02*
X147714286Y-75104819D01*
X148000000Y-75104819D02*
X148000000Y-74104819D01*
X148000000Y-74104819D02*
X147904762Y-74247676D01*
X147904762Y-74247676D02*
X147809524Y-74342914D01*
X147809524Y-74342914D02*
X147714286Y-74390533D01*
D12*
%TO.C,U3*%
X174040000Y-102715000D02*
X178960000Y-102715000D01*
X174040000Y-107285000D02*
X174040000Y-102715000D01*
X178960000Y-102715000D02*
X178960000Y-107285000D01*
X178960000Y-107285000D02*
X174040000Y-107285000D01*
X174357000Y-108826000D02*
G75*
G02*
X174103000Y-108826000I-127000J0D01*
G01*
X174103000Y-108826000D02*
G75*
G02*
X174357000Y-108826000I127000J0D01*
G01*
D13*
%TO.C,J2*%
X152704000Y-47757500D02*
X152704000Y-64242500D01*
X163296000Y-47757500D02*
X152704000Y-47757500D01*
X163296000Y-62972500D02*
X163296000Y-47757500D01*
%TO.C,C3*%
X163500000Y-59200000D02*
X167500000Y-59200000D01*
X163500000Y-61800000D02*
X167500000Y-61800000D01*
D12*
%TO.C,J1*%
X97515000Y-49715000D02*
X112265000Y-49715000D01*
X97515000Y-70795000D02*
X97515000Y-49715000D01*
X112265000Y-55425000D02*
X112265000Y-49715000D01*
X112265000Y-70795000D02*
X97515000Y-70795000D01*
X112265000Y-70795000D02*
X112265000Y-65085000D01*
X114600000Y-48805000D02*
X115400000Y-48805000D01*
X115000000Y-49405000D02*
X114600000Y-48805000D01*
X115400000Y-48805000D02*
X115000000Y-49405000D01*
%TO.C,U2*%
X173540000Y-77715000D02*
X178460000Y-77715000D01*
X173540000Y-82285000D02*
X173540000Y-77715000D01*
X178460000Y-77715000D02*
X178460000Y-82285000D01*
X178460000Y-82285000D02*
X173540000Y-82285000D01*
X178397000Y-76174000D02*
G75*
G02*
X178143000Y-76174000I-127000J0D01*
G01*
X178143000Y-76174000D02*
G75*
G02*
X178397000Y-76174000I127000J0D01*
G01*
D14*
%TO.C,C1*%
X118062500Y-49652500D02*
X118850000Y-49652500D01*
X118456250Y-49258750D02*
X118456250Y-50046250D01*
X119090000Y-49154437D02*
X119090000Y-50440000D01*
X119090000Y-49154437D02*
X120154437Y-48090000D01*
X119090000Y-53845563D02*
X119090000Y-52560000D01*
X119090000Y-53845563D02*
X120154437Y-54910000D01*
X120154437Y-48090000D02*
X125910000Y-48090000D01*
X120154437Y-54910000D02*
X125910000Y-54910000D01*
X125910000Y-48090000D02*
X125910000Y-50440000D01*
X125910000Y-54910000D02*
X125910000Y-52560000D01*
%TO.C,C2*%
X118062500Y-66152500D02*
X118850000Y-66152500D01*
X118456250Y-65758750D02*
X118456250Y-66546250D01*
X119090000Y-65654437D02*
X119090000Y-66940000D01*
X119090000Y-65654437D02*
X120154437Y-64590000D01*
X119090000Y-70345563D02*
X119090000Y-69060000D01*
X119090000Y-70345563D02*
X120154437Y-71410000D01*
X120154437Y-64590000D02*
X125910000Y-64590000D01*
X120154437Y-71410000D02*
X125910000Y-71410000D01*
X125910000Y-64590000D02*
X125910000Y-66940000D01*
X125910000Y-71410000D02*
X125910000Y-69060000D01*
%TO.C,R2*%
X147632064Y-76765000D02*
X147177936Y-76765000D01*
X147632064Y-78235000D02*
X147177936Y-78235000D01*
D13*
%TO.C,C5*%
X92000000Y-117700000D02*
X96000000Y-117700000D01*
X92000000Y-120300000D02*
X96000000Y-120300000D01*
%TO.C,D3*%
X139600000Y-104000000D02*
X139600000Y-103680000D01*
X139600000Y-106000000D02*
X139600000Y-106320000D01*
D15*
X136070000Y-104230000D02*
G75*
G02*
X139600001Y-103680000I1930711J-788561D01*
G01*
X139600001Y-106320000D02*
G75*
G02*
X136070000Y-105770000I-1599290J1338561D01*
G01*
D14*
%TO.C,R4*%
X147727064Y-79265000D02*
X147272936Y-79265000D01*
X147727064Y-80735000D02*
X147272936Y-80735000D01*
%TO.C,R8*%
X182265000Y-101772936D02*
X182265000Y-102227064D01*
X183735000Y-101772936D02*
X183735000Y-102227064D01*
%TO.C,R5*%
X182265000Y-82272936D02*
X182265000Y-82727064D01*
X183735000Y-82272936D02*
X183735000Y-82727064D01*
%TO.C,R7*%
X140632064Y-112265000D02*
X140177936Y-112265000D01*
X140632064Y-113735000D02*
X140177936Y-113735000D01*
%TO.C,SW3*%
X108350000Y-100900000D02*
X109900000Y-99300000D01*
X108350000Y-110100000D02*
X108350000Y-100900000D01*
X109900000Y-111700000D02*
X108350000Y-110100000D01*
X111050000Y-99300000D02*
X109900000Y-99300000D01*
X111050000Y-111700000D02*
X109900000Y-111700000D01*
X112950000Y-99300000D02*
X116050000Y-99300000D01*
X112950000Y-111700000D02*
X116050000Y-111700000D01*
X117950000Y-99300000D02*
X119100000Y-99300000D01*
X117950000Y-111700000D02*
X119100000Y-111700000D01*
X119100000Y-111700000D02*
X120650000Y-110100000D01*
X120650000Y-100900000D02*
X119100000Y-99300000D01*
X120650000Y-110100000D02*
X120650000Y-100900000D01*
%TO.C,R9*%
X125772936Y-96765000D02*
X126227064Y-96765000D01*
X125772936Y-98235000D02*
X126227064Y-98235000D01*
%TO.C,R6*%
X138872936Y-95265000D02*
X139327064Y-95265000D01*
X138872936Y-96735000D02*
X139327064Y-96735000D01*
%TO.C,SW2*%
X94850000Y-101050000D02*
X96400000Y-99450000D01*
X94850000Y-110250000D02*
X94850000Y-101050000D01*
X96400000Y-111850000D02*
X94850000Y-110250000D01*
X97550000Y-99450000D02*
X96400000Y-99450000D01*
X97550000Y-111850000D02*
X96400000Y-111850000D01*
X99450000Y-99450000D02*
X102550000Y-99450000D01*
X99450000Y-111850000D02*
X102550000Y-111850000D01*
X104450000Y-99450000D02*
X105600000Y-99450000D01*
X104450000Y-111850000D02*
X105600000Y-111850000D01*
X105600000Y-111850000D02*
X107150000Y-110250000D01*
X107150000Y-101050000D02*
X105600000Y-99450000D01*
X107150000Y-110250000D02*
X107150000Y-101050000D01*
%TO.C,A1*%
X97840000Y-76115000D02*
X97840000Y-94155000D01*
X97840000Y-94155000D02*
X100510000Y-94155000D01*
X100510000Y-78785000D02*
X100510000Y-76115000D01*
X100510000Y-78785000D02*
X138610000Y-78785000D01*
X100510000Y-91485000D02*
X100510000Y-94155000D01*
X103050000Y-91485000D02*
X100510000Y-91485000D01*
X103050000Y-91485000D02*
X103050000Y-94155000D01*
X103050000Y-91485000D02*
X138610000Y-91485000D01*
X103050000Y-94155000D02*
X141280000Y-94155000D01*
X133400000Y-81195000D02*
X143820000Y-81195000D01*
X133400000Y-89075000D02*
X133400000Y-81195000D01*
X138610000Y-78785000D02*
X138610000Y-76115000D01*
X138610000Y-91485000D02*
X138610000Y-94155000D01*
X141280000Y-76115000D02*
X97840000Y-76115000D01*
X141280000Y-76115000D02*
X141280000Y-81195000D01*
X141280000Y-94155000D02*
X141280000Y-89075000D01*
X143820000Y-81195000D02*
X143820000Y-89075000D01*
X143820000Y-89075000D02*
X133400000Y-89075000D01*
%TO.C,R12*%
X103632064Y-95265000D02*
X103177936Y-95265000D01*
X103632064Y-96735000D02*
X103177936Y-96735000D01*
D13*
%TO.C,J3*%
X174527500Y-97296000D02*
X189742500Y-97296000D01*
X189742500Y-86704000D02*
X173257500Y-86704000D01*
X189742500Y-97296000D02*
X189742500Y-86704000D01*
%TO.C,C6*%
X148500000Y-117700000D02*
X144500000Y-117700000D01*
X148500000Y-120300000D02*
X144500000Y-120300000D01*
%TO.C,IC1*%
X150700000Y-73485000D02*
X152300000Y-73485000D01*
X152650000Y-73190000D02*
X159550000Y-73190000D01*
X152650000Y-78270000D02*
X152650000Y-73190000D01*
X159550000Y-73190000D02*
X159550000Y-78270000D01*
X159550000Y-78270000D02*
X152650000Y-78270000D01*
%TO.C,IC2*%
X151600000Y-82755000D02*
X153200000Y-82755000D01*
X153550000Y-82460000D02*
X160450000Y-82460000D01*
X153550000Y-87540000D02*
X153550000Y-82460000D01*
X160450000Y-82460000D02*
X160450000Y-87540000D01*
X160450000Y-87540000D02*
X153550000Y-87540000D01*
%TO.C,IC3*%
X148100000Y-99255000D02*
X149700000Y-99255000D01*
X150050000Y-98960000D02*
X156950000Y-98960000D01*
X150050000Y-104040000D02*
X150050000Y-98960000D01*
X156950000Y-98960000D02*
X156950000Y-104040000D01*
X156950000Y-104040000D02*
X150050000Y-104040000D01*
%TO.C,IC4*%
X148100000Y-106755000D02*
X149700000Y-106755000D01*
X150050000Y-106460000D02*
X156950000Y-106460000D01*
X150050000Y-111540000D02*
X150050000Y-106460000D01*
X156950000Y-106460000D02*
X156950000Y-111540000D01*
X156950000Y-111540000D02*
X150050000Y-111540000D01*
D14*
%TO.C,R10*%
X132367936Y-96765000D02*
X132822064Y-96765000D01*
X132367936Y-98235000D02*
X132822064Y-98235000D01*
D13*
%TO.C,D2*%
X128600000Y-104000000D02*
X128600000Y-103680000D01*
X128600000Y-106000000D02*
X128600000Y-106320000D01*
D15*
X125070000Y-104230000D02*
G75*
G02*
X128600001Y-103680000I1930711J-788561D01*
G01*
X128600001Y-106320000D02*
G75*
G02*
X125070000Y-105770000I-1599290J1338561D01*
G01*
D13*
%TO.C,IC5*%
X181600000Y-73750000D02*
X183700000Y-73750000D01*
X181600000Y-80250000D02*
X181600000Y-73750000D01*
X183700000Y-80250000D02*
X181600000Y-80250000D01*
D16*
X179525000Y-73700000D02*
G75*
G02*
X179275000Y-73700000I-125000J0D01*
G01*
X179275000Y-73700000D02*
G75*
G02*
X179525000Y-73700000I125000J0D01*
G01*
D14*
%TO.C,R11*%
X116227064Y-94765000D02*
X115772936Y-94765000D01*
X116227064Y-96235000D02*
X115772936Y-96235000D01*
D13*
%TO.C,C7*%
X149500000Y-116700000D02*
X153500000Y-116700000D01*
X149500000Y-119300000D02*
X153500000Y-119300000D01*
D14*
%TO.C,U4*%
X124255000Y-57025000D02*
X124255000Y-57295000D01*
X124255000Y-63925000D02*
X124255000Y-63655000D01*
X130675000Y-57025000D02*
X124255000Y-57025000D01*
X130675000Y-63925000D02*
X124255000Y-63925000D01*
X122835000Y-57335000D02*
X122595000Y-57005000D01*
X123075000Y-57005000D01*
X122835000Y-57335000D01*
G36*
X122835000Y-57335000D02*
G01*
X122595000Y-57005000D01*
X123075000Y-57005000D01*
X122835000Y-57335000D01*
G37*
%TO.C,R1*%
X147727064Y-72265000D02*
X147272936Y-72265000D01*
X147727064Y-73735000D02*
X147272936Y-73735000D01*
%TD*%
M02*
