%TF.GenerationSoftware,KiCad,Pcbnew,8.0.2-1*%
%TF.CreationDate,2024-11-25T18:38:24-05:00*%
%TF.ProjectId,EMS-Cast,454d532d-4361-4737-942e-6b696361645f,rev?*%
%TF.SameCoordinates,Original*%
%TF.FileFunction,Legend,Bot*%
%TF.FilePolarity,Positive*%
%FSLAX46Y46*%
G04 Gerber Fmt 4.6, Leading zero omitted, Abs format (unit mm)*
G04 Created by KiCad (PCBNEW 8.0.2-1) date 2024-11-25 18:38:24*
%MOMM*%
%LPD*%
G01*
G04 APERTURE LIST*
%ADD10C,0.150000*%
%ADD11C,0.254000*%
%ADD12C,0.127000*%
%ADD13C,0.200000*%
%ADD14C,0.100000*%
%ADD15C,0.120000*%
G04 APERTURE END LIST*
D10*
X155589819Y-90063095D02*
X156399342Y-90063095D01*
X156399342Y-90063095D02*
X156494580Y-90110714D01*
X156494580Y-90110714D02*
X156542200Y-90158333D01*
X156542200Y-90158333D02*
X156589819Y-90253571D01*
X156589819Y-90253571D02*
X156589819Y-90444047D01*
X156589819Y-90444047D02*
X156542200Y-90539285D01*
X156542200Y-90539285D02*
X156494580Y-90586904D01*
X156494580Y-90586904D02*
X156399342Y-90634523D01*
X156399342Y-90634523D02*
X155589819Y-90634523D01*
X156589819Y-91634523D02*
X156589819Y-91063095D01*
X156589819Y-91348809D02*
X155589819Y-91348809D01*
X155589819Y-91348809D02*
X155732676Y-91253571D01*
X155732676Y-91253571D02*
X155827914Y-91158333D01*
X155827914Y-91158333D02*
X155875533Y-91063095D01*
D11*
X146453365Y-100433571D02*
X146513842Y-100373095D01*
X146513842Y-100373095D02*
X146574318Y-100191666D01*
X146574318Y-100191666D02*
X146574318Y-100070714D01*
X146574318Y-100070714D02*
X146513842Y-99889285D01*
X146513842Y-99889285D02*
X146392889Y-99768333D01*
X146392889Y-99768333D02*
X146271937Y-99707856D01*
X146271937Y-99707856D02*
X146030032Y-99647380D01*
X146030032Y-99647380D02*
X145848603Y-99647380D01*
X145848603Y-99647380D02*
X145606699Y-99707856D01*
X145606699Y-99707856D02*
X145485746Y-99768333D01*
X145485746Y-99768333D02*
X145364794Y-99889285D01*
X145364794Y-99889285D02*
X145304318Y-100070714D01*
X145304318Y-100070714D02*
X145304318Y-100191666D01*
X145304318Y-100191666D02*
X145364794Y-100373095D01*
X145364794Y-100373095D02*
X145425270Y-100433571D01*
X146574318Y-101643095D02*
X146574318Y-100917380D01*
X146574318Y-101280237D02*
X145304318Y-101280237D01*
X145304318Y-101280237D02*
X145485746Y-101159285D01*
X145485746Y-101159285D02*
X145606699Y-101038333D01*
X145606699Y-101038333D02*
X145667175Y-100917380D01*
X145304318Y-102429285D02*
X145304318Y-102550238D01*
X145304318Y-102550238D02*
X145364794Y-102671190D01*
X145364794Y-102671190D02*
X145425270Y-102731666D01*
X145425270Y-102731666D02*
X145546222Y-102792142D01*
X145546222Y-102792142D02*
X145788127Y-102852619D01*
X145788127Y-102852619D02*
X146090508Y-102852619D01*
X146090508Y-102852619D02*
X146332413Y-102792142D01*
X146332413Y-102792142D02*
X146453365Y-102731666D01*
X146453365Y-102731666D02*
X146513842Y-102671190D01*
X146513842Y-102671190D02*
X146574318Y-102550238D01*
X146574318Y-102550238D02*
X146574318Y-102429285D01*
X146574318Y-102429285D02*
X146513842Y-102308333D01*
X146513842Y-102308333D02*
X146453365Y-102247857D01*
X146453365Y-102247857D02*
X146332413Y-102187380D01*
X146332413Y-102187380D02*
X146090508Y-102126904D01*
X146090508Y-102126904D02*
X145788127Y-102126904D01*
X145788127Y-102126904D02*
X145546222Y-102187380D01*
X145546222Y-102187380D02*
X145425270Y-102247857D01*
X145425270Y-102247857D02*
X145364794Y-102308333D01*
X145364794Y-102308333D02*
X145304318Y-102429285D01*
X176716666Y-112362365D02*
X176777142Y-112422842D01*
X176777142Y-112422842D02*
X176958571Y-112483318D01*
X176958571Y-112483318D02*
X177079523Y-112483318D01*
X177079523Y-112483318D02*
X177260952Y-112422842D01*
X177260952Y-112422842D02*
X177381904Y-112301889D01*
X177381904Y-112301889D02*
X177442381Y-112180937D01*
X177442381Y-112180937D02*
X177502857Y-111939032D01*
X177502857Y-111939032D02*
X177502857Y-111757603D01*
X177502857Y-111757603D02*
X177442381Y-111515699D01*
X177442381Y-111515699D02*
X177381904Y-111394746D01*
X177381904Y-111394746D02*
X177260952Y-111273794D01*
X177260952Y-111273794D02*
X177079523Y-111213318D01*
X177079523Y-111213318D02*
X176958571Y-111213318D01*
X176958571Y-111213318D02*
X176777142Y-111273794D01*
X176777142Y-111273794D02*
X176716666Y-111334270D01*
X175628095Y-111636651D02*
X175628095Y-112483318D01*
X175930476Y-111152842D02*
X176232857Y-112059984D01*
X176232857Y-112059984D02*
X175446666Y-112059984D01*
D10*
X153071666Y-94804819D02*
X153404999Y-94328628D01*
X153643094Y-94804819D02*
X153643094Y-93804819D01*
X153643094Y-93804819D02*
X153262142Y-93804819D01*
X153262142Y-93804819D02*
X153166904Y-93852438D01*
X153166904Y-93852438D02*
X153119285Y-93900057D01*
X153119285Y-93900057D02*
X153071666Y-93995295D01*
X153071666Y-93995295D02*
X153071666Y-94138152D01*
X153071666Y-94138152D02*
X153119285Y-94233390D01*
X153119285Y-94233390D02*
X153166904Y-94281009D01*
X153166904Y-94281009D02*
X153262142Y-94328628D01*
X153262142Y-94328628D02*
X153643094Y-94328628D01*
X152738332Y-93804819D02*
X152119285Y-93804819D01*
X152119285Y-93804819D02*
X152452618Y-94185771D01*
X152452618Y-94185771D02*
X152309761Y-94185771D01*
X152309761Y-94185771D02*
X152214523Y-94233390D01*
X152214523Y-94233390D02*
X152166904Y-94281009D01*
X152166904Y-94281009D02*
X152119285Y-94376247D01*
X152119285Y-94376247D02*
X152119285Y-94614342D01*
X152119285Y-94614342D02*
X152166904Y-94709580D01*
X152166904Y-94709580D02*
X152214523Y-94757200D01*
X152214523Y-94757200D02*
X152309761Y-94804819D01*
X152309761Y-94804819D02*
X152595475Y-94804819D01*
X152595475Y-94804819D02*
X152690713Y-94757200D01*
X152690713Y-94757200D02*
X152738332Y-94709580D01*
D11*
X167695270Y-103379047D02*
X167634794Y-103258095D01*
X167634794Y-103258095D02*
X167513842Y-103137142D01*
X167513842Y-103137142D02*
X167332413Y-102955714D01*
X167332413Y-102955714D02*
X167271937Y-102834761D01*
X167271937Y-102834761D02*
X167271937Y-102713809D01*
X167574318Y-102774285D02*
X167513842Y-102653333D01*
X167513842Y-102653333D02*
X167392889Y-102532380D01*
X167392889Y-102532380D02*
X167150984Y-102471904D01*
X167150984Y-102471904D02*
X166727651Y-102471904D01*
X166727651Y-102471904D02*
X166485746Y-102532380D01*
X166485746Y-102532380D02*
X166364794Y-102653333D01*
X166364794Y-102653333D02*
X166304318Y-102774285D01*
X166304318Y-102774285D02*
X166304318Y-103016190D01*
X166304318Y-103016190D02*
X166364794Y-103137142D01*
X166364794Y-103137142D02*
X166485746Y-103258095D01*
X166485746Y-103258095D02*
X166727651Y-103318571D01*
X166727651Y-103318571D02*
X167150984Y-103318571D01*
X167150984Y-103318571D02*
X167392889Y-103258095D01*
X167392889Y-103258095D02*
X167513842Y-103137142D01*
X167513842Y-103137142D02*
X167574318Y-103016190D01*
X167574318Y-103016190D02*
X167574318Y-102774285D01*
X166727651Y-104407142D02*
X167574318Y-104407142D01*
X166243842Y-104104761D02*
X167150984Y-103802380D01*
X167150984Y-103802380D02*
X167150984Y-104588571D01*
X170420270Y-67879047D02*
X170359794Y-67758095D01*
X170359794Y-67758095D02*
X170238842Y-67637142D01*
X170238842Y-67637142D02*
X170057413Y-67455714D01*
X170057413Y-67455714D02*
X169996937Y-67334761D01*
X169996937Y-67334761D02*
X169996937Y-67213809D01*
X170299318Y-67274285D02*
X170238842Y-67153333D01*
X170238842Y-67153333D02*
X170117889Y-67032380D01*
X170117889Y-67032380D02*
X169875984Y-66971904D01*
X169875984Y-66971904D02*
X169452651Y-66971904D01*
X169452651Y-66971904D02*
X169210746Y-67032380D01*
X169210746Y-67032380D02*
X169089794Y-67153333D01*
X169089794Y-67153333D02*
X169029318Y-67274285D01*
X169029318Y-67274285D02*
X169029318Y-67516190D01*
X169029318Y-67516190D02*
X169089794Y-67637142D01*
X169089794Y-67637142D02*
X169210746Y-67758095D01*
X169210746Y-67758095D02*
X169452651Y-67818571D01*
X169452651Y-67818571D02*
X169875984Y-67818571D01*
X169875984Y-67818571D02*
X170117889Y-67758095D01*
X170117889Y-67758095D02*
X170238842Y-67637142D01*
X170238842Y-67637142D02*
X170299318Y-67516190D01*
X170299318Y-67516190D02*
X170299318Y-67274285D01*
X170299318Y-69028095D02*
X170299318Y-68302380D01*
X170299318Y-68665237D02*
X169029318Y-68665237D01*
X169029318Y-68665237D02*
X169210746Y-68544285D01*
X169210746Y-68544285D02*
X169331699Y-68423333D01*
X169331699Y-68423333D02*
X169392175Y-68302380D01*
X167445270Y-92879047D02*
X167384794Y-92758095D01*
X167384794Y-92758095D02*
X167263842Y-92637142D01*
X167263842Y-92637142D02*
X167082413Y-92455714D01*
X167082413Y-92455714D02*
X167021937Y-92334761D01*
X167021937Y-92334761D02*
X167021937Y-92213809D01*
X167324318Y-92274285D02*
X167263842Y-92153333D01*
X167263842Y-92153333D02*
X167142889Y-92032380D01*
X167142889Y-92032380D02*
X166900984Y-91971904D01*
X166900984Y-91971904D02*
X166477651Y-91971904D01*
X166477651Y-91971904D02*
X166235746Y-92032380D01*
X166235746Y-92032380D02*
X166114794Y-92153333D01*
X166114794Y-92153333D02*
X166054318Y-92274285D01*
X166054318Y-92274285D02*
X166054318Y-92516190D01*
X166054318Y-92516190D02*
X166114794Y-92637142D01*
X166114794Y-92637142D02*
X166235746Y-92758095D01*
X166235746Y-92758095D02*
X166477651Y-92818571D01*
X166477651Y-92818571D02*
X166900984Y-92818571D01*
X166900984Y-92818571D02*
X167142889Y-92758095D01*
X167142889Y-92758095D02*
X167263842Y-92637142D01*
X167263842Y-92637142D02*
X167324318Y-92516190D01*
X167324318Y-92516190D02*
X167324318Y-92274285D01*
X166054318Y-93241904D02*
X166054318Y-94028095D01*
X166054318Y-94028095D02*
X166538127Y-93604761D01*
X166538127Y-93604761D02*
X166538127Y-93786190D01*
X166538127Y-93786190D02*
X166598603Y-93907142D01*
X166598603Y-93907142D02*
X166659080Y-93967618D01*
X166659080Y-93967618D02*
X166780032Y-94028095D01*
X166780032Y-94028095D02*
X167082413Y-94028095D01*
X167082413Y-94028095D02*
X167203365Y-93967618D01*
X167203365Y-93967618D02*
X167263842Y-93907142D01*
X167263842Y-93907142D02*
X167324318Y-93786190D01*
X167324318Y-93786190D02*
X167324318Y-93423333D01*
X167324318Y-93423333D02*
X167263842Y-93302380D01*
X167263842Y-93302380D02*
X167203365Y-93241904D01*
X169445270Y-77879047D02*
X169384794Y-77758095D01*
X169384794Y-77758095D02*
X169263842Y-77637142D01*
X169263842Y-77637142D02*
X169082413Y-77455714D01*
X169082413Y-77455714D02*
X169021937Y-77334761D01*
X169021937Y-77334761D02*
X169021937Y-77213809D01*
X169324318Y-77274285D02*
X169263842Y-77153333D01*
X169263842Y-77153333D02*
X169142889Y-77032380D01*
X169142889Y-77032380D02*
X168900984Y-76971904D01*
X168900984Y-76971904D02*
X168477651Y-76971904D01*
X168477651Y-76971904D02*
X168235746Y-77032380D01*
X168235746Y-77032380D02*
X168114794Y-77153333D01*
X168114794Y-77153333D02*
X168054318Y-77274285D01*
X168054318Y-77274285D02*
X168054318Y-77516190D01*
X168054318Y-77516190D02*
X168114794Y-77637142D01*
X168114794Y-77637142D02*
X168235746Y-77758095D01*
X168235746Y-77758095D02*
X168477651Y-77818571D01*
X168477651Y-77818571D02*
X168900984Y-77818571D01*
X168900984Y-77818571D02*
X169142889Y-77758095D01*
X169142889Y-77758095D02*
X169263842Y-77637142D01*
X169263842Y-77637142D02*
X169324318Y-77516190D01*
X169324318Y-77516190D02*
X169324318Y-77274285D01*
X168175270Y-78302380D02*
X168114794Y-78362856D01*
X168114794Y-78362856D02*
X168054318Y-78483809D01*
X168054318Y-78483809D02*
X168054318Y-78786190D01*
X168054318Y-78786190D02*
X168114794Y-78907142D01*
X168114794Y-78907142D02*
X168175270Y-78967618D01*
X168175270Y-78967618D02*
X168296222Y-79028095D01*
X168296222Y-79028095D02*
X168417175Y-79028095D01*
X168417175Y-79028095D02*
X168598603Y-78967618D01*
X168598603Y-78967618D02*
X169324318Y-78241904D01*
X169324318Y-78241904D02*
X169324318Y-79028095D01*
X102466666Y-83612365D02*
X102527142Y-83672842D01*
X102527142Y-83672842D02*
X102708571Y-83733318D01*
X102708571Y-83733318D02*
X102829523Y-83733318D01*
X102829523Y-83733318D02*
X103010952Y-83672842D01*
X103010952Y-83672842D02*
X103131904Y-83551889D01*
X103131904Y-83551889D02*
X103192381Y-83430937D01*
X103192381Y-83430937D02*
X103252857Y-83189032D01*
X103252857Y-83189032D02*
X103252857Y-83007603D01*
X103252857Y-83007603D02*
X103192381Y-82765699D01*
X103192381Y-82765699D02*
X103131904Y-82644746D01*
X103131904Y-82644746D02*
X103010952Y-82523794D01*
X103010952Y-82523794D02*
X102829523Y-82463318D01*
X102829523Y-82463318D02*
X102708571Y-82463318D01*
X102708571Y-82463318D02*
X102527142Y-82523794D01*
X102527142Y-82523794D02*
X102466666Y-82584270D01*
X101740952Y-83007603D02*
X101861904Y-82947127D01*
X101861904Y-82947127D02*
X101922381Y-82886651D01*
X101922381Y-82886651D02*
X101982857Y-82765699D01*
X101982857Y-82765699D02*
X101982857Y-82705222D01*
X101982857Y-82705222D02*
X101922381Y-82584270D01*
X101922381Y-82584270D02*
X101861904Y-82523794D01*
X101861904Y-82523794D02*
X101740952Y-82463318D01*
X101740952Y-82463318D02*
X101499047Y-82463318D01*
X101499047Y-82463318D02*
X101378095Y-82523794D01*
X101378095Y-82523794D02*
X101317619Y-82584270D01*
X101317619Y-82584270D02*
X101257142Y-82705222D01*
X101257142Y-82705222D02*
X101257142Y-82765699D01*
X101257142Y-82765699D02*
X101317619Y-82886651D01*
X101317619Y-82886651D02*
X101378095Y-82947127D01*
X101378095Y-82947127D02*
X101499047Y-83007603D01*
X101499047Y-83007603D02*
X101740952Y-83007603D01*
X101740952Y-83007603D02*
X101861904Y-83068080D01*
X101861904Y-83068080D02*
X101922381Y-83128556D01*
X101922381Y-83128556D02*
X101982857Y-83249508D01*
X101982857Y-83249508D02*
X101982857Y-83491413D01*
X101982857Y-83491413D02*
X101922381Y-83612365D01*
X101922381Y-83612365D02*
X101861904Y-83672842D01*
X101861904Y-83672842D02*
X101740952Y-83733318D01*
X101740952Y-83733318D02*
X101499047Y-83733318D01*
X101499047Y-83733318D02*
X101378095Y-83672842D01*
X101378095Y-83672842D02*
X101317619Y-83612365D01*
X101317619Y-83612365D02*
X101257142Y-83491413D01*
X101257142Y-83491413D02*
X101257142Y-83249508D01*
X101257142Y-83249508D02*
X101317619Y-83128556D01*
X101317619Y-83128556D02*
X101378095Y-83068080D01*
X101378095Y-83068080D02*
X101499047Y-83007603D01*
X95453365Y-84538333D02*
X95513842Y-84477857D01*
X95513842Y-84477857D02*
X95574318Y-84296428D01*
X95574318Y-84296428D02*
X95574318Y-84175476D01*
X95574318Y-84175476D02*
X95513842Y-83994047D01*
X95513842Y-83994047D02*
X95392889Y-83873095D01*
X95392889Y-83873095D02*
X95271937Y-83812618D01*
X95271937Y-83812618D02*
X95030032Y-83752142D01*
X95030032Y-83752142D02*
X94848603Y-83752142D01*
X94848603Y-83752142D02*
X94606699Y-83812618D01*
X94606699Y-83812618D02*
X94485746Y-83873095D01*
X94485746Y-83873095D02*
X94364794Y-83994047D01*
X94364794Y-83994047D02*
X94304318Y-84175476D01*
X94304318Y-84175476D02*
X94304318Y-84296428D01*
X94304318Y-84296428D02*
X94364794Y-84477857D01*
X94364794Y-84477857D02*
X94425270Y-84538333D01*
X95574318Y-85143095D02*
X95574318Y-85384999D01*
X95574318Y-85384999D02*
X95513842Y-85505952D01*
X95513842Y-85505952D02*
X95453365Y-85566428D01*
X95453365Y-85566428D02*
X95271937Y-85687380D01*
X95271937Y-85687380D02*
X95030032Y-85747857D01*
X95030032Y-85747857D02*
X94546222Y-85747857D01*
X94546222Y-85747857D02*
X94425270Y-85687380D01*
X94425270Y-85687380D02*
X94364794Y-85626904D01*
X94364794Y-85626904D02*
X94304318Y-85505952D01*
X94304318Y-85505952D02*
X94304318Y-85264047D01*
X94304318Y-85264047D02*
X94364794Y-85143095D01*
X94364794Y-85143095D02*
X94425270Y-85082618D01*
X94425270Y-85082618D02*
X94546222Y-85022142D01*
X94546222Y-85022142D02*
X94848603Y-85022142D01*
X94848603Y-85022142D02*
X94969556Y-85082618D01*
X94969556Y-85082618D02*
X95030032Y-85143095D01*
X95030032Y-85143095D02*
X95090508Y-85264047D01*
X95090508Y-85264047D02*
X95090508Y-85505952D01*
X95090508Y-85505952D02*
X95030032Y-85626904D01*
X95030032Y-85626904D02*
X94969556Y-85687380D01*
X94969556Y-85687380D02*
X94848603Y-85747857D01*
D12*
%TO.C,U1*%
X150000000Y-88300000D02*
X150000000Y-92700000D01*
X155000000Y-88300000D02*
X155000000Y-92700000D01*
D13*
X154960000Y-94840000D02*
G75*
G02*
X154760000Y-94840000I-100000J0D01*
G01*
X154760000Y-94840000D02*
G75*
G02*
X154960000Y-94840000I100000J0D01*
G01*
D14*
%TO.C,C10*%
X141750000Y-88250000D02*
X150250000Y-88250000D01*
X141750000Y-114250000D02*
X141750000Y-88250000D01*
X150250000Y-88250000D02*
X150250000Y-114250000D01*
X150250000Y-114250000D02*
X141750000Y-114250000D01*
D13*
%TO.C,C4*%
X178750000Y-113050000D02*
X174750000Y-113050000D01*
X178750000Y-110450000D02*
X174750000Y-110450000D01*
D15*
%TO.C,R3*%
X152677936Y-95265000D02*
X153132064Y-95265000D01*
X152677936Y-96735000D02*
X153132064Y-96735000D01*
D13*
%TO.C,Q4*%
X167000000Y-106900000D02*
X167000000Y-106900000D01*
X167000000Y-107000000D02*
X167000000Y-107000000D01*
X167000000Y-106900000D02*
G75*
G02*
X167000000Y-107000000I0J-50000D01*
G01*
X167000000Y-107000000D02*
G75*
G02*
X167000000Y-106900000I0J50000D01*
G01*
%TO.C,Q1*%
X169725000Y-71400000D02*
X169725000Y-71400000D01*
X169725000Y-71500000D02*
X169725000Y-71500000D01*
X169725000Y-71400000D02*
G75*
G02*
X169725000Y-71500000I0J-50000D01*
G01*
X169725000Y-71500000D02*
G75*
G02*
X169725000Y-71400000I0J50000D01*
G01*
%TO.C,Q3*%
X166750000Y-96400000D02*
X166750000Y-96400000D01*
X166750000Y-96500000D02*
X166750000Y-96500000D01*
X166750000Y-96400000D02*
G75*
G02*
X166750000Y-96500000I0J-50000D01*
G01*
X166750000Y-96500000D02*
G75*
G02*
X166750000Y-96400000I0J50000D01*
G01*
%TO.C,Q2*%
X168750000Y-81400000D02*
X168750000Y-81400000D01*
X168750000Y-81500000D02*
X168750000Y-81500000D01*
X168750000Y-81400000D02*
G75*
G02*
X168750000Y-81500000I0J-50000D01*
G01*
X168750000Y-81500000D02*
G75*
G02*
X168750000Y-81400000I0J50000D01*
G01*
%TO.C,C8*%
X104500000Y-81700000D02*
X100500000Y-81700000D01*
X104500000Y-84300000D02*
X100500000Y-84300000D01*
D14*
%TO.C,C9*%
X90750000Y-71750000D02*
X99250000Y-71750000D01*
X90750000Y-97750000D02*
X90750000Y-71750000D01*
X99250000Y-71750000D02*
X99250000Y-97750000D01*
X99250000Y-97750000D02*
X90750000Y-97750000D01*
%TD*%
M02*
