%TF.GenerationSoftware,KiCad,Pcbnew,8.0.2-1*%
%TF.CreationDate,2024-11-25T18:38:24-05:00*%
%TF.ProjectId,EMS-Cast,454d532d-4361-4737-942e-6b696361645f,rev?*%
%TF.SameCoordinates,Original*%
%TF.FileFunction,Copper,L2,Bot*%
%TF.FilePolarity,Positive*%
%FSLAX46Y46*%
G04 Gerber Fmt 4.6, Leading zero omitted, Abs format (unit mm)*
G04 Created by KiCad (PCBNEW 8.0.2-1) date 2024-11-25 18:38:24*
%MOMM*%
%LPD*%
G01*
G04 APERTURE LIST*
G04 Aperture macros list*
%AMRoundRect*
0 Rectangle with rounded corners*
0 $1 Rounding radius*
0 $2 $3 $4 $5 $6 $7 $8 $9 X,Y pos of 4 corners*
0 Add a 4 corners polygon primitive as box body*
4,1,4,$2,$3,$4,$5,$6,$7,$8,$9,$2,$3,0*
0 Add four circle primitives for the rounded corners*
1,1,$1+$1,$2,$3*
1,1,$1+$1,$4,$5*
1,1,$1+$1,$6,$7*
1,1,$1+$1,$8,$9*
0 Add four rect primitives between the rounded corners*
20,1,$1+$1,$2,$3,$4,$5,0*
20,1,$1+$1,$4,$5,$6,$7,0*
20,1,$1+$1,$6,$7,$8,$9,0*
20,1,$1+$1,$8,$9,$2,$3,0*%
G04 Aperture macros list end*
%TA.AperFunction,ComponentPad*%
%ADD10R,1.350000X1.350000*%
%TD*%
%TA.AperFunction,ComponentPad*%
%ADD11C,1.350000*%
%TD*%
%TA.AperFunction,ComponentPad*%
%ADD12C,1.250000*%
%TD*%
%TA.AperFunction,ComponentPad*%
%ADD13R,5.650000X1.500000*%
%TD*%
%TA.AperFunction,ComponentPad*%
%ADD14O,5.650000X1.500000*%
%TD*%
%TA.AperFunction,ComponentPad*%
%ADD15C,1.508000*%
%TD*%
%TA.AperFunction,ComponentPad*%
%ADD16R,1.600000X1.600000*%
%TD*%
%TA.AperFunction,ComponentPad*%
%ADD17O,1.600000X1.600000*%
%TD*%
%TA.AperFunction,SMDPad,CuDef*%
%ADD18RoundRect,0.051250X0.153750X-0.683750X0.153750X0.683750X-0.153750X0.683750X-0.153750X-0.683750X0*%
%TD*%
%TA.AperFunction,ComponentPad*%
%ADD19C,1.500000*%
%TD*%
%TA.AperFunction,SMDPad,CuDef*%
%ADD20RoundRect,0.250000X0.262500X0.450000X-0.262500X0.450000X-0.262500X-0.450000X0.262500X-0.450000X0*%
%TD*%
%TA.AperFunction,SMDPad,CuDef*%
%ADD21R,2.900000X1.500000*%
%TD*%
%TA.AperFunction,SMDPad,CuDef*%
%ADD22R,6.500000X6.300000*%
%TD*%
%TA.AperFunction,ViaPad*%
%ADD23C,0.600000*%
%TD*%
%TA.AperFunction,Conductor*%
%ADD24C,0.250000*%
%TD*%
G04 APERTURE END LIST*
D10*
%TO.P,J2,1,1*%
%TO.N,/CH1P_IN*%
X160604000Y-62972500D03*
D11*
%TO.P,J2,2,2*%
%TO.N,/CH1N_IN*%
X160604000Y-60432500D03*
%TO.P,J2,3,3*%
%TO.N,unconnected-(J2-Pad3)*%
X158064000Y-62972500D03*
%TO.P,J2,4,4*%
%TO.N,unconnected-(J2-Pad4)*%
X158064000Y-60432500D03*
%TO.P,J2,5,5*%
%TO.N,/CH2P_IN*%
X155524000Y-62972500D03*
%TO.P,J2,6,6*%
%TO.N,/CH2N_IN*%
X155524000Y-60432500D03*
%TD*%
D12*
%TO.P,C3,1*%
%TO.N,Net-(Q1-G)*%
X163000000Y-60500000D03*
%TO.P,C3,2*%
%TO.N,Net-(Q1-D)*%
X168000000Y-60500000D03*
%TD*%
D13*
%TO.P,J1,1,1*%
%TO.N,Net-(IC5-INPUT)*%
X115000000Y-56510000D03*
D14*
%TO.P,J1,2,2*%
%TO.N,GND*%
X115000000Y-64000000D03*
%TD*%
D12*
%TO.P,C5,1*%
%TO.N,GND*%
X91500000Y-119000000D03*
%TO.P,C5,2*%
%TO.N,/SW_CH2*%
X96500000Y-119000000D03*
%TD*%
D15*
%TO.P,D3,1,K*%
%TO.N,GND*%
X136730000Y-105000000D03*
%TO.P,D3,2,A*%
%TO.N,Net-(D3-A)*%
X139270000Y-105000000D03*
%TD*%
D16*
%TO.P,A1,1,D1/TX*%
%TO.N,unconnected-(A1-D1{slash}TX-Pad1)*%
X101780000Y-92755000D03*
D17*
%TO.P,A1,2,D0/RX*%
%TO.N,unconnected-(A1-D0{slash}RX-Pad2)*%
X104320000Y-92755000D03*
%TO.P,A1,3,~{RESET}*%
%TO.N,unconnected-(A1-~{RESET}-Pad3)*%
X106860000Y-92755000D03*
%TO.P,A1,4,GND*%
%TO.N,GND*%
X109400000Y-92755000D03*
%TO.P,A1,5,D2*%
%TO.N,unconnected-(A1-D2-Pad5)*%
X111940000Y-92755000D03*
%TO.P,A1,6,D3*%
%TO.N,unconnected-(A1-D3-Pad6)*%
X114480000Y-92755000D03*
%TO.P,A1,7,D4*%
%TO.N,/CH1_EN_1*%
X117020000Y-92755000D03*
%TO.P,A1,8,D5*%
%TO.N,/CH1_EN_2*%
X119560000Y-92755000D03*
%TO.P,A1,9,D6*%
%TO.N,/CH2_EN_1*%
X122100000Y-92755000D03*
%TO.P,A1,10,D7*%
%TO.N,/CH2_EN_2*%
X124640000Y-92755000D03*
%TO.P,A1,11,D8*%
%TO.N,/SW_CH1*%
X127180000Y-92755000D03*
%TO.P,A1,12,D9*%
%TO.N,/SW_CH2*%
X129720000Y-92755000D03*
%TO.P,A1,13,D10*%
%TO.N,unconnected-(A1-D10-Pad13)*%
X132260000Y-92755000D03*
%TO.P,A1,14,D11*%
%TO.N,unconnected-(A1-D11-Pad14)*%
X134800000Y-92755000D03*
%TO.P,A1,15,D12*%
%TO.N,unconnected-(A1-D12-Pad15)*%
X137340000Y-92755000D03*
%TO.P,A1,16,D13*%
%TO.N,unconnected-(A1-D13-Pad16)*%
X137340000Y-77515000D03*
%TO.P,A1,17,3V3*%
%TO.N,+3.3V*%
X134800000Y-77515000D03*
%TO.P,A1,18,AREF*%
%TO.N,unconnected-(A1-AREF-Pad18)*%
X132260000Y-77515000D03*
%TO.P,A1,19,A0*%
%TO.N,unconnected-(A1-A0-Pad19)*%
X129720000Y-77515000D03*
%TO.P,A1,20,A1*%
%TO.N,unconnected-(A1-A1-Pad20)*%
X127180000Y-77515000D03*
%TO.P,A1,21,A2*%
%TO.N,Net-(A1-A2)*%
X124640000Y-77515000D03*
%TO.P,A1,22,A3*%
%TO.N,Net-(A1-A3)*%
X122100000Y-77515000D03*
%TO.P,A1,23,A4*%
%TO.N,/SDA*%
X119560000Y-77515000D03*
%TO.P,A1,24,A5*%
%TO.N,/SCLK*%
X117020000Y-77515000D03*
%TO.P,A1,25,A6*%
%TO.N,unconnected-(A1-A6-Pad25)*%
X114480000Y-77515000D03*
%TO.P,A1,26,A7*%
%TO.N,unconnected-(A1-A7-Pad26)*%
X111940000Y-77515000D03*
%TO.P,A1,27,+5V*%
%TO.N,+5V*%
X109400000Y-77515000D03*
%TO.P,A1,28,~{RESET}*%
%TO.N,unconnected-(A1-~{RESET}-Pad28)*%
X106860000Y-77515000D03*
%TO.P,A1,29,GND*%
%TO.N,GND*%
X104320000Y-77515000D03*
%TO.P,A1,30,VIN*%
%TO.N,Net-(A1-VIN)*%
X101780000Y-77515000D03*
%TD*%
D10*
%TO.P,J3,1,1*%
%TO.N,/CH1P_OUT*%
X174527500Y-94604000D03*
D11*
%TO.P,J3,2,2*%
%TO.N,/CH1N_OUT*%
X177067500Y-94604000D03*
%TO.P,J3,3,3*%
%TO.N,unconnected-(J3-Pad3)*%
X174527500Y-92064000D03*
%TO.P,J3,4,4*%
%TO.N,unconnected-(J3-Pad4)*%
X177067500Y-92064000D03*
%TO.P,J3,5,5*%
%TO.N,/CH2P_OUT*%
X174527500Y-89524000D03*
%TO.P,J3,6,6*%
%TO.N,/CH2N_OUT*%
X177067500Y-89524000D03*
%TD*%
D12*
%TO.P,C6,1*%
%TO.N,GND*%
X149000000Y-119000000D03*
%TO.P,C6,2*%
%TO.N,/SW_CH1*%
X144000000Y-119000000D03*
%TD*%
D15*
%TO.P,D2,1,K*%
%TO.N,GND*%
X125730000Y-105000000D03*
%TO.P,D2,2,A*%
%TO.N,Net-(D2-A)*%
X128270000Y-105000000D03*
%TD*%
D12*
%TO.P,C7,1*%
%TO.N,GND*%
X149000000Y-118000000D03*
%TO.P,C7,2*%
%TO.N,+5V*%
X154000000Y-118000000D03*
%TD*%
D18*
%TO.P,U1,1,VDD*%
%TO.N,+5V*%
X154450000Y-93370000D03*
%TO.P,U1,2,AD0*%
%TO.N,GND*%
X153800000Y-93370000D03*
%TO.P,U1,3,WP\u002A*%
%TO.N,+5V*%
X153150000Y-93370000D03*
%TO.P,U1,4,W1*%
%TO.N,/V_REF1*%
X152500000Y-93370000D03*
%TO.P,U1,5,B1*%
%TO.N,unconnected-(U1-B1-Pad5)*%
X151850000Y-93370000D03*
%TO.P,U1,6,A1*%
%TO.N,Net-(U1-A1)*%
X151200000Y-93370000D03*
%TO.P,U1,7,SDA*%
%TO.N,/SDA*%
X150550000Y-93370000D03*
%TO.P,U1,8,VSS*%
%TO.N,GND*%
X150550000Y-87630000D03*
%TO.P,U1,9,SCL*%
%TO.N,/SCLK*%
X151200000Y-87630000D03*
%TO.P,U1,10,DGND*%
%TO.N,GND*%
X151850000Y-87630000D03*
%TO.P,U1,11,AD1*%
X152500000Y-87630000D03*
%TO.P,U1,12,A3*%
%TO.N,Net-(U1-A3)*%
X153150000Y-87630000D03*
%TO.P,U1,13,B3*%
%TO.N,unconnected-(U1-B3-Pad13)*%
X153800000Y-87630000D03*
%TO.P,U1,14,W3*%
%TO.N,/V_REF2*%
X154450000Y-87630000D03*
%TD*%
D19*
%TO.P,C10,1*%
%TO.N,+5V*%
X146000000Y-90000000D03*
%TO.P,C10,2*%
%TO.N,GND*%
X146000000Y-112500000D03*
%TD*%
D12*
%TO.P,C4,1*%
%TO.N,Net-(Q3-G)*%
X174250000Y-111750000D03*
%TO.P,C4,2*%
%TO.N,Net-(Q3-D)*%
X179250000Y-111750000D03*
%TD*%
D20*
%TO.P,R3,1*%
%TO.N,+5V*%
X153817500Y-96000000D03*
%TO.P,R3,2*%
%TO.N,Net-(U1-A1)*%
X151992500Y-96000000D03*
%TD*%
D21*
%TO.P,Q4,1,G*%
%TO.N,Net-(Q3-G)*%
X165250000Y-107214000D03*
D22*
%TO.P,Q4,2,D*%
%TO.N,Net-(Q3-D)*%
X158750000Y-109500000D03*
D21*
%TO.P,Q4,3,S*%
%TO.N,/CH2N_IN*%
X165250000Y-111786000D03*
%TD*%
%TO.P,Q1,1,G*%
%TO.N,Net-(Q1-G)*%
X167975000Y-71714000D03*
D22*
%TO.P,Q1,2,D*%
%TO.N,Net-(Q1-D)*%
X161475000Y-74000000D03*
D21*
%TO.P,Q1,3,S*%
%TO.N,/CH1P_IN*%
X167975000Y-76286000D03*
%TD*%
%TO.P,Q3,1,G*%
%TO.N,Net-(Q3-G)*%
X165000000Y-96714000D03*
D22*
%TO.P,Q3,2,D*%
%TO.N,Net-(Q3-D)*%
X158500000Y-99000000D03*
D21*
%TO.P,Q3,3,S*%
%TO.N,/CH2P_IN*%
X165000000Y-101286000D03*
%TD*%
%TO.P,Q2,1,G*%
%TO.N,Net-(Q1-G)*%
X167000000Y-81714000D03*
D22*
%TO.P,Q2,2,D*%
%TO.N,Net-(Q1-D)*%
X160500000Y-84000000D03*
D21*
%TO.P,Q2,3,S*%
%TO.N,/CH1N_IN*%
X167000000Y-86286000D03*
%TD*%
D12*
%TO.P,C8,1*%
%TO.N,GND*%
X100000000Y-83000000D03*
%TO.P,C8,2*%
%TO.N,+3.3V*%
X105000000Y-83000000D03*
%TD*%
D19*
%TO.P,C9,1*%
%TO.N,+3.3V*%
X95000000Y-96000000D03*
%TO.P,C9,2*%
%TO.N,GND*%
X95000000Y-73500000D03*
%TD*%
D23*
%TO.N,GND*%
X210000000Y-69000000D03*
X163500000Y-113500000D03*
X117000000Y-115500000D03*
X123500000Y-116000000D03*
X108000000Y-99500000D03*
X164000000Y-77500000D03*
%TO.N,/SW_CH1*%
X118000000Y-116500000D03*
X121000000Y-117000000D03*
%TO.N,+3.3V*%
X129000000Y-83000000D03*
%TO.N,Net-(Q1-D)*%
X164000000Y-87000000D03*
%TO.N,/CH1P_OUT*%
X175500000Y-71500000D03*
%TO.N,/CH2P_IN*%
X163500000Y-102000000D03*
%TO.N,/V_REF1*%
X162500000Y-89500000D03*
X153500000Y-91000000D03*
%TD*%
D24*
%TO.N,GND*%
X117000000Y-115500000D02*
X121000000Y-115500000D01*
X121000000Y-115500000D02*
X123000000Y-115500000D01*
X123000000Y-115500000D02*
X123500000Y-116000000D01*
%TO.N,/SW_CH1*%
X121000000Y-117000000D02*
X118500000Y-117000000D01*
X118500000Y-117000000D02*
X118000000Y-116500000D01*
%TO.N,+3.3V*%
X129000000Y-83000000D02*
X130000000Y-82000000D01*
X130000000Y-82000000D02*
X130315000Y-82000000D01*
X130315000Y-82000000D02*
X134800000Y-77515000D01*
%TD*%
%TA.AperFunction,Conductor*%
%TO.N,GND*%
G36*
X152379539Y-87444685D02*
G01*
X152425294Y-87497489D01*
X152436500Y-87549000D01*
X152436500Y-87711000D01*
X152416815Y-87778039D01*
X152364011Y-87823794D01*
X152312500Y-87835000D01*
X152037500Y-87835000D01*
X151970461Y-87815315D01*
X151924706Y-87762511D01*
X151913500Y-87711000D01*
X151913500Y-87549000D01*
X151933185Y-87481961D01*
X151985989Y-87436206D01*
X152037500Y-87425000D01*
X152312500Y-87425000D01*
X152379539Y-87444685D01*
G37*
%TD.AperFunction*%
%TA.AperFunction,Conductor*%
G36*
X166399111Y-46545248D02*
G01*
X166419753Y-46561882D01*
X166443071Y-46585200D01*
X166480009Y-46600500D01*
X194340976Y-46600500D01*
X194366680Y-46603193D01*
X194728382Y-46679836D01*
X194738406Y-46682402D01*
X195126217Y-46799115D01*
X195135994Y-46802508D01*
X195512733Y-46951176D01*
X195522184Y-46955369D01*
X195885201Y-47134944D01*
X195894274Y-47139914D01*
X196241065Y-47349160D01*
X196249661Y-47354849D01*
X196577783Y-47592296D01*
X196585909Y-47598711D01*
X196893057Y-47862684D01*
X196900618Y-47869752D01*
X196988951Y-47959523D01*
X197184666Y-48158425D01*
X197191614Y-48166101D01*
X197450604Y-48477480D01*
X197456887Y-48485710D01*
X197688990Y-48817602D01*
X197694564Y-48826327D01*
X197898169Y-49176423D01*
X197902996Y-49185583D01*
X198076684Y-49551446D01*
X198080730Y-49560977D01*
X198223289Y-49940051D01*
X198226526Y-49949886D01*
X198336963Y-50339535D01*
X198339368Y-50349605D01*
X198416917Y-50747119D01*
X198418473Y-50757356D01*
X198462585Y-51159937D01*
X198463282Y-51170267D01*
X198473656Y-51575128D01*
X198473489Y-51585481D01*
X198452075Y-51954862D01*
X198449517Y-51966013D01*
X198449504Y-51991318D01*
X198448889Y-52003584D01*
X198447757Y-52014907D01*
X198449482Y-52030979D01*
X198413983Y-119929703D01*
X198413966Y-119929823D01*
X198413966Y-119961760D01*
X198413848Y-119967168D01*
X198399017Y-120306891D01*
X198376427Y-120373008D01*
X198321678Y-120416417D01*
X198252152Y-120423334D01*
X198189922Y-120391565D01*
X198154747Y-120331195D01*
X198151135Y-120301830D01*
X198150708Y-120149111D01*
X198101843Y-102679726D01*
X198086439Y-102642831D01*
X198086437Y-102642828D01*
X198058092Y-102614641D01*
X198058086Y-102614637D01*
X198021109Y-102599442D01*
X197981124Y-102599554D01*
X197944232Y-102614957D01*
X197944229Y-102614959D01*
X197916042Y-102643304D01*
X197916038Y-102643310D01*
X197900843Y-102680287D01*
X197954930Y-122016533D01*
X197940919Y-122074137D01*
X197753371Y-122434415D01*
X197747963Y-122443783D01*
X197521775Y-122798828D01*
X197515570Y-122807689D01*
X197259306Y-123141660D01*
X197252352Y-123149947D01*
X196967958Y-123460309D01*
X196960309Y-123467958D01*
X196649947Y-123752352D01*
X196641660Y-123759306D01*
X196307689Y-124015570D01*
X196298828Y-124021775D01*
X195943783Y-124247963D01*
X195934415Y-124253371D01*
X195561022Y-124447746D01*
X195551217Y-124452318D01*
X195162304Y-124613410D01*
X195152139Y-124617110D01*
X195067612Y-124643761D01*
X195030325Y-124649500D01*
X166480007Y-124649500D01*
X166443071Y-124664799D01*
X166414799Y-124693071D01*
X166399500Y-124730007D01*
X166399500Y-124769989D01*
X166400633Y-124775686D01*
X166394404Y-124845278D01*
X166351541Y-124900454D01*
X166285651Y-124923698D01*
X166279060Y-124923876D01*
X96002736Y-124949499D01*
X95997282Y-124949381D01*
X95574029Y-124930902D01*
X95563253Y-124929959D01*
X95145900Y-124875013D01*
X95135247Y-124873135D01*
X94724258Y-124782021D01*
X94713808Y-124779221D01*
X94702596Y-124775686D01*
X94350911Y-124664800D01*
X94312335Y-124652637D01*
X94302170Y-124648937D01*
X93913249Y-124487840D01*
X93903445Y-124483268D01*
X93530057Y-124288895D01*
X93520689Y-124283487D01*
X93165651Y-124057303D01*
X93156790Y-124051098D01*
X92822810Y-123794826D01*
X92814523Y-123787872D01*
X92666430Y-123652170D01*
X92504166Y-123503482D01*
X92496517Y-123495833D01*
X92463965Y-123460309D01*
X92212122Y-123185470D01*
X92205173Y-123177189D01*
X91948901Y-122843209D01*
X91942696Y-122834348D01*
X91925712Y-122807689D01*
X91716511Y-122479309D01*
X91711104Y-122469942D01*
X91610644Y-122276960D01*
X91516728Y-122096548D01*
X91512159Y-122086750D01*
X91499513Y-122056221D01*
X91351061Y-121697827D01*
X91347362Y-121687664D01*
X91220773Y-121286173D01*
X91217981Y-121275753D01*
X91126861Y-120864739D01*
X91124988Y-120854113D01*
X91070038Y-120436726D01*
X91069098Y-120425991D01*
X91059971Y-120216942D01*
X91076713Y-120149111D01*
X91127471Y-120101097D01*
X91196130Y-120088146D01*
X91206638Y-120089648D01*
X91395756Y-120125000D01*
X91604244Y-120125000D01*
X91809187Y-120086689D01*
X91809197Y-120086686D01*
X92003603Y-120011373D01*
X92003607Y-120011371D01*
X92098846Y-119952400D01*
X92098846Y-119952399D01*
X91521447Y-119375000D01*
X91549370Y-119375000D01*
X91644745Y-119349444D01*
X91730255Y-119300075D01*
X91800075Y-119230255D01*
X91849444Y-119144745D01*
X91875000Y-119049370D01*
X91875000Y-119021448D01*
X92455313Y-119601761D01*
X92455313Y-119601760D01*
X92460593Y-119594771D01*
X92553521Y-119408148D01*
X92553527Y-119408133D01*
X92610582Y-119207605D01*
X92610583Y-119207603D01*
X92629820Y-119000000D01*
X95361644Y-119000000D01*
X95381026Y-119209167D01*
X95381026Y-119209169D01*
X95381027Y-119209172D01*
X95438515Y-119411222D01*
X95532150Y-119599267D01*
X95658745Y-119766905D01*
X95813987Y-119908428D01*
X95813989Y-119908429D01*
X95813990Y-119908430D01*
X95992587Y-120019013D01*
X95992593Y-120019016D01*
X96034090Y-120035091D01*
X96188474Y-120094900D01*
X96394966Y-120133500D01*
X96394968Y-120133500D01*
X96605032Y-120133500D01*
X96605034Y-120133500D01*
X96811526Y-120094900D01*
X97007409Y-120019015D01*
X97186013Y-119908428D01*
X97341255Y-119766905D01*
X97467850Y-119599267D01*
X97561485Y-119411222D01*
X97618973Y-119209172D01*
X97638356Y-119000000D01*
X142861644Y-119000000D01*
X142881026Y-119209167D01*
X142881026Y-119209169D01*
X142881027Y-119209172D01*
X142938515Y-119411222D01*
X143032150Y-119599267D01*
X143158745Y-119766905D01*
X143313987Y-119908428D01*
X143313989Y-119908429D01*
X143313990Y-119908430D01*
X143492587Y-120019013D01*
X143492593Y-120019016D01*
X143534090Y-120035091D01*
X143688474Y-120094900D01*
X143894966Y-120133500D01*
X143894968Y-120133500D01*
X144105032Y-120133500D01*
X144105034Y-120133500D01*
X144311526Y-120094900D01*
X144507409Y-120019015D01*
X144686013Y-119908428D01*
X144841255Y-119766905D01*
X144967850Y-119599267D01*
X145061485Y-119411222D01*
X145118973Y-119209172D01*
X145138356Y-119000000D01*
X145118973Y-118790828D01*
X145061485Y-118588778D01*
X144967850Y-118400733D01*
X144841255Y-118233095D01*
X144686013Y-118091572D01*
X144686010Y-118091570D01*
X144686009Y-118091569D01*
X144538119Y-117999999D01*
X147870180Y-117999999D01*
X147870180Y-118000000D01*
X147889416Y-118207603D01*
X147889417Y-118207606D01*
X147946469Y-118408126D01*
X147946476Y-118408142D01*
X147964694Y-118444730D01*
X147976954Y-118513515D01*
X147964694Y-118555270D01*
X147946476Y-118591857D01*
X147946469Y-118591873D01*
X147889417Y-118792393D01*
X147889416Y-118792396D01*
X147870180Y-118999999D01*
X147870180Y-119000000D01*
X147889416Y-119207603D01*
X147889417Y-119207605D01*
X147946472Y-119408133D01*
X147946478Y-119408148D01*
X148039406Y-119594771D01*
X148039409Y-119594776D01*
X148044684Y-119601760D01*
X148044685Y-119601760D01*
X148625000Y-119021445D01*
X148625000Y-119049370D01*
X148650556Y-119144745D01*
X148699925Y-119230255D01*
X148769745Y-119300075D01*
X148855255Y-119349444D01*
X148950630Y-119375000D01*
X148978553Y-119375000D01*
X148401151Y-119952399D01*
X148496394Y-120011372D01*
X148496396Y-120011373D01*
X148690802Y-120086686D01*
X148690812Y-120086689D01*
X148895756Y-120125000D01*
X149104244Y-120125000D01*
X149309187Y-120086689D01*
X149309197Y-120086686D01*
X149503603Y-120011373D01*
X149503607Y-120011371D01*
X149598846Y-119952400D01*
X149598846Y-119952399D01*
X149021448Y-119375000D01*
X149049370Y-119375000D01*
X149144745Y-119349444D01*
X149230255Y-119300075D01*
X149300075Y-119230255D01*
X149349444Y-119144745D01*
X149375000Y-119049370D01*
X149375000Y-119021448D01*
X149955313Y-119601761D01*
X149955313Y-119601760D01*
X149960593Y-119594771D01*
X150053521Y-119408148D01*
X150053527Y-119408133D01*
X150110582Y-119207605D01*
X150110583Y-119207603D01*
X150129820Y-119000000D01*
X150129820Y-118999999D01*
X150110583Y-118792396D01*
X150110582Y-118792394D01*
X150053527Y-118591866D01*
X150053521Y-118591852D01*
X150035307Y-118555274D01*
X150023044Y-118486488D01*
X150035307Y-118444726D01*
X150053521Y-118408147D01*
X150053527Y-118408133D01*
X150110582Y-118207605D01*
X150110583Y-118207603D01*
X150129820Y-118000000D01*
X152861644Y-118000000D01*
X152881026Y-118209167D01*
X152881026Y-118209169D01*
X152881027Y-118209172D01*
X152935531Y-118400733D01*
X152938516Y-118411225D01*
X153010242Y-118555270D01*
X153032150Y-118599267D01*
X153158745Y-118766905D01*
X153313987Y-118908428D01*
X153313989Y-118908429D01*
X153313990Y-118908430D01*
X153492587Y-119019013D01*
X153492593Y-119019016D01*
X153534090Y-119035091D01*
X153688474Y-119094900D01*
X153894966Y-119133500D01*
X153894968Y-119133500D01*
X154105032Y-119133500D01*
X154105034Y-119133500D01*
X154311526Y-119094900D01*
X154507409Y-119019015D01*
X154686013Y-118908428D01*
X154841255Y-118766905D01*
X154967850Y-118599267D01*
X155061485Y-118411222D01*
X155118973Y-118209172D01*
X155138356Y-118000000D01*
X155118973Y-117790828D01*
X155061485Y-117588778D01*
X154967850Y-117400733D01*
X154841255Y-117233095D01*
X154686013Y-117091572D01*
X154686010Y-117091570D01*
X154686009Y-117091569D01*
X154507412Y-116980986D01*
X154507406Y-116980983D01*
X154332726Y-116913313D01*
X154311526Y-116905100D01*
X154105034Y-116866500D01*
X153894966Y-116866500D01*
X153688474Y-116905100D01*
X153688471Y-116905100D01*
X153688471Y-116905101D01*
X153492593Y-116980983D01*
X153492587Y-116980986D01*
X153313990Y-117091569D01*
X153158744Y-117233095D01*
X153032150Y-117400732D01*
X152938516Y-117588774D01*
X152881026Y-117790832D01*
X152861644Y-118000000D01*
X150129820Y-118000000D01*
X150129820Y-117999999D01*
X150110583Y-117792396D01*
X150110582Y-117792394D01*
X150053527Y-117591866D01*
X150053521Y-117591851D01*
X149960593Y-117405227D01*
X149955313Y-117398238D01*
X149375000Y-117978551D01*
X149375000Y-117950630D01*
X149349444Y-117855255D01*
X149300075Y-117769745D01*
X149230255Y-117699925D01*
X149144745Y-117650556D01*
X149049370Y-117625000D01*
X149021448Y-117625000D01*
X149598847Y-117047599D01*
X149503602Y-116988626D01*
X149503601Y-116988625D01*
X149309197Y-116913313D01*
X149309187Y-116913310D01*
X149104244Y-116875000D01*
X148895756Y-116875000D01*
X148690812Y-116913310D01*
X148690811Y-116913310D01*
X148496398Y-116988625D01*
X148496392Y-116988629D01*
X148401152Y-117047598D01*
X148401151Y-117047599D01*
X148978553Y-117625000D01*
X148950630Y-117625000D01*
X148855255Y-117650556D01*
X148769745Y-117699925D01*
X148699925Y-117769745D01*
X148650556Y-117855255D01*
X148625000Y-117950630D01*
X148625000Y-117978552D01*
X148044685Y-117398237D01*
X148039412Y-117405219D01*
X148039404Y-117405232D01*
X147946478Y-117591851D01*
X147946472Y-117591866D01*
X147889417Y-117792394D01*
X147889416Y-117792396D01*
X147870180Y-117999999D01*
X144538119Y-117999999D01*
X144507412Y-117980986D01*
X144507406Y-117980983D01*
X144332726Y-117913313D01*
X144311526Y-117905100D01*
X144105034Y-117866500D01*
X143894966Y-117866500D01*
X143688474Y-117905100D01*
X143688471Y-117905100D01*
X143688471Y-117905101D01*
X143492593Y-117980983D01*
X143492587Y-117980986D01*
X143313990Y-118091569D01*
X143158744Y-118233095D01*
X143032150Y-118400732D01*
X142938516Y-118588774D01*
X142938515Y-118588778D01*
X142897160Y-118734128D01*
X142881026Y-118790832D01*
X142861644Y-119000000D01*
X97638356Y-119000000D01*
X97618973Y-118790828D01*
X97561485Y-118588778D01*
X97467850Y-118400733D01*
X97341255Y-118233095D01*
X97186013Y-118091572D01*
X97186010Y-118091570D01*
X97186009Y-118091569D01*
X97007412Y-117980986D01*
X97007406Y-117980983D01*
X96832726Y-117913313D01*
X96811526Y-117905100D01*
X96605034Y-117866500D01*
X96394966Y-117866500D01*
X96188474Y-117905100D01*
X96188471Y-117905100D01*
X96188471Y-117905101D01*
X95992593Y-117980983D01*
X95992587Y-117980986D01*
X95813990Y-118091569D01*
X95658744Y-118233095D01*
X95532150Y-118400732D01*
X95438516Y-118588774D01*
X95438515Y-118588778D01*
X95397160Y-118734128D01*
X95381026Y-118790832D01*
X95361644Y-119000000D01*
X92629820Y-119000000D01*
X92629820Y-118999999D01*
X92610583Y-118792396D01*
X92610582Y-118792394D01*
X92553527Y-118591866D01*
X92553521Y-118591851D01*
X92460593Y-118405227D01*
X92455313Y-118398238D01*
X91875000Y-118978551D01*
X91875000Y-118950630D01*
X91849444Y-118855255D01*
X91800075Y-118769745D01*
X91730255Y-118699925D01*
X91644745Y-118650556D01*
X91549370Y-118625000D01*
X91521447Y-118625000D01*
X92098847Y-118047599D01*
X92003602Y-117988626D01*
X92003601Y-117988625D01*
X91809197Y-117913313D01*
X91809187Y-117913310D01*
X91604244Y-117875000D01*
X91395756Y-117875000D01*
X91197285Y-117912100D01*
X91127770Y-117905069D01*
X91073091Y-117861571D01*
X91050609Y-117795417D01*
X91050500Y-117790211D01*
X91050500Y-116499996D01*
X117186384Y-116499996D01*
X117186384Y-116500003D01*
X117206781Y-116681041D01*
X117206782Y-116681046D01*
X117247949Y-116798693D01*
X117266957Y-116853015D01*
X117363889Y-117007281D01*
X117492719Y-117136111D01*
X117646985Y-117233043D01*
X117818953Y-117293217D01*
X117818958Y-117293218D01*
X117864144Y-117298309D01*
X117928558Y-117325375D01*
X117937933Y-117333838D01*
X118096167Y-117492072D01*
X118096168Y-117492073D01*
X118199921Y-117561399D01*
X118199923Y-117561399D01*
X118199925Y-117561401D01*
X118315215Y-117609155D01*
X118315217Y-117609155D01*
X118315222Y-117609157D01*
X118437601Y-117633499D01*
X118437605Y-117633500D01*
X118437606Y-117633500D01*
X118562394Y-117633500D01*
X120452840Y-117633500D01*
X120518812Y-117652507D01*
X120646977Y-117733039D01*
X120646980Y-117733041D01*
X120646984Y-117733042D01*
X120646985Y-117733043D01*
X120751874Y-117769745D01*
X120818953Y-117793217D01*
X120818958Y-117793218D01*
X120999996Y-117813616D01*
X121000000Y-117813616D01*
X121000004Y-117813616D01*
X121181041Y-117793218D01*
X121181044Y-117793217D01*
X121181047Y-117793217D01*
X121353015Y-117733043D01*
X121507281Y-117636111D01*
X121636111Y-117507281D01*
X121733043Y-117353015D01*
X121793217Y-117181047D01*
X121798280Y-117136110D01*
X121813616Y-117000003D01*
X121813616Y-116999996D01*
X121793218Y-116818958D01*
X121793217Y-116818953D01*
X121733043Y-116646985D01*
X121636111Y-116492719D01*
X121507281Y-116363889D01*
X121353015Y-116266957D01*
X121298693Y-116247949D01*
X121181046Y-116206782D01*
X121181041Y-116206781D01*
X121000004Y-116186384D01*
X120999996Y-116186384D01*
X120818958Y-116206781D01*
X120818953Y-116206782D01*
X120646980Y-116266958D01*
X120646977Y-116266960D01*
X120518812Y-116347493D01*
X120452840Y-116366500D01*
X118897837Y-116366500D01*
X118830798Y-116346815D01*
X118785043Y-116294011D01*
X118780795Y-116283454D01*
X118775022Y-116266957D01*
X118733043Y-116146985D01*
X118636111Y-115992719D01*
X118507281Y-115863889D01*
X118353015Y-115766957D01*
X118298693Y-115747949D01*
X118181046Y-115706782D01*
X118181041Y-115706781D01*
X118000004Y-115686384D01*
X117999996Y-115686384D01*
X117818958Y-115706781D01*
X117818953Y-115706782D01*
X117646982Y-115766958D01*
X117492718Y-115863889D01*
X117363889Y-115992718D01*
X117266958Y-116146982D01*
X117206782Y-116318953D01*
X117206781Y-116318958D01*
X117186384Y-116499996D01*
X91050500Y-116499996D01*
X91050500Y-112499999D01*
X144745225Y-112499999D01*
X144745225Y-112500000D01*
X144764287Y-112717884D01*
X144764289Y-112717894D01*
X144820894Y-112929150D01*
X144820898Y-112929159D01*
X144913333Y-113127387D01*
X144956874Y-113189571D01*
X145517037Y-112629408D01*
X145534075Y-112692993D01*
X145599901Y-112807007D01*
X145692993Y-112900099D01*
X145807007Y-112965925D01*
X145870590Y-112982962D01*
X145310427Y-113543124D01*
X145372612Y-113586666D01*
X145570840Y-113679101D01*
X145570849Y-113679105D01*
X145782105Y-113735710D01*
X145782115Y-113735712D01*
X145999999Y-113754775D01*
X146000001Y-113754775D01*
X146217884Y-113735712D01*
X146217894Y-113735710D01*
X146429150Y-113679105D01*
X146429164Y-113679100D01*
X146627383Y-113586669D01*
X146627385Y-113586668D01*
X146689571Y-113543124D01*
X146129410Y-112982962D01*
X146192993Y-112965925D01*
X146307007Y-112900099D01*
X146400099Y-112807007D01*
X146465925Y-112692993D01*
X146482962Y-112629409D01*
X147043124Y-113189570D01*
X147086668Y-113127385D01*
X147086669Y-113127383D01*
X147179100Y-112929164D01*
X147179105Y-112929150D01*
X147235710Y-112717894D01*
X147235712Y-112717884D01*
X147254775Y-112500000D01*
X147254775Y-112499999D01*
X147235712Y-112282115D01*
X147235710Y-112282105D01*
X147179105Y-112070849D01*
X147179101Y-112070840D01*
X147086667Y-111872614D01*
X147086666Y-111872612D01*
X147043124Y-111810428D01*
X147043124Y-111810427D01*
X146482962Y-112370589D01*
X146465925Y-112307007D01*
X146400099Y-112192993D01*
X146307007Y-112099901D01*
X146192993Y-112034075D01*
X146129409Y-112017037D01*
X146689571Y-111456874D01*
X146627387Y-111413333D01*
X146429159Y-111320898D01*
X146429150Y-111320894D01*
X146217894Y-111264289D01*
X146217884Y-111264287D01*
X146000001Y-111245225D01*
X145999999Y-111245225D01*
X145782115Y-111264287D01*
X145782105Y-111264289D01*
X145570849Y-111320894D01*
X145570840Y-111320898D01*
X145372613Y-111413333D01*
X145310428Y-111456874D01*
X145870591Y-112017037D01*
X145807007Y-112034075D01*
X145692993Y-112099901D01*
X145599901Y-112192993D01*
X145534075Y-112307007D01*
X145517037Y-112370591D01*
X144956874Y-111810428D01*
X144913333Y-111872613D01*
X144820898Y-112070840D01*
X144820894Y-112070849D01*
X144764289Y-112282105D01*
X144764287Y-112282115D01*
X144745225Y-112499999D01*
X91050500Y-112499999D01*
X91050500Y-106301345D01*
X154991500Y-106301345D01*
X154991500Y-112698654D01*
X154998011Y-112759202D01*
X154998011Y-112759204D01*
X155044373Y-112883500D01*
X155049111Y-112896204D01*
X155136739Y-113013261D01*
X155253796Y-113100889D01*
X155390799Y-113151989D01*
X155418050Y-113154918D01*
X155451345Y-113158499D01*
X155451362Y-113158500D01*
X162048638Y-113158500D01*
X162048654Y-113158499D01*
X162075692Y-113155591D01*
X162109201Y-113151989D01*
X162246204Y-113100889D01*
X162363261Y-113013261D01*
X162450889Y-112896204D01*
X162501989Y-112759201D01*
X162506431Y-112717884D01*
X162508499Y-112698654D01*
X162508500Y-112698637D01*
X162508500Y-110987345D01*
X163291500Y-110987345D01*
X163291500Y-112584654D01*
X163298011Y-112645202D01*
X163298011Y-112645204D01*
X163340532Y-112759204D01*
X163349111Y-112782204D01*
X163436739Y-112899261D01*
X163553796Y-112986889D01*
X163690799Y-113037989D01*
X163718050Y-113040918D01*
X163751345Y-113044499D01*
X163751362Y-113044500D01*
X166748638Y-113044500D01*
X166748654Y-113044499D01*
X166775692Y-113041591D01*
X166809201Y-113037989D01*
X166946204Y-112986889D01*
X167063261Y-112899261D01*
X167150889Y-112782204D01*
X167201989Y-112645201D01*
X167205591Y-112611692D01*
X167208499Y-112584654D01*
X167208500Y-112584637D01*
X167208500Y-111750000D01*
X173111644Y-111750000D01*
X173131026Y-111959167D01*
X173131026Y-111959169D01*
X173131027Y-111959172D01*
X173188515Y-112161222D01*
X173282150Y-112349267D01*
X173408745Y-112516905D01*
X173563987Y-112658428D01*
X173563989Y-112658429D01*
X173563990Y-112658430D01*
X173742587Y-112769013D01*
X173742593Y-112769016D01*
X173776636Y-112782204D01*
X173938474Y-112844900D01*
X174144966Y-112883500D01*
X174144968Y-112883500D01*
X174355032Y-112883500D01*
X174355034Y-112883500D01*
X174561526Y-112844900D01*
X174757409Y-112769015D01*
X174936013Y-112658428D01*
X175091255Y-112516905D01*
X175217850Y-112349267D01*
X175311485Y-112161222D01*
X175368973Y-111959172D01*
X175388356Y-111750000D01*
X178111644Y-111750000D01*
X178131026Y-111959167D01*
X178131026Y-111959169D01*
X178131027Y-111959172D01*
X178188515Y-112161222D01*
X178282150Y-112349267D01*
X178408745Y-112516905D01*
X178563987Y-112658428D01*
X178563989Y-112658429D01*
X178563990Y-112658430D01*
X178742587Y-112769013D01*
X178742593Y-112769016D01*
X178776636Y-112782204D01*
X178938474Y-112844900D01*
X179144966Y-112883500D01*
X179144968Y-112883500D01*
X179355032Y-112883500D01*
X179355034Y-112883500D01*
X179561526Y-112844900D01*
X179757409Y-112769015D01*
X179936013Y-112658428D01*
X180091255Y-112516905D01*
X180217850Y-112349267D01*
X180311485Y-112161222D01*
X180368973Y-111959172D01*
X180388356Y-111750000D01*
X180368973Y-111540828D01*
X180311485Y-111338778D01*
X180217850Y-111150733D01*
X180091255Y-110983095D01*
X179936013Y-110841572D01*
X179936010Y-110841570D01*
X179936009Y-110841569D01*
X179757412Y-110730986D01*
X179757406Y-110730983D01*
X179603025Y-110671176D01*
X179561526Y-110655100D01*
X179355034Y-110616500D01*
X179144966Y-110616500D01*
X178938474Y-110655100D01*
X178938471Y-110655100D01*
X178938471Y-110655101D01*
X178742593Y-110730983D01*
X178742587Y-110730986D01*
X178563990Y-110841569D01*
X178408744Y-110983095D01*
X178282150Y-111150732D01*
X178188516Y-111338774D01*
X178131026Y-111540832D01*
X178111644Y-111750000D01*
X175388356Y-111750000D01*
X175368973Y-111540828D01*
X175311485Y-111338778D01*
X175217850Y-111150733D01*
X175091255Y-110983095D01*
X174936013Y-110841572D01*
X174936010Y-110841570D01*
X174936009Y-110841569D01*
X174757412Y-110730986D01*
X174757406Y-110730983D01*
X174603025Y-110671176D01*
X174561526Y-110655100D01*
X174355034Y-110616500D01*
X174144966Y-110616500D01*
X173938474Y-110655100D01*
X173938471Y-110655100D01*
X173938471Y-110655101D01*
X173742593Y-110730983D01*
X173742587Y-110730986D01*
X173563990Y-110841569D01*
X173408744Y-110983095D01*
X173282150Y-111150732D01*
X173188516Y-111338774D01*
X173131026Y-111540832D01*
X173111644Y-111750000D01*
X167208500Y-111750000D01*
X167208500Y-110987362D01*
X167208499Y-110987345D01*
X167205157Y-110956270D01*
X167201989Y-110926799D01*
X167150889Y-110789796D01*
X167063261Y-110672739D01*
X166946204Y-110585111D01*
X166809203Y-110534011D01*
X166748654Y-110527500D01*
X166748638Y-110527500D01*
X163751362Y-110527500D01*
X163751345Y-110527500D01*
X163690797Y-110534011D01*
X163690795Y-110534011D01*
X163553795Y-110585111D01*
X163436739Y-110672739D01*
X163349111Y-110789795D01*
X163298011Y-110926795D01*
X163298011Y-110926797D01*
X163291500Y-110987345D01*
X162508500Y-110987345D01*
X162508500Y-106415345D01*
X163291500Y-106415345D01*
X163291500Y-108012654D01*
X163298011Y-108073202D01*
X163298011Y-108073204D01*
X163349111Y-108210204D01*
X163436739Y-108327261D01*
X163553796Y-108414889D01*
X163690799Y-108465989D01*
X163718050Y-108468918D01*
X163751345Y-108472499D01*
X163751362Y-108472500D01*
X166748638Y-108472500D01*
X166748654Y-108472499D01*
X166775692Y-108469591D01*
X166809201Y-108465989D01*
X166946204Y-108414889D01*
X167063261Y-108327261D01*
X167150889Y-108210204D01*
X167201989Y-108073201D01*
X167205591Y-108039692D01*
X167208499Y-108012654D01*
X167208500Y-108012637D01*
X167208500Y-106415362D01*
X167208499Y-106415345D01*
X167205157Y-106384270D01*
X167201989Y-106354799D01*
X167182051Y-106301345D01*
X167166179Y-106258790D01*
X167150889Y-106217796D01*
X167063261Y-106100739D01*
X166946204Y-106013111D01*
X166809203Y-105962011D01*
X166748654Y-105955500D01*
X166748638Y-105955500D01*
X163751362Y-105955500D01*
X163751345Y-105955500D01*
X163690797Y-105962011D01*
X163690795Y-105962011D01*
X163553795Y-106013111D01*
X163436739Y-106100739D01*
X163349111Y-106217795D01*
X163298011Y-106354795D01*
X163298011Y-106354797D01*
X163291500Y-106415345D01*
X162508500Y-106415345D01*
X162508500Y-106301362D01*
X162508499Y-106301345D01*
X162505157Y-106270270D01*
X162501989Y-106240799D01*
X162501566Y-106239666D01*
X162479522Y-106180564D01*
X162450889Y-106103796D01*
X162363261Y-105986739D01*
X162246204Y-105899111D01*
X162109203Y-105848011D01*
X162048654Y-105841500D01*
X162048638Y-105841500D01*
X155451362Y-105841500D01*
X155451345Y-105841500D01*
X155390797Y-105848011D01*
X155390795Y-105848011D01*
X155253795Y-105899111D01*
X155136739Y-105986739D01*
X155049111Y-106103795D01*
X154998011Y-106240795D01*
X154998011Y-106240797D01*
X154991500Y-106301345D01*
X91050500Y-106301345D01*
X91050500Y-104999999D01*
X124471210Y-104999999D01*
X124471210Y-105000000D01*
X124490333Y-105218582D01*
X124490335Y-105218592D01*
X124547121Y-105430524D01*
X124547125Y-105430533D01*
X124639854Y-105629392D01*
X124684003Y-105692443D01*
X125247037Y-105129409D01*
X125264075Y-105192993D01*
X125329901Y-105307007D01*
X125422993Y-105400099D01*
X125537007Y-105465925D01*
X125600590Y-105482962D01*
X125037555Y-106045996D01*
X125100601Y-106090142D01*
X125100605Y-106090144D01*
X125299466Y-106182874D01*
X125299475Y-106182878D01*
X125511407Y-106239664D01*
X125511417Y-106239666D01*
X125729999Y-106258790D01*
X125730001Y-106258790D01*
X125948582Y-106239666D01*
X125948592Y-106239664D01*
X126160524Y-106182878D01*
X126160533Y-106182874D01*
X126359392Y-106090145D01*
X126422443Y-106045995D01*
X125859410Y-105482962D01*
X125922993Y-105465925D01*
X126037007Y-105400099D01*
X126130099Y-105307007D01*
X126195925Y-105192993D01*
X126212962Y-105129409D01*
X126775995Y-105692442D01*
X126820146Y-105629390D01*
X126882928Y-105494754D01*
X126929100Y-105442314D01*
X126996293Y-105423162D01*
X127063174Y-105443377D01*
X127107692Y-105494753D01*
X127172466Y-105633662D01*
X127172468Y-105633666D01*
X127299170Y-105814615D01*
X127299175Y-105814621D01*
X127455378Y-105970824D01*
X127455384Y-105970829D01*
X127636333Y-106097531D01*
X127636335Y-106097532D01*
X127636338Y-106097534D01*
X127836550Y-106190894D01*
X128049932Y-106248070D01*
X128207123Y-106261822D01*
X128269998Y-106267323D01*
X128270000Y-106267323D01*
X128270002Y-106267323D01*
X128325017Y-106262509D01*
X128490068Y-106248070D01*
X128703450Y-106190894D01*
X128903662Y-106097534D01*
X129084620Y-105970826D01*
X129240826Y-105814620D01*
X129367534Y-105633662D01*
X129460894Y-105433450D01*
X129518070Y-105220068D01*
X129537323Y-105000000D01*
X129537323Y-104999999D01*
X135471210Y-104999999D01*
X135471210Y-105000000D01*
X135490333Y-105218582D01*
X135490335Y-105218592D01*
X135547121Y-105430524D01*
X135547125Y-105430533D01*
X135639854Y-105629392D01*
X135684003Y-105692443D01*
X136247037Y-105129409D01*
X136264075Y-105192993D01*
X136329901Y-105307007D01*
X136422993Y-105400099D01*
X136537007Y-105465925D01*
X136600590Y-105482962D01*
X136037555Y-106045996D01*
X136100601Y-106090142D01*
X136100605Y-106090144D01*
X136299466Y-106182874D01*
X136299475Y-106182878D01*
X136511407Y-106239664D01*
X136511417Y-106239666D01*
X136729999Y-106258790D01*
X136730001Y-106258790D01*
X136948582Y-106239666D01*
X136948592Y-106239664D01*
X137160524Y-106182878D01*
X137160533Y-106182874D01*
X137359392Y-106090145D01*
X137422443Y-106045995D01*
X136859410Y-105482962D01*
X136922993Y-105465925D01*
X137037007Y-105400099D01*
X137130099Y-105307007D01*
X137195925Y-105192993D01*
X137212962Y-105129409D01*
X137775995Y-105692442D01*
X137820146Y-105629390D01*
X137882928Y-105494754D01*
X137929100Y-105442314D01*
X137996293Y-105423162D01*
X138063174Y-105443377D01*
X138107692Y-105494753D01*
X138172466Y-105633662D01*
X138172468Y-105633666D01*
X138299170Y-105814615D01*
X138299175Y-105814621D01*
X138455378Y-105970824D01*
X138455384Y-105970829D01*
X138636333Y-106097531D01*
X138636335Y-106097532D01*
X138636338Y-106097534D01*
X138836550Y-106190894D01*
X139049932Y-106248070D01*
X139207123Y-106261822D01*
X139269998Y-106267323D01*
X139270000Y-106267323D01*
X139270002Y-106267323D01*
X139325017Y-106262509D01*
X139490068Y-106248070D01*
X139703450Y-106190894D01*
X139903662Y-106097534D01*
X140084620Y-105970826D01*
X140240826Y-105814620D01*
X140367534Y-105633662D01*
X140460894Y-105433450D01*
X140518070Y-105220068D01*
X140537323Y-105000000D01*
X140518070Y-104779932D01*
X140460894Y-104566550D01*
X140367534Y-104366339D01*
X140240826Y-104185380D01*
X140084620Y-104029174D01*
X140084616Y-104029171D01*
X140084615Y-104029170D01*
X139903666Y-103902468D01*
X139903662Y-103902466D01*
X139903660Y-103902465D01*
X139703450Y-103809106D01*
X139703447Y-103809105D01*
X139703445Y-103809104D01*
X139490070Y-103751930D01*
X139490062Y-103751929D01*
X139270002Y-103732677D01*
X139269998Y-103732677D01*
X139049937Y-103751929D01*
X139049929Y-103751930D01*
X138836554Y-103809104D01*
X138836548Y-103809107D01*
X138636340Y-103902465D01*
X138636338Y-103902466D01*
X138455377Y-104029175D01*
X138299175Y-104185377D01*
X138172466Y-104366338D01*
X138172465Y-104366340D01*
X138107692Y-104505246D01*
X138061519Y-104557685D01*
X137994326Y-104576837D01*
X137927445Y-104556621D01*
X137882928Y-104505245D01*
X137820146Y-104370609D01*
X137820142Y-104370601D01*
X137775996Y-104307555D01*
X137212962Y-104870589D01*
X137195925Y-104807007D01*
X137130099Y-104692993D01*
X137037007Y-104599901D01*
X136922993Y-104534075D01*
X136859409Y-104517037D01*
X137422443Y-103954003D01*
X137359392Y-103909854D01*
X137160533Y-103817125D01*
X137160524Y-103817121D01*
X136948592Y-103760335D01*
X136948582Y-103760333D01*
X136730001Y-103741210D01*
X136729999Y-103741210D01*
X136511417Y-103760333D01*
X136511407Y-103760335D01*
X136299475Y-103817121D01*
X136299466Y-103817124D01*
X136100606Y-103909855D01*
X136100604Y-103909856D01*
X136037556Y-103954003D01*
X136037555Y-103954003D01*
X136600590Y-104517037D01*
X136537007Y-104534075D01*
X136422993Y-104599901D01*
X136329901Y-104692993D01*
X136264075Y-104807007D01*
X136247037Y-104870589D01*
X135684003Y-104307555D01*
X135684003Y-104307556D01*
X135639856Y-104370604D01*
X135639855Y-104370606D01*
X135547124Y-104569466D01*
X135547121Y-104569475D01*
X135490335Y-104781407D01*
X135490333Y-104781417D01*
X135471210Y-104999999D01*
X129537323Y-104999999D01*
X129518070Y-104779932D01*
X129460894Y-104566550D01*
X129367534Y-104366339D01*
X129240826Y-104185380D01*
X129084620Y-104029174D01*
X129084616Y-104029171D01*
X129084615Y-104029170D01*
X128903666Y-103902468D01*
X128903662Y-103902466D01*
X128903660Y-103902465D01*
X128703450Y-103809106D01*
X128703447Y-103809105D01*
X128703445Y-103809104D01*
X128490070Y-103751930D01*
X128490062Y-103751929D01*
X128270002Y-103732677D01*
X128269998Y-103732677D01*
X128049937Y-103751929D01*
X128049929Y-103751930D01*
X127836554Y-103809104D01*
X127836548Y-103809107D01*
X127636340Y-103902465D01*
X127636338Y-103902466D01*
X127455377Y-104029175D01*
X127299175Y-104185377D01*
X127172466Y-104366338D01*
X127172465Y-104366340D01*
X127107692Y-104505246D01*
X127061519Y-104557685D01*
X126994326Y-104576837D01*
X126927445Y-104556621D01*
X126882928Y-104505245D01*
X126820146Y-104370609D01*
X126820142Y-104370601D01*
X126775996Y-104307555D01*
X126212962Y-104870589D01*
X126195925Y-104807007D01*
X126130099Y-104692993D01*
X126037007Y-104599901D01*
X125922993Y-104534075D01*
X125859409Y-104517037D01*
X126422443Y-103954003D01*
X126359392Y-103909854D01*
X126160533Y-103817125D01*
X126160524Y-103817121D01*
X125948592Y-103760335D01*
X125948582Y-103760333D01*
X125730001Y-103741210D01*
X125729999Y-103741210D01*
X125511417Y-103760333D01*
X125511407Y-103760335D01*
X125299475Y-103817121D01*
X125299466Y-103817124D01*
X125100606Y-103909855D01*
X125100604Y-103909856D01*
X125037556Y-103954003D01*
X125037555Y-103954003D01*
X125600590Y-104517037D01*
X125537007Y-104534075D01*
X125422993Y-104599901D01*
X125329901Y-104692993D01*
X125264075Y-104807007D01*
X125247037Y-104870589D01*
X124684003Y-104307555D01*
X124684003Y-104307556D01*
X124639856Y-104370604D01*
X124639855Y-104370606D01*
X124547124Y-104569466D01*
X124547121Y-104569475D01*
X124490335Y-104781407D01*
X124490333Y-104781417D01*
X124471210Y-104999999D01*
X91050500Y-104999999D01*
X91050500Y-95999997D01*
X93736693Y-95999997D01*
X93736693Y-96000000D01*
X93755885Y-96219371D01*
X93812880Y-96432076D01*
X93812881Y-96432079D01*
X93812882Y-96432081D01*
X93844807Y-96500544D01*
X93905944Y-96631654D01*
X94032251Y-96812038D01*
X94187962Y-96967749D01*
X94368346Y-97094056D01*
X94567924Y-97187120D01*
X94780629Y-97244115D01*
X94937322Y-97257823D01*
X94999998Y-97263307D01*
X95000000Y-97263307D01*
X95000002Y-97263307D01*
X95054842Y-97258509D01*
X95219371Y-97244115D01*
X95432076Y-97187120D01*
X95631654Y-97094056D01*
X95812038Y-96967749D01*
X95967749Y-96812038D01*
X96094056Y-96631654D01*
X96187120Y-96432076D01*
X96244115Y-96219371D01*
X96263307Y-96000000D01*
X96244115Y-95780629D01*
X96187120Y-95567924D01*
X96094056Y-95368347D01*
X96094054Y-95368344D01*
X96094053Y-95368342D01*
X95995270Y-95227266D01*
X95967749Y-95187962D01*
X95812038Y-95032251D01*
X95631654Y-94905944D01*
X95631650Y-94905942D01*
X95432081Y-94812882D01*
X95432079Y-94812881D01*
X95432076Y-94812880D01*
X95280777Y-94772339D01*
X95219372Y-94755885D01*
X95219365Y-94755884D01*
X95000002Y-94736693D01*
X94999998Y-94736693D01*
X94780634Y-94755884D01*
X94780627Y-94755885D01*
X94567920Y-94812881D01*
X94368346Y-94905944D01*
X94368342Y-94905946D01*
X94187967Y-95032247D01*
X94187960Y-95032252D01*
X94032252Y-95187960D01*
X94032247Y-95187967D01*
X93905946Y-95368342D01*
X93905944Y-95368346D01*
X93812881Y-95567920D01*
X93755885Y-95780627D01*
X93755884Y-95780634D01*
X93736693Y-95999997D01*
X91050500Y-95999997D01*
X91050500Y-91906345D01*
X100471500Y-91906345D01*
X100471500Y-93603654D01*
X100478011Y-93664202D01*
X100478011Y-93664204D01*
X100514189Y-93761198D01*
X100529111Y-93801204D01*
X100616739Y-93918261D01*
X100733796Y-94005889D01*
X100870799Y-94056989D01*
X100898050Y-94059918D01*
X100931345Y-94063499D01*
X100931362Y-94063500D01*
X102628638Y-94063500D01*
X102628654Y-94063499D01*
X102655692Y-94060591D01*
X102689201Y-94056989D01*
X102826204Y-94005889D01*
X102943261Y-93918261D01*
X103030889Y-93801204D01*
X103081989Y-93664201D01*
X103083569Y-93649500D01*
X103110304Y-93584952D01*
X103167695Y-93545102D01*
X103237521Y-93542606D01*
X103297611Y-93578257D01*
X103308428Y-93591626D01*
X103313802Y-93599300D01*
X103475700Y-93761198D01*
X103663251Y-93892523D01*
X103718445Y-93918260D01*
X103870750Y-93989281D01*
X103870752Y-93989281D01*
X103870757Y-93989284D01*
X104091913Y-94048543D01*
X104254832Y-94062796D01*
X104319998Y-94068498D01*
X104320000Y-94068498D01*
X104320002Y-94068498D01*
X104377139Y-94063499D01*
X104548087Y-94048543D01*
X104769243Y-93989284D01*
X104976749Y-93892523D01*
X105164300Y-93761198D01*
X105326198Y-93599300D01*
X105457523Y-93411749D01*
X105477618Y-93368655D01*
X105523790Y-93316215D01*
X105590983Y-93297063D01*
X105657864Y-93317278D01*
X105702382Y-93368655D01*
X105722477Y-93411749D01*
X105853802Y-93599300D01*
X106015700Y-93761198D01*
X106203251Y-93892523D01*
X106258445Y-93918260D01*
X106410750Y-93989281D01*
X106410752Y-93989281D01*
X106410757Y-93989284D01*
X106631913Y-94048543D01*
X106794832Y-94062796D01*
X106859998Y-94068498D01*
X106860000Y-94068498D01*
X106860002Y-94068498D01*
X106917139Y-94063499D01*
X107088087Y-94048543D01*
X107309243Y-93989284D01*
X107516749Y-93892523D01*
X107704300Y-93761198D01*
X107866198Y-93599300D01*
X107997523Y-93411749D01*
X108022307Y-93358598D01*
X108068479Y-93306159D01*
X108135672Y-93287007D01*
X108202553Y-93307222D01*
X108247071Y-93358599D01*
X108269864Y-93407479D01*
X108269865Y-93407481D01*
X108400342Y-93593820D01*
X108561179Y-93754657D01*
X108747517Y-93885134D01*
X108953673Y-93981265D01*
X108953682Y-93981269D01*
X109149999Y-94033872D01*
X109150000Y-94033871D01*
X109150000Y-93188012D01*
X109207007Y-93220925D01*
X109334174Y-93255000D01*
X109465826Y-93255000D01*
X109592993Y-93220925D01*
X109650000Y-93188012D01*
X109650000Y-94033872D01*
X109846317Y-93981269D01*
X109846326Y-93981265D01*
X110052482Y-93885134D01*
X110238820Y-93754657D01*
X110399657Y-93593820D01*
X110530133Y-93407483D01*
X110552927Y-93358600D01*
X110599098Y-93306160D01*
X110666292Y-93287007D01*
X110733173Y-93307221D01*
X110777691Y-93358596D01*
X110802477Y-93411749D01*
X110933802Y-93599300D01*
X111095700Y-93761198D01*
X111283251Y-93892523D01*
X111338445Y-93918260D01*
X111490750Y-93989281D01*
X111490752Y-93989281D01*
X111490757Y-93989284D01*
X111711913Y-94048543D01*
X111874832Y-94062796D01*
X111939998Y-94068498D01*
X111940000Y-94068498D01*
X111940002Y-94068498D01*
X111997139Y-94063499D01*
X112168087Y-94048543D01*
X112389243Y-93989284D01*
X112596749Y-93892523D01*
X112784300Y-93761198D01*
X112946198Y-93599300D01*
X113077523Y-93411749D01*
X113097618Y-93368655D01*
X113143790Y-93316215D01*
X113210983Y-93297063D01*
X113277864Y-93317278D01*
X113322382Y-93368655D01*
X113342477Y-93411749D01*
X113473802Y-93599300D01*
X113635700Y-93761198D01*
X113823251Y-93892523D01*
X113878445Y-93918260D01*
X114030750Y-93989281D01*
X114030752Y-93989281D01*
X114030757Y-93989284D01*
X114251913Y-94048543D01*
X114414832Y-94062796D01*
X114479998Y-94068498D01*
X114480000Y-94068498D01*
X114480002Y-94068498D01*
X114537139Y-94063499D01*
X114708087Y-94048543D01*
X114929243Y-93989284D01*
X115136749Y-93892523D01*
X115324300Y-93761198D01*
X115486198Y-93599300D01*
X115617523Y-93411749D01*
X115637618Y-93368655D01*
X115683790Y-93316215D01*
X115750983Y-93297063D01*
X115817864Y-93317278D01*
X115862382Y-93368655D01*
X115882477Y-93411749D01*
X116013802Y-93599300D01*
X116175700Y-93761198D01*
X116363251Y-93892523D01*
X116418445Y-93918260D01*
X116570750Y-93989281D01*
X116570752Y-93989281D01*
X116570757Y-93989284D01*
X116791913Y-94048543D01*
X116954832Y-94062796D01*
X117019998Y-94068498D01*
X117020000Y-94068498D01*
X117020002Y-94068498D01*
X117077139Y-94063499D01*
X117248087Y-94048543D01*
X117469243Y-93989284D01*
X117676749Y-93892523D01*
X117864300Y-93761198D01*
X118026198Y-93599300D01*
X118157523Y-93411749D01*
X118177618Y-93368655D01*
X118223790Y-93316215D01*
X118290983Y-93297063D01*
X118357864Y-93317278D01*
X118402382Y-93368655D01*
X118422477Y-93411749D01*
X118553802Y-93599300D01*
X118715700Y-93761198D01*
X118903251Y-93892523D01*
X118958445Y-93918260D01*
X119110750Y-93989281D01*
X119110752Y-93989281D01*
X119110757Y-93989284D01*
X119331913Y-94048543D01*
X119494832Y-94062796D01*
X119559998Y-94068498D01*
X119560000Y-94068498D01*
X119560002Y-94068498D01*
X119617139Y-94063499D01*
X119788087Y-94048543D01*
X120009243Y-93989284D01*
X120216749Y-93892523D01*
X120404300Y-93761198D01*
X120566198Y-93599300D01*
X120697523Y-93411749D01*
X120717618Y-93368655D01*
X120763790Y-93316215D01*
X120830983Y-93297063D01*
X120897864Y-93317278D01*
X120942382Y-93368655D01*
X120962477Y-93411749D01*
X121093802Y-93599300D01*
X121255700Y-93761198D01*
X121443251Y-93892523D01*
X121498445Y-93918260D01*
X121650750Y-93989281D01*
X121650752Y-93989281D01*
X121650757Y-93989284D01*
X121871913Y-94048543D01*
X122034832Y-94062796D01*
X122099998Y-94068498D01*
X122100000Y-94068498D01*
X122100002Y-94068498D01*
X122157139Y-94063499D01*
X122328087Y-94048543D01*
X122549243Y-93989284D01*
X122756749Y-93892523D01*
X122944300Y-93761198D01*
X123106198Y-93599300D01*
X123237523Y-93411749D01*
X123257618Y-93368655D01*
X123303790Y-93316215D01*
X123370983Y-93297063D01*
X123437864Y-93317278D01*
X123482382Y-93368655D01*
X123502477Y-93411749D01*
X123633802Y-93599300D01*
X123795700Y-93761198D01*
X123983251Y-93892523D01*
X124038445Y-93918260D01*
X124190750Y-93989281D01*
X124190752Y-93989281D01*
X124190757Y-93989284D01*
X124411913Y-94048543D01*
X124574832Y-94062796D01*
X124639998Y-94068498D01*
X124640000Y-94068498D01*
X124640002Y-94068498D01*
X124697139Y-94063499D01*
X124868087Y-94048543D01*
X125089243Y-93989284D01*
X125296749Y-93892523D01*
X125484300Y-93761198D01*
X125646198Y-93599300D01*
X125777523Y-93411749D01*
X125797618Y-93368655D01*
X125843790Y-93316215D01*
X125910983Y-93297063D01*
X125977864Y-93317278D01*
X126022382Y-93368655D01*
X126042477Y-93411749D01*
X126173802Y-93599300D01*
X126335700Y-93761198D01*
X126523251Y-93892523D01*
X126578445Y-93918260D01*
X126730750Y-93989281D01*
X126730752Y-93989281D01*
X126730757Y-93989284D01*
X126951913Y-94048543D01*
X127114832Y-94062796D01*
X127179998Y-94068498D01*
X127180000Y-94068498D01*
X127180002Y-94068498D01*
X127237139Y-94063499D01*
X127408087Y-94048543D01*
X127629243Y-93989284D01*
X127836749Y-93892523D01*
X128024300Y-93761198D01*
X128186198Y-93599300D01*
X128317523Y-93411749D01*
X128337618Y-93368655D01*
X128383790Y-93316215D01*
X128450983Y-93297063D01*
X128517864Y-93317278D01*
X128562382Y-93368655D01*
X128582477Y-93411749D01*
X128713802Y-93599300D01*
X128875700Y-93761198D01*
X129063251Y-93892523D01*
X129118445Y-93918260D01*
X129270750Y-93989281D01*
X129270752Y-93989281D01*
X129270757Y-93989284D01*
X129491913Y-94048543D01*
X129654832Y-94062796D01*
X129719998Y-94068498D01*
X129720000Y-94068498D01*
X129720002Y-94068498D01*
X129777139Y-94063499D01*
X129948087Y-94048543D01*
X130169243Y-93989284D01*
X130376749Y-93892523D01*
X130564300Y-93761198D01*
X130726198Y-93599300D01*
X130857523Y-93411749D01*
X130877618Y-93368655D01*
X130923790Y-93316215D01*
X130990983Y-93297063D01*
X131057864Y-93317278D01*
X131102382Y-93368655D01*
X131122477Y-93411749D01*
X131253802Y-93599300D01*
X131415700Y-93761198D01*
X131603251Y-93892523D01*
X131658445Y-93918260D01*
X131810750Y-93989281D01*
X131810752Y-93989281D01*
X131810757Y-93989284D01*
X132031913Y-94048543D01*
X132194832Y-94062796D01*
X132259998Y-94068498D01*
X132260000Y-94068498D01*
X132260002Y-94068498D01*
X132317139Y-94063499D01*
X132488087Y-94048543D01*
X132709243Y-93989284D01*
X132916749Y-93892523D01*
X133104300Y-93761198D01*
X133266198Y-93599300D01*
X133397523Y-93411749D01*
X133417618Y-93368655D01*
X133463790Y-93316215D01*
X133530983Y-93297063D01*
X133597864Y-93317278D01*
X133642382Y-93368655D01*
X133662477Y-93411749D01*
X133793802Y-93599300D01*
X133955700Y-93761198D01*
X134143251Y-93892523D01*
X134198445Y-93918260D01*
X134350750Y-93989281D01*
X134350752Y-93989281D01*
X134350757Y-93989284D01*
X134571913Y-94048543D01*
X134734832Y-94062796D01*
X134799998Y-94068498D01*
X134800000Y-94068498D01*
X134800002Y-94068498D01*
X134857139Y-94063499D01*
X135028087Y-94048543D01*
X135249243Y-93989284D01*
X135456749Y-93892523D01*
X135644300Y-93761198D01*
X135806198Y-93599300D01*
X135937523Y-93411749D01*
X135957618Y-93368655D01*
X136003790Y-93316215D01*
X136070983Y-93297063D01*
X136137864Y-93317278D01*
X136182382Y-93368655D01*
X136202477Y-93411749D01*
X136333802Y-93599300D01*
X136495700Y-93761198D01*
X136683251Y-93892523D01*
X136738445Y-93918260D01*
X136890750Y-93989281D01*
X136890752Y-93989281D01*
X136890757Y-93989284D01*
X137111913Y-94048543D01*
X137274832Y-94062796D01*
X137339998Y-94068498D01*
X137340000Y-94068498D01*
X137340002Y-94068498D01*
X137397139Y-94063499D01*
X137568087Y-94048543D01*
X137789243Y-93989284D01*
X137996749Y-93892523D01*
X138184300Y-93761198D01*
X138346198Y-93599300D01*
X138477523Y-93411749D01*
X138574284Y-93204243D01*
X138633543Y-92983087D01*
X138653498Y-92755000D01*
X138643649Y-92642423D01*
X149836500Y-92642423D01*
X149836500Y-94097576D01*
X149847301Y-94187522D01*
X149847303Y-94187530D01*
X149903749Y-94330665D01*
X149903752Y-94330671D01*
X149941426Y-94380351D01*
X149996725Y-94453275D01*
X150119331Y-94546249D01*
X150119334Y-94546250D01*
X150262469Y-94602696D01*
X150262471Y-94602696D01*
X150262475Y-94602698D01*
X150322441Y-94609899D01*
X150352423Y-94613500D01*
X150352424Y-94613500D01*
X150747577Y-94613500D01*
X150762567Y-94611699D01*
X150837525Y-94602698D01*
X150837533Y-94602694D01*
X150844612Y-94600906D01*
X150905388Y-94600906D01*
X150912467Y-94602695D01*
X150912475Y-94602698D01*
X150984434Y-94611339D01*
X151002423Y-94613500D01*
X151376344Y-94613500D01*
X151443383Y-94633185D01*
X151489138Y-94685989D01*
X151499082Y-94755147D01*
X151470057Y-94818703D01*
X151415349Y-94855205D01*
X151411046Y-94856630D01*
X151407264Y-94857884D01*
X151407259Y-94857886D01*
X151256346Y-94950971D01*
X151130971Y-95076346D01*
X151037886Y-95227259D01*
X151037884Y-95227264D01*
X150982113Y-95395572D01*
X150971500Y-95499447D01*
X150971500Y-96500537D01*
X150971501Y-96500553D01*
X150982113Y-96604427D01*
X151037884Y-96772735D01*
X151037886Y-96772740D01*
X151068500Y-96822372D01*
X151130970Y-96923652D01*
X151256348Y-97049030D01*
X151407262Y-97142115D01*
X151575574Y-97197887D01*
X151679455Y-97208500D01*
X152305544Y-97208499D01*
X152409426Y-97197887D01*
X152577738Y-97142115D01*
X152728652Y-97049030D01*
X152817319Y-96960363D01*
X152878642Y-96926878D01*
X152948334Y-96931862D01*
X152992681Y-96960363D01*
X153081348Y-97049030D01*
X153232262Y-97142115D01*
X153400574Y-97197887D01*
X153504455Y-97208500D01*
X154130544Y-97208499D01*
X154234426Y-97197887D01*
X154402738Y-97142115D01*
X154552404Y-97049799D01*
X154619795Y-97031359D01*
X154686459Y-97052281D01*
X154731228Y-97105923D01*
X154741500Y-97155338D01*
X154741500Y-102198654D01*
X154748011Y-102259202D01*
X154748011Y-102259204D01*
X154783002Y-102353015D01*
X154799111Y-102396204D01*
X154886739Y-102513261D01*
X155003796Y-102600889D01*
X155140799Y-102651989D01*
X155168050Y-102654918D01*
X155201345Y-102658499D01*
X155201362Y-102658500D01*
X161798638Y-102658500D01*
X161798654Y-102658499D01*
X161825692Y-102655591D01*
X161859201Y-102651989D01*
X161996204Y-102600889D01*
X162113261Y-102513261D01*
X162200889Y-102396204D01*
X162251989Y-102259201D01*
X162255591Y-102225692D01*
X162258499Y-102198654D01*
X162258500Y-102198637D01*
X162258500Y-101999996D01*
X162686384Y-101999996D01*
X162686384Y-102000003D01*
X162706781Y-102181041D01*
X162706782Y-102181046D01*
X162766958Y-102353017D01*
X162796015Y-102399260D01*
X162863889Y-102507281D01*
X162992719Y-102636111D01*
X163146985Y-102733043D01*
X163318953Y-102793217D01*
X163318958Y-102793218D01*
X163499996Y-102813616D01*
X163500000Y-102813616D01*
X163500004Y-102813616D01*
X163681041Y-102793218D01*
X163681044Y-102793217D01*
X163681047Y-102793217D01*
X163853015Y-102733043D01*
X164007281Y-102636111D01*
X164062573Y-102580819D01*
X164123896Y-102547334D01*
X164150254Y-102544500D01*
X166498638Y-102544500D01*
X166498654Y-102544499D01*
X166525692Y-102541591D01*
X166559201Y-102537989D01*
X166696204Y-102486889D01*
X166813261Y-102399261D01*
X166900889Y-102282204D01*
X166951989Y-102145201D01*
X166955591Y-102111692D01*
X166958499Y-102084654D01*
X166958500Y-102084637D01*
X166958500Y-100487362D01*
X166958499Y-100487345D01*
X166955157Y-100456270D01*
X166951989Y-100426799D01*
X166900889Y-100289796D01*
X166813261Y-100172739D01*
X166696204Y-100085111D01*
X166559203Y-100034011D01*
X166498654Y-100027500D01*
X166498638Y-100027500D01*
X163501362Y-100027500D01*
X163501345Y-100027500D01*
X163440797Y-100034011D01*
X163440795Y-100034011D01*
X163303795Y-100085111D01*
X163186739Y-100172739D01*
X163099111Y-100289795D01*
X163048011Y-100426795D01*
X163048011Y-100426797D01*
X163041500Y-100487345D01*
X163041500Y-101265272D01*
X163021815Y-101332311D01*
X162994818Y-101362215D01*
X162992718Y-101363889D01*
X162863889Y-101492718D01*
X162766958Y-101646982D01*
X162706782Y-101818953D01*
X162706781Y-101818958D01*
X162686384Y-101999996D01*
X162258500Y-101999996D01*
X162258500Y-95915345D01*
X163041500Y-95915345D01*
X163041500Y-97512654D01*
X163048011Y-97573202D01*
X163048011Y-97573204D01*
X163099111Y-97710204D01*
X163186739Y-97827261D01*
X163303796Y-97914889D01*
X163440799Y-97965989D01*
X163468050Y-97968918D01*
X163501345Y-97972499D01*
X163501362Y-97972500D01*
X166498638Y-97972500D01*
X166498654Y-97972499D01*
X166525692Y-97969591D01*
X166559201Y-97965989D01*
X166696204Y-97914889D01*
X166813261Y-97827261D01*
X166900889Y-97710204D01*
X166951989Y-97573201D01*
X166955591Y-97539692D01*
X166958499Y-97512654D01*
X166958500Y-97512637D01*
X166958500Y-95915362D01*
X166958499Y-95915345D01*
X166955157Y-95884270D01*
X166951989Y-95854799D01*
X166932051Y-95801345D01*
X166929522Y-95794564D01*
X166900889Y-95717796D01*
X166813261Y-95600739D01*
X166696204Y-95513111D01*
X166659594Y-95499456D01*
X166559203Y-95462011D01*
X166498654Y-95455500D01*
X166498638Y-95455500D01*
X163501362Y-95455500D01*
X163501345Y-95455500D01*
X163440797Y-95462011D01*
X163440795Y-95462011D01*
X163303795Y-95513111D01*
X163186739Y-95600739D01*
X163099111Y-95717795D01*
X163048011Y-95854795D01*
X163048011Y-95854797D01*
X163041500Y-95915345D01*
X162258500Y-95915345D01*
X162258500Y-95801362D01*
X162258499Y-95801345D01*
X162255157Y-95770270D01*
X162251989Y-95740799D01*
X162247919Y-95729888D01*
X162215235Y-95642260D01*
X162200889Y-95603796D01*
X162113261Y-95486739D01*
X161996204Y-95399111D01*
X161966962Y-95388204D01*
X161859203Y-95348011D01*
X161798654Y-95341500D01*
X161798638Y-95341500D01*
X155201362Y-95341500D01*
X155201345Y-95341500D01*
X155140797Y-95348011D01*
X155140795Y-95348011D01*
X155003793Y-95399111D01*
X155003788Y-95399114D01*
X155001632Y-95400729D01*
X154999109Y-95401669D01*
X154996008Y-95403363D01*
X154995764Y-95402916D01*
X154936166Y-95425141D01*
X154867894Y-95410283D01*
X154818493Y-95360874D01*
X154809624Y-95340459D01*
X154772116Y-95227266D01*
X154772115Y-95227262D01*
X154679030Y-95076348D01*
X154553652Y-94950970D01*
X154402738Y-94857885D01*
X154394650Y-94855205D01*
X154337207Y-94815433D01*
X154310384Y-94750917D01*
X154322699Y-94682142D01*
X154370242Y-94630942D01*
X154433656Y-94613500D01*
X154647577Y-94613500D01*
X154670063Y-94610799D01*
X154737525Y-94602698D01*
X154880669Y-94546249D01*
X155003275Y-94453275D01*
X155096249Y-94330669D01*
X155152698Y-94187525D01*
X155163500Y-94097576D01*
X155163500Y-92642424D01*
X155152698Y-92552475D01*
X155142616Y-92526910D01*
X155096250Y-92409334D01*
X155096249Y-92409331D01*
X155003275Y-92286725D01*
X154930351Y-92231426D01*
X154880671Y-92193752D01*
X154880665Y-92193749D01*
X154737530Y-92137303D01*
X154737522Y-92137301D01*
X154647577Y-92126500D01*
X154647576Y-92126500D01*
X154252424Y-92126500D01*
X154162475Y-92137302D01*
X154162471Y-92137302D01*
X154156674Y-92139589D01*
X154093542Y-92145285D01*
X154093386Y-92146586D01*
X154087270Y-92145851D01*
X154087087Y-92145868D01*
X154086720Y-92145785D01*
X154005000Y-92135970D01*
X154005000Y-92143028D01*
X153985315Y-92210067D01*
X153955925Y-92241832D01*
X153896729Y-92286721D01*
X153890731Y-92292720D01*
X153889138Y-92291127D01*
X153842601Y-92325510D01*
X153772879Y-92330056D01*
X153711768Y-92296185D01*
X153705497Y-92288947D01*
X153703278Y-92286729D01*
X153703275Y-92286725D01*
X153701209Y-92285158D01*
X153644075Y-92241832D01*
X153602552Y-92185640D01*
X153595000Y-92143028D01*
X153595000Y-92135970D01*
X153506614Y-92146586D01*
X153506299Y-92143965D01*
X153449357Y-92141789D01*
X153443326Y-92139589D01*
X153437526Y-92137302D01*
X153426281Y-92135951D01*
X153347576Y-92126500D01*
X152952424Y-92126500D01*
X152907449Y-92131901D01*
X152862468Y-92137302D01*
X152855386Y-92139093D01*
X152794614Y-92139093D01*
X152787531Y-92137302D01*
X152746010Y-92132316D01*
X152697576Y-92126500D01*
X152302424Y-92126500D01*
X152257449Y-92131901D01*
X152212468Y-92137302D01*
X152205386Y-92139093D01*
X152144614Y-92139093D01*
X152137531Y-92137302D01*
X152096010Y-92132316D01*
X152047576Y-92126500D01*
X151652424Y-92126500D01*
X151607449Y-92131901D01*
X151562468Y-92137302D01*
X151555386Y-92139093D01*
X151494614Y-92139093D01*
X151487531Y-92137302D01*
X151446010Y-92132316D01*
X151397576Y-92126500D01*
X151002424Y-92126500D01*
X150957449Y-92131901D01*
X150912468Y-92137302D01*
X150905386Y-92139093D01*
X150844614Y-92139093D01*
X150837531Y-92137302D01*
X150796010Y-92132316D01*
X150747576Y-92126500D01*
X150352424Y-92126500D01*
X150352423Y-92126500D01*
X150262477Y-92137301D01*
X150262469Y-92137303D01*
X150119334Y-92193749D01*
X150119328Y-92193752D01*
X149996725Y-92286725D01*
X149903752Y-92409328D01*
X149903749Y-92409334D01*
X149847303Y-92552469D01*
X149847301Y-92552477D01*
X149836500Y-92642423D01*
X138643649Y-92642423D01*
X138633543Y-92526913D01*
X138574284Y-92305757D01*
X138566445Y-92288947D01*
X138522070Y-92193784D01*
X138477523Y-92098251D01*
X138346198Y-91910700D01*
X138184300Y-91748802D01*
X137996749Y-91617477D01*
X137996745Y-91617475D01*
X137789249Y-91520718D01*
X137789238Y-91520714D01*
X137568089Y-91461457D01*
X137568081Y-91461456D01*
X137340002Y-91441502D01*
X137339998Y-91441502D01*
X137111918Y-91461456D01*
X137111910Y-91461457D01*
X136890761Y-91520714D01*
X136890750Y-91520718D01*
X136683254Y-91617475D01*
X136683252Y-91617476D01*
X136683251Y-91617477D01*
X136495700Y-91748802D01*
X136495698Y-91748803D01*
X136495695Y-91748806D01*
X136333806Y-91910695D01*
X136202476Y-92098251D01*
X136182382Y-92141345D01*
X136136209Y-92193784D01*
X136069016Y-92212936D01*
X136002135Y-92192720D01*
X135957618Y-92141345D01*
X135937523Y-92098251D01*
X135913539Y-92063999D01*
X135806198Y-91910700D01*
X135644300Y-91748802D01*
X135456749Y-91617477D01*
X135456745Y-91617475D01*
X135249249Y-91520718D01*
X135249238Y-91520714D01*
X135028089Y-91461457D01*
X135028081Y-91461456D01*
X134800002Y-91441502D01*
X134799998Y-91441502D01*
X134571918Y-91461456D01*
X134571910Y-91461457D01*
X134350761Y-91520714D01*
X134350750Y-91520718D01*
X134143254Y-91617475D01*
X134143252Y-91617476D01*
X134143251Y-91617477D01*
X133955700Y-91748802D01*
X133955698Y-91748803D01*
X133955695Y-91748806D01*
X133793806Y-91910695D01*
X133662476Y-92098251D01*
X133642382Y-92141345D01*
X133596209Y-92193784D01*
X133529016Y-92212936D01*
X133462135Y-92192720D01*
X133417618Y-92141345D01*
X133397523Y-92098251D01*
X133373539Y-92063999D01*
X133266198Y-91910700D01*
X133104300Y-91748802D01*
X132916749Y-91617477D01*
X132916745Y-91617475D01*
X132709249Y-91520718D01*
X132709238Y-91520714D01*
X132488089Y-91461457D01*
X132488081Y-91461456D01*
X132260002Y-91441502D01*
X132259998Y-91441502D01*
X132031918Y-91461456D01*
X132031910Y-91461457D01*
X131810761Y-91520714D01*
X131810750Y-91520718D01*
X131603254Y-91617475D01*
X131603252Y-91617476D01*
X131603251Y-91617477D01*
X131415700Y-91748802D01*
X131415698Y-91748803D01*
X131415695Y-91748806D01*
X131253806Y-91910695D01*
X131122476Y-92098251D01*
X131102382Y-92141345D01*
X131056209Y-92193784D01*
X130989016Y-92212936D01*
X130922135Y-92192720D01*
X130877618Y-92141345D01*
X130857523Y-92098251D01*
X130833539Y-92063999D01*
X130726198Y-91910700D01*
X130564300Y-91748802D01*
X130376749Y-91617477D01*
X130376745Y-91617475D01*
X130169249Y-91520718D01*
X130169238Y-91520714D01*
X129948089Y-91461457D01*
X129948081Y-91461456D01*
X129720002Y-91441502D01*
X129719998Y-91441502D01*
X129491918Y-91461456D01*
X129491910Y-91461457D01*
X129270761Y-91520714D01*
X129270750Y-91520718D01*
X129063254Y-91617475D01*
X129063252Y-91617476D01*
X129063251Y-91617477D01*
X128875700Y-91748802D01*
X128875698Y-91748803D01*
X128875695Y-91748806D01*
X128713806Y-91910695D01*
X128582476Y-92098251D01*
X128562382Y-92141345D01*
X128516209Y-92193784D01*
X128449016Y-92212936D01*
X128382135Y-92192720D01*
X128337618Y-92141345D01*
X128317523Y-92098251D01*
X128293539Y-92063999D01*
X128186198Y-91910700D01*
X128024300Y-91748802D01*
X127836749Y-91617477D01*
X127836745Y-91617475D01*
X127629249Y-91520718D01*
X127629238Y-91520714D01*
X127408089Y-91461457D01*
X127408081Y-91461456D01*
X127180002Y-91441502D01*
X127179998Y-91441502D01*
X126951918Y-91461456D01*
X126951910Y-91461457D01*
X126730761Y-91520714D01*
X126730750Y-91520718D01*
X126523254Y-91617475D01*
X126523252Y-91617476D01*
X126523251Y-91617477D01*
X126335700Y-91748802D01*
X126335698Y-91748803D01*
X126335695Y-91748806D01*
X126173806Y-91910695D01*
X126042476Y-92098251D01*
X126022382Y-92141345D01*
X125976209Y-92193784D01*
X125909016Y-92212936D01*
X125842135Y-92192720D01*
X125797618Y-92141345D01*
X125777523Y-92098251D01*
X125753539Y-92063999D01*
X125646198Y-91910700D01*
X125484300Y-91748802D01*
X125296749Y-91617477D01*
X125296745Y-91617475D01*
X125089249Y-91520718D01*
X125089238Y-91520714D01*
X124868089Y-91461457D01*
X124868081Y-91461456D01*
X124640002Y-91441502D01*
X124639998Y-91441502D01*
X124411918Y-91461456D01*
X124411910Y-91461457D01*
X124190761Y-91520714D01*
X124190750Y-91520718D01*
X123983254Y-91617475D01*
X123983252Y-91617476D01*
X123983251Y-91617477D01*
X123795700Y-91748802D01*
X123795698Y-91748803D01*
X123795695Y-91748806D01*
X123633806Y-91910695D01*
X123502476Y-92098251D01*
X123482382Y-92141345D01*
X123436209Y-92193784D01*
X123369016Y-92212936D01*
X123302135Y-92192720D01*
X123257618Y-92141345D01*
X123237523Y-92098251D01*
X123213539Y-92063999D01*
X123106198Y-91910700D01*
X122944300Y-91748802D01*
X122756749Y-91617477D01*
X122756745Y-91617475D01*
X122549249Y-91520718D01*
X122549238Y-91520714D01*
X122328089Y-91461457D01*
X122328081Y-91461456D01*
X122100002Y-91441502D01*
X122099998Y-91441502D01*
X121871918Y-91461456D01*
X121871910Y-91461457D01*
X121650761Y-91520714D01*
X121650750Y-91520718D01*
X121443254Y-91617475D01*
X121443252Y-91617476D01*
X121443251Y-91617477D01*
X121255700Y-91748802D01*
X121255698Y-91748803D01*
X121255695Y-91748806D01*
X121093806Y-91910695D01*
X120962476Y-92098251D01*
X120942382Y-92141345D01*
X120896209Y-92193784D01*
X120829016Y-92212936D01*
X120762135Y-92192720D01*
X120717618Y-92141345D01*
X120697523Y-92098251D01*
X120673539Y-92063999D01*
X120566198Y-91910700D01*
X120404300Y-91748802D01*
X120216749Y-91617477D01*
X120216745Y-91617475D01*
X120009249Y-91520718D01*
X120009238Y-91520714D01*
X119788089Y-91461457D01*
X119788081Y-91461456D01*
X119560002Y-91441502D01*
X119559998Y-91441502D01*
X119331918Y-91461456D01*
X119331910Y-91461457D01*
X119110761Y-91520714D01*
X119110750Y-91520718D01*
X118903254Y-91617475D01*
X118903252Y-91617476D01*
X118903251Y-91617477D01*
X118715700Y-91748802D01*
X118715698Y-91748803D01*
X118715695Y-91748806D01*
X118553806Y-91910695D01*
X118422476Y-92098251D01*
X118402382Y-92141345D01*
X118356209Y-92193784D01*
X118289016Y-92212936D01*
X118222135Y-92192720D01*
X118177618Y-92141345D01*
X118157523Y-92098251D01*
X118133539Y-92063999D01*
X118026198Y-91910700D01*
X117864300Y-91748802D01*
X117676749Y-91617477D01*
X117676745Y-91617475D01*
X117469249Y-91520718D01*
X117469238Y-91520714D01*
X117248089Y-91461457D01*
X117248081Y-91461456D01*
X117020002Y-91441502D01*
X117019998Y-91441502D01*
X116791918Y-91461456D01*
X116791910Y-91461457D01*
X116570761Y-91520714D01*
X116570750Y-91520718D01*
X116363254Y-91617475D01*
X116363252Y-91617476D01*
X116363251Y-91617477D01*
X116175700Y-91748802D01*
X116175698Y-91748803D01*
X116175695Y-91748806D01*
X116013806Y-91910695D01*
X115882476Y-92098251D01*
X115862382Y-92141345D01*
X115816209Y-92193784D01*
X115749016Y-92212936D01*
X115682135Y-92192720D01*
X115637618Y-92141345D01*
X115617523Y-92098251D01*
X115593539Y-92063999D01*
X115486198Y-91910700D01*
X115324300Y-91748802D01*
X115136749Y-91617477D01*
X115136745Y-91617475D01*
X114929249Y-91520718D01*
X114929238Y-91520714D01*
X114708089Y-91461457D01*
X114708081Y-91461456D01*
X114480002Y-91441502D01*
X114479998Y-91441502D01*
X114251918Y-91461456D01*
X114251910Y-91461457D01*
X114030761Y-91520714D01*
X114030750Y-91520718D01*
X113823254Y-91617475D01*
X113823252Y-91617476D01*
X113823251Y-91617477D01*
X113635700Y-91748802D01*
X113635698Y-91748803D01*
X113635695Y-91748806D01*
X113473806Y-91910695D01*
X113342476Y-92098251D01*
X113322382Y-92141345D01*
X113276209Y-92193784D01*
X113209016Y-92212936D01*
X113142135Y-92192720D01*
X113097618Y-92141345D01*
X113077523Y-92098251D01*
X113053539Y-92063999D01*
X112946198Y-91910700D01*
X112784300Y-91748802D01*
X112596749Y-91617477D01*
X112596745Y-91617475D01*
X112389249Y-91520718D01*
X112389238Y-91520714D01*
X112168089Y-91461457D01*
X112168081Y-91461456D01*
X111940002Y-91441502D01*
X111939998Y-91441502D01*
X111711918Y-91461456D01*
X111711910Y-91461457D01*
X111490761Y-91520714D01*
X111490750Y-91520718D01*
X111283254Y-91617475D01*
X111283252Y-91617476D01*
X111283251Y-91617477D01*
X111095700Y-91748802D01*
X111095698Y-91748803D01*
X111095695Y-91748806D01*
X110933806Y-91910695D01*
X110802476Y-92098252D01*
X110802474Y-92098256D01*
X110777691Y-92151402D01*
X110731518Y-92203841D01*
X110664324Y-92222992D01*
X110597444Y-92202775D01*
X110552927Y-92151399D01*
X110530133Y-92102517D01*
X110399657Y-91916179D01*
X110238820Y-91755342D01*
X110052482Y-91624865D01*
X109846328Y-91528734D01*
X109650000Y-91476127D01*
X109650000Y-92321988D01*
X109592993Y-92289075D01*
X109465826Y-92255000D01*
X109334174Y-92255000D01*
X109207007Y-92289075D01*
X109150000Y-92321988D01*
X109150000Y-91476127D01*
X108953671Y-91528734D01*
X108747517Y-91624865D01*
X108561179Y-91755342D01*
X108400342Y-91916179D01*
X108269865Y-92102517D01*
X108247071Y-92151401D01*
X108200898Y-92203840D01*
X108133705Y-92222992D01*
X108066824Y-92202776D01*
X108022307Y-92151401D01*
X108015111Y-92135970D01*
X107997523Y-92098251D01*
X107866198Y-91910700D01*
X107704300Y-91748802D01*
X107516749Y-91617477D01*
X107516745Y-91617475D01*
X107309249Y-91520718D01*
X107309238Y-91520714D01*
X107088089Y-91461457D01*
X107088081Y-91461456D01*
X106860002Y-91441502D01*
X106859998Y-91441502D01*
X106631918Y-91461456D01*
X106631910Y-91461457D01*
X106410761Y-91520714D01*
X106410750Y-91520718D01*
X106203254Y-91617475D01*
X106203252Y-91617476D01*
X106203251Y-91617477D01*
X106015700Y-91748802D01*
X106015698Y-91748803D01*
X106015695Y-91748806D01*
X105853806Y-91910695D01*
X105722476Y-92098251D01*
X105702382Y-92141345D01*
X105656209Y-92193784D01*
X105589016Y-92212936D01*
X105522135Y-92192720D01*
X105477618Y-92141345D01*
X105457523Y-92098251D01*
X105433539Y-92063999D01*
X105326198Y-91910700D01*
X105164300Y-91748802D01*
X104976749Y-91617477D01*
X104976745Y-91617475D01*
X104769249Y-91520718D01*
X104769238Y-91520714D01*
X104548089Y-91461457D01*
X104548081Y-91461456D01*
X104320002Y-91441502D01*
X104319998Y-91441502D01*
X104091918Y-91461456D01*
X104091910Y-91461457D01*
X103870761Y-91520714D01*
X103870750Y-91520718D01*
X103663254Y-91617475D01*
X103663252Y-91617476D01*
X103663251Y-91617477D01*
X103475700Y-91748802D01*
X103475698Y-91748803D01*
X103475695Y-91748806D01*
X103313805Y-91910696D01*
X103308429Y-91918374D01*
X103253849Y-91961995D01*
X103184350Y-91969184D01*
X103121997Y-91937658D01*
X103086587Y-91877426D01*
X103083570Y-91860510D01*
X103081989Y-91845799D01*
X103030889Y-91708796D01*
X102943261Y-91591739D01*
X102826204Y-91504111D01*
X102689203Y-91453011D01*
X102628654Y-91446500D01*
X102628638Y-91446500D01*
X100931362Y-91446500D01*
X100931345Y-91446500D01*
X100870797Y-91453011D01*
X100870795Y-91453011D01*
X100733795Y-91504111D01*
X100616739Y-91591739D01*
X100529111Y-91708795D01*
X100478011Y-91845795D01*
X100478011Y-91845797D01*
X100471500Y-91906345D01*
X91050500Y-91906345D01*
X91050500Y-89999997D01*
X144736693Y-89999997D01*
X144736693Y-90000002D01*
X144754783Y-90206783D01*
X144755885Y-90219371D01*
X144812880Y-90432076D01*
X144812881Y-90432079D01*
X144812882Y-90432081D01*
X144841158Y-90492719D01*
X144905944Y-90631654D01*
X145032251Y-90812038D01*
X145187962Y-90967749D01*
X145368346Y-91094056D01*
X145567924Y-91187120D01*
X145780629Y-91244115D01*
X145937322Y-91257823D01*
X145999998Y-91263307D01*
X146000000Y-91263307D01*
X146000002Y-91263307D01*
X146054842Y-91258509D01*
X146219371Y-91244115D01*
X146432076Y-91187120D01*
X146631654Y-91094056D01*
X146765985Y-90999996D01*
X152686384Y-90999996D01*
X152686384Y-91000003D01*
X152706781Y-91181041D01*
X152706782Y-91181046D01*
X152735567Y-91263307D01*
X152766957Y-91353015D01*
X152863889Y-91507281D01*
X152992719Y-91636111D01*
X153146985Y-91733043D01*
X153318953Y-91793217D01*
X153318958Y-91793218D01*
X153499996Y-91813616D01*
X153500000Y-91813616D01*
X153500004Y-91813616D01*
X153681041Y-91793218D01*
X153681044Y-91793217D01*
X153681047Y-91793217D01*
X153853015Y-91733043D01*
X154007281Y-91636111D01*
X154136111Y-91507281D01*
X154233043Y-91353015D01*
X154293217Y-91181047D01*
X154300602Y-91115502D01*
X154313616Y-91000003D01*
X154313616Y-90999996D01*
X154293218Y-90818958D01*
X154293217Y-90818953D01*
X154270524Y-90754100D01*
X154233043Y-90646985D01*
X154136111Y-90492719D01*
X154007281Y-90363889D01*
X153894809Y-90293218D01*
X153853017Y-90266958D01*
X153853016Y-90266957D01*
X153853015Y-90266957D01*
X153798693Y-90247949D01*
X153681046Y-90206782D01*
X153681041Y-90206781D01*
X153500004Y-90186384D01*
X153499996Y-90186384D01*
X153318958Y-90206781D01*
X153318953Y-90206782D01*
X153146982Y-90266958D01*
X152992718Y-90363889D01*
X152863889Y-90492718D01*
X152766958Y-90646982D01*
X152706782Y-90818953D01*
X152706781Y-90818958D01*
X152686384Y-90999996D01*
X146765985Y-90999996D01*
X146812038Y-90967749D01*
X146967749Y-90812038D01*
X147094056Y-90631654D01*
X147187120Y-90432076D01*
X147244115Y-90219371D01*
X147263307Y-90000000D01*
X147244115Y-89780629D01*
X147187120Y-89567924D01*
X147155445Y-89499996D01*
X161686384Y-89499996D01*
X161686384Y-89500003D01*
X161706781Y-89681041D01*
X161706782Y-89681046D01*
X161722149Y-89724962D01*
X161766957Y-89853015D01*
X161863889Y-90007281D01*
X161992719Y-90136111D01*
X162146985Y-90233043D01*
X162318953Y-90293217D01*
X162318958Y-90293218D01*
X162499996Y-90313616D01*
X162500000Y-90313616D01*
X162500004Y-90313616D01*
X162681041Y-90293218D01*
X162681044Y-90293217D01*
X162681047Y-90293217D01*
X162853015Y-90233043D01*
X163007281Y-90136111D01*
X163136111Y-90007281D01*
X163233043Y-89853015D01*
X163293217Y-89681047D01*
X163305963Y-89567924D01*
X163310912Y-89523999D01*
X173338930Y-89523999D01*
X173338930Y-89524000D01*
X173359167Y-89742396D01*
X173419191Y-89953363D01*
X173516953Y-90149695D01*
X173516958Y-90149703D01*
X173579894Y-90233043D01*
X173649136Y-90324734D01*
X173811227Y-90472499D01*
X173997709Y-90587964D01*
X174202232Y-90667197D01*
X174228525Y-90672112D01*
X174290803Y-90703780D01*
X174326076Y-90764092D01*
X174323142Y-90833900D01*
X174282933Y-90891040D01*
X174228525Y-90915887D01*
X174202232Y-90920803D01*
X174145123Y-90942926D01*
X173997709Y-91000035D01*
X173997707Y-91000036D01*
X173811225Y-91115502D01*
X173649137Y-91263264D01*
X173516958Y-91438296D01*
X173516953Y-91438304D01*
X173419191Y-91634636D01*
X173359167Y-91845603D01*
X173338930Y-92063999D01*
X173338930Y-92064000D01*
X173359167Y-92282396D01*
X173419191Y-92493363D01*
X173516953Y-92689695D01*
X173516958Y-92689703D01*
X173566269Y-92755001D01*
X173649136Y-92864734D01*
X173811227Y-93012499D01*
X173997709Y-93127964D01*
X174134285Y-93180874D01*
X174189685Y-93223446D01*
X174213276Y-93289213D01*
X174197565Y-93357293D01*
X174147541Y-93406072D01*
X174089490Y-93420500D01*
X173803845Y-93420500D01*
X173743297Y-93427011D01*
X173743295Y-93427011D01*
X173606295Y-93478111D01*
X173489239Y-93565739D01*
X173401611Y-93682795D01*
X173350511Y-93819795D01*
X173350511Y-93819797D01*
X173344000Y-93880345D01*
X173344000Y-95327654D01*
X173350511Y-95388202D01*
X173350511Y-95388204D01*
X173387264Y-95486739D01*
X173401611Y-95525204D01*
X173489239Y-95642261D01*
X173606296Y-95729889D01*
X173743299Y-95780989D01*
X173770550Y-95783918D01*
X173803845Y-95787499D01*
X173803862Y-95787500D01*
X175251138Y-95787500D01*
X175251154Y-95787499D01*
X175278192Y-95784591D01*
X175311701Y-95780989D01*
X175448704Y-95729889D01*
X175565761Y-95642261D01*
X175653389Y-95525204D01*
X175704489Y-95388201D01*
X175709622Y-95340459D01*
X175710999Y-95327654D01*
X175711000Y-95327637D01*
X175711000Y-95049987D01*
X175730685Y-94982948D01*
X175783489Y-94937193D01*
X175852647Y-94927249D01*
X175916203Y-94956274D01*
X175953977Y-95015052D01*
X175954267Y-95016055D01*
X175959190Y-95033361D01*
X175959191Y-95033362D01*
X176056953Y-95229695D01*
X176056958Y-95229703D01*
X176130915Y-95327637D01*
X176189136Y-95404734D01*
X176351227Y-95552499D01*
X176537709Y-95667964D01*
X176742232Y-95747197D01*
X176957833Y-95787500D01*
X176957835Y-95787500D01*
X177177165Y-95787500D01*
X177177167Y-95787500D01*
X177392768Y-95747197D01*
X177597291Y-95667964D01*
X177783773Y-95552499D01*
X177945864Y-95404734D01*
X178078043Y-95229701D01*
X178079256Y-95227266D01*
X178175808Y-95033363D01*
X178175807Y-95033363D01*
X178175809Y-95033361D01*
X178235832Y-94822399D01*
X178256070Y-94604000D01*
X178250718Y-94546249D01*
X178235832Y-94385603D01*
X178235832Y-94385601D01*
X178175809Y-94174639D01*
X178175808Y-94174636D01*
X178078046Y-93978304D01*
X178078041Y-93978296D01*
X177958349Y-93819799D01*
X177945864Y-93803266D01*
X177899717Y-93761198D01*
X177793320Y-93664204D01*
X177783773Y-93655501D01*
X177693007Y-93599301D01*
X177597292Y-93540036D01*
X177597290Y-93540035D01*
X177506984Y-93505050D01*
X177392768Y-93460803D01*
X177366474Y-93455887D01*
X177304196Y-93424221D01*
X177268923Y-93363908D01*
X177271857Y-93294100D01*
X177312066Y-93236960D01*
X177366474Y-93212112D01*
X177392768Y-93207197D01*
X177597291Y-93127964D01*
X177783773Y-93012499D01*
X177945864Y-92864734D01*
X178078043Y-92689701D01*
X178175809Y-92493361D01*
X178235832Y-92282399D01*
X178256070Y-92064000D01*
X178235832Y-91845601D01*
X178175809Y-91634639D01*
X178175808Y-91634636D01*
X178078046Y-91438304D01*
X178078041Y-91438296D01*
X178013639Y-91353015D01*
X177945864Y-91263266D01*
X177783773Y-91115501D01*
X177712757Y-91071529D01*
X177597292Y-91000036D01*
X177597290Y-91000035D01*
X177506984Y-90965050D01*
X177392768Y-90920803D01*
X177366474Y-90915887D01*
X177304196Y-90884221D01*
X177268923Y-90823908D01*
X177271857Y-90754100D01*
X177312066Y-90696960D01*
X177366474Y-90672112D01*
X177392768Y-90667197D01*
X177597291Y-90587964D01*
X177783773Y-90472499D01*
X177945864Y-90324734D01*
X178078043Y-90149701D01*
X178175809Y-89953361D01*
X178235832Y-89742399D01*
X178256070Y-89524000D01*
X178235832Y-89305601D01*
X178175809Y-89094639D01*
X178144744Y-89032252D01*
X178078046Y-88898304D01*
X178078041Y-88898296D01*
X177996207Y-88789931D01*
X177945864Y-88723266D01*
X177934904Y-88713275D01*
X177800414Y-88590671D01*
X177783773Y-88575501D01*
X177712757Y-88531529D01*
X177597292Y-88460036D01*
X177597290Y-88460035D01*
X177526695Y-88432687D01*
X177392768Y-88380803D01*
X177177167Y-88340500D01*
X176957833Y-88340500D01*
X176742232Y-88380803D01*
X176685123Y-88402926D01*
X176537709Y-88460035D01*
X176537707Y-88460036D01*
X176351225Y-88575502D01*
X176189137Y-88723264D01*
X176056958Y-88898296D01*
X176056953Y-88898304D01*
X175959191Y-89094636D01*
X175916767Y-89243747D01*
X175879488Y-89302841D01*
X175816178Y-89332399D01*
X175746939Y-89323037D01*
X175693752Y-89277728D01*
X175678233Y-89243747D01*
X175662362Y-89187967D01*
X175635809Y-89094639D01*
X175604744Y-89032252D01*
X175538046Y-88898304D01*
X175538041Y-88898296D01*
X175456207Y-88789931D01*
X175405864Y-88723266D01*
X175394904Y-88713275D01*
X175260414Y-88590671D01*
X175243773Y-88575501D01*
X175172757Y-88531529D01*
X175057292Y-88460036D01*
X175057290Y-88460035D01*
X174986695Y-88432687D01*
X174852768Y-88380803D01*
X174637167Y-88340500D01*
X174417833Y-88340500D01*
X174202232Y-88380803D01*
X174145123Y-88402926D01*
X173997709Y-88460035D01*
X173997707Y-88460036D01*
X173811225Y-88575502D01*
X173649137Y-88723264D01*
X173516958Y-88898296D01*
X173516953Y-88898304D01*
X173419191Y-89094636D01*
X173359167Y-89305603D01*
X173338930Y-89523999D01*
X163310912Y-89523999D01*
X163313616Y-89500003D01*
X163313616Y-89499996D01*
X163293218Y-89318958D01*
X163293217Y-89318953D01*
X163266901Y-89243747D01*
X163233043Y-89146985D01*
X163136111Y-88992719D01*
X163007281Y-88863889D01*
X162981865Y-88847919D01*
X162853017Y-88766958D01*
X162853016Y-88766957D01*
X162853015Y-88766957D01*
X162798693Y-88747949D01*
X162681046Y-88706782D01*
X162681041Y-88706781D01*
X162500004Y-88686384D01*
X162499996Y-88686384D01*
X162318958Y-88706781D01*
X162318953Y-88706782D01*
X162146982Y-88766958D01*
X161992718Y-88863889D01*
X161863889Y-88992718D01*
X161766958Y-89146982D01*
X161706782Y-89318953D01*
X161706781Y-89318958D01*
X161686384Y-89499996D01*
X147155445Y-89499996D01*
X147094056Y-89368347D01*
X147094054Y-89368344D01*
X147094053Y-89368342D01*
X147006810Y-89243747D01*
X146967749Y-89187962D01*
X146812038Y-89032251D01*
X146631654Y-88905944D01*
X146541762Y-88864027D01*
X146432081Y-88812882D01*
X146432079Y-88812881D01*
X146432076Y-88812880D01*
X146280777Y-88772339D01*
X146219372Y-88755885D01*
X146219365Y-88755884D01*
X146000002Y-88736693D01*
X145999998Y-88736693D01*
X145780634Y-88755884D01*
X145780627Y-88755885D01*
X145567920Y-88812881D01*
X145368346Y-88905944D01*
X145368342Y-88905946D01*
X145187967Y-89032247D01*
X145187960Y-89032252D01*
X145032252Y-89187960D01*
X145032247Y-89187967D01*
X144905946Y-89368342D01*
X144905944Y-89368346D01*
X144812881Y-89567920D01*
X144755885Y-89780627D01*
X144755884Y-89780634D01*
X144736693Y-89999997D01*
X91050500Y-89999997D01*
X91050500Y-86903089D01*
X149845000Y-86903089D01*
X149845000Y-87425000D01*
X150362500Y-87425000D01*
X150429539Y-87444685D01*
X150475294Y-87497489D01*
X150486500Y-87549000D01*
X150486500Y-87711000D01*
X150466815Y-87778039D01*
X150414011Y-87823794D01*
X150362500Y-87835000D01*
X149845000Y-87835000D01*
X149845000Y-88356910D01*
X149855637Y-88445492D01*
X149911230Y-88586465D01*
X150002792Y-88707207D01*
X150123534Y-88798769D01*
X150264508Y-88854362D01*
X150345000Y-88864027D01*
X150345000Y-88684126D01*
X150364685Y-88617087D01*
X150417489Y-88571332D01*
X150486647Y-88561388D01*
X150550203Y-88590413D01*
X150567804Y-88609201D01*
X150646721Y-88713271D01*
X150646722Y-88713272D01*
X150646725Y-88713275D01*
X150705926Y-88758168D01*
X150747448Y-88814357D01*
X150755000Y-88856970D01*
X150755000Y-88864027D01*
X150843389Y-88853414D01*
X150843704Y-88856039D01*
X150900616Y-88858202D01*
X150906676Y-88860411D01*
X150907931Y-88860906D01*
X150912469Y-88862696D01*
X150912475Y-88862698D01*
X150972441Y-88869899D01*
X151002423Y-88873500D01*
X151002424Y-88873500D01*
X151397577Y-88873500D01*
X151477607Y-88863889D01*
X151487525Y-88862698D01*
X151493317Y-88860413D01*
X151556455Y-88854712D01*
X151556611Y-88853414D01*
X151562715Y-88854146D01*
X151562903Y-88854130D01*
X151563278Y-88854214D01*
X151645000Y-88864027D01*
X151645000Y-88856970D01*
X151664685Y-88789931D01*
X151694071Y-88758170D01*
X151753275Y-88713275D01*
X151832196Y-88609201D01*
X151888388Y-88567678D01*
X151958109Y-88563126D01*
X152019223Y-88596990D01*
X152052327Y-88658520D01*
X152055000Y-88684126D01*
X152055000Y-88864027D01*
X152135499Y-88854361D01*
X152143204Y-88852414D01*
X152143966Y-88855429D01*
X152199025Y-88850426D01*
X152206726Y-88852687D01*
X152206796Y-88852414D01*
X152214500Y-88854361D01*
X152295000Y-88864027D01*
X152295000Y-88684126D01*
X152314685Y-88617087D01*
X152367489Y-88571332D01*
X152436647Y-88561388D01*
X152500203Y-88590413D01*
X152517804Y-88609201D01*
X152596721Y-88713271D01*
X152596722Y-88713272D01*
X152596725Y-88713275D01*
X152655926Y-88758168D01*
X152697448Y-88814357D01*
X152705000Y-88856970D01*
X152705000Y-88864027D01*
X152793389Y-88853414D01*
X152793704Y-88856039D01*
X152850616Y-88858202D01*
X152856676Y-88860411D01*
X152857931Y-88860906D01*
X152862469Y-88862696D01*
X152862475Y-88862698D01*
X152922441Y-88869899D01*
X152952423Y-88873500D01*
X152952424Y-88873500D01*
X153347577Y-88873500D01*
X153362567Y-88871699D01*
X153437525Y-88862698D01*
X153437533Y-88862694D01*
X153444612Y-88860906D01*
X153505388Y-88860906D01*
X153512467Y-88862695D01*
X153512475Y-88862698D01*
X153584434Y-88871339D01*
X153602423Y-88873500D01*
X153602424Y-88873500D01*
X153997577Y-88873500D01*
X154012567Y-88871699D01*
X154087525Y-88862698D01*
X154087533Y-88862694D01*
X154094612Y-88860906D01*
X154155388Y-88860906D01*
X154162467Y-88862695D01*
X154162475Y-88862698D01*
X154234434Y-88871339D01*
X154252423Y-88873500D01*
X154252424Y-88873500D01*
X154647577Y-88873500D01*
X154670063Y-88870799D01*
X154737525Y-88862698D01*
X154880669Y-88806249D01*
X155003275Y-88713275D01*
X155096249Y-88590669D01*
X155152698Y-88447525D01*
X155163500Y-88357576D01*
X155163500Y-86902424D01*
X155152698Y-86812475D01*
X155096249Y-86669331D01*
X155003275Y-86546725D01*
X154930351Y-86491426D01*
X154880671Y-86453752D01*
X154880665Y-86453749D01*
X154737530Y-86397303D01*
X154737522Y-86397301D01*
X154647577Y-86386500D01*
X154647576Y-86386500D01*
X154252424Y-86386500D01*
X154207449Y-86391901D01*
X154162468Y-86397302D01*
X154155386Y-86399093D01*
X154094614Y-86399093D01*
X154087531Y-86397302D01*
X154046010Y-86392316D01*
X153997576Y-86386500D01*
X153602424Y-86386500D01*
X153557449Y-86391901D01*
X153512468Y-86397302D01*
X153505386Y-86399093D01*
X153444614Y-86399093D01*
X153437531Y-86397302D01*
X153396010Y-86392316D01*
X153347576Y-86386500D01*
X152952424Y-86386500D01*
X152862475Y-86397302D01*
X152862471Y-86397302D01*
X152856674Y-86399589D01*
X152793542Y-86405285D01*
X152793386Y-86406586D01*
X152787270Y-86405851D01*
X152787087Y-86405868D01*
X152786720Y-86405785D01*
X152705000Y-86395970D01*
X152705000Y-86403028D01*
X152685315Y-86470067D01*
X152655925Y-86501832D01*
X152596729Y-86546721D01*
X152596724Y-86546726D01*
X152517804Y-86650798D01*
X152461611Y-86692322D01*
X152391890Y-86696873D01*
X152330776Y-86663008D01*
X152297672Y-86601478D01*
X152295000Y-86575873D01*
X152295000Y-86395970D01*
X152214508Y-86405637D01*
X152206796Y-86407587D01*
X152206039Y-86404592D01*
X152150842Y-86409547D01*
X152143270Y-86407323D01*
X152143204Y-86407587D01*
X152135491Y-86405637D01*
X152055000Y-86395970D01*
X152055000Y-86575873D01*
X152035315Y-86642912D01*
X151982511Y-86688667D01*
X151913353Y-86698611D01*
X151849797Y-86669586D01*
X151832196Y-86650798D01*
X151775378Y-86575873D01*
X151753275Y-86546725D01*
X151753270Y-86546721D01*
X151694075Y-86501832D01*
X151652552Y-86445640D01*
X151645000Y-86403028D01*
X151645000Y-86395970D01*
X151556614Y-86406586D01*
X151556299Y-86403965D01*
X151499357Y-86401789D01*
X151493326Y-86399589D01*
X151487526Y-86397302D01*
X151476281Y-86395951D01*
X151397576Y-86386500D01*
X151002424Y-86386500D01*
X150912475Y-86397302D01*
X150912471Y-86397302D01*
X150906674Y-86399589D01*
X150843542Y-86405285D01*
X150843386Y-86406586D01*
X150837270Y-86405851D01*
X150837087Y-86405868D01*
X150836720Y-86405785D01*
X150755000Y-86395970D01*
X150755000Y-86403028D01*
X150735315Y-86470067D01*
X150705925Y-86501832D01*
X150646729Y-86546721D01*
X150646724Y-86546726D01*
X150567804Y-86650798D01*
X150511611Y-86692322D01*
X150441890Y-86696873D01*
X150380776Y-86663008D01*
X150347672Y-86601478D01*
X150345000Y-86575873D01*
X150345000Y-86395970D01*
X150264508Y-86405637D01*
X150264507Y-86405637D01*
X150123534Y-86461230D01*
X150002792Y-86552792D01*
X149911230Y-86673534D01*
X149855637Y-86814507D01*
X149845000Y-86903089D01*
X91050500Y-86903089D01*
X91050500Y-82999999D01*
X98870180Y-82999999D01*
X98870180Y-83000000D01*
X98889416Y-83207603D01*
X98889417Y-83207605D01*
X98946472Y-83408133D01*
X98946478Y-83408148D01*
X99039406Y-83594771D01*
X99039409Y-83594776D01*
X99044684Y-83601760D01*
X99044685Y-83601760D01*
X99625000Y-83021446D01*
X99625000Y-83049370D01*
X99650556Y-83144745D01*
X99699925Y-83230255D01*
X99769745Y-83300075D01*
X99855255Y-83349444D01*
X99950630Y-83375000D01*
X99978553Y-83375000D01*
X99401151Y-83952399D01*
X99496394Y-84011372D01*
X99496396Y-84011373D01*
X99690802Y-84086686D01*
X99690812Y-84086689D01*
X99895756Y-84125000D01*
X100104244Y-84125000D01*
X100309187Y-84086689D01*
X100309197Y-84086686D01*
X100503603Y-84011373D01*
X100503607Y-84011371D01*
X100598846Y-83952400D01*
X100598846Y-83952399D01*
X100021448Y-83375000D01*
X100049370Y-83375000D01*
X100144745Y-83349444D01*
X100230255Y-83300075D01*
X100300075Y-83230255D01*
X100349444Y-83144745D01*
X100375000Y-83049370D01*
X100375000Y-83021448D01*
X100955313Y-83601761D01*
X100955313Y-83601760D01*
X100960593Y-83594771D01*
X101053521Y-83408148D01*
X101053527Y-83408133D01*
X101110582Y-83207605D01*
X101110583Y-83207603D01*
X101129820Y-83000000D01*
X103861644Y-83000000D01*
X103881026Y-83209167D01*
X103881026Y-83209169D01*
X103881027Y-83209172D01*
X103938515Y-83411222D01*
X103938516Y-83411225D01*
X104029911Y-83594771D01*
X104032150Y-83599267D01*
X104158745Y-83766905D01*
X104313987Y-83908428D01*
X104313989Y-83908429D01*
X104313990Y-83908430D01*
X104492587Y-84019013D01*
X104492593Y-84019016D01*
X104534090Y-84035091D01*
X104688474Y-84094900D01*
X104894966Y-84133500D01*
X104894968Y-84133500D01*
X105105032Y-84133500D01*
X105105034Y-84133500D01*
X105311526Y-84094900D01*
X105507409Y-84019015D01*
X105686013Y-83908428D01*
X105841255Y-83766905D01*
X105967850Y-83599267D01*
X106061485Y-83411222D01*
X106118973Y-83209172D01*
X106138356Y-83000000D01*
X106118973Y-82790828D01*
X106061485Y-82588778D01*
X105967850Y-82400733D01*
X105841255Y-82233095D01*
X105686013Y-82091572D01*
X105686010Y-82091570D01*
X105686009Y-82091569D01*
X105507412Y-81980986D01*
X105507406Y-81980983D01*
X105332726Y-81913313D01*
X105311526Y-81905100D01*
X105105034Y-81866500D01*
X104894966Y-81866500D01*
X104688474Y-81905100D01*
X104688471Y-81905100D01*
X104688471Y-81905101D01*
X104492593Y-81980983D01*
X104492587Y-81980986D01*
X104313990Y-82091569D01*
X104158744Y-82233095D01*
X104032150Y-82400732D01*
X103938516Y-82588774D01*
X103881026Y-82790832D01*
X103861644Y-83000000D01*
X101129820Y-83000000D01*
X101129820Y-82999999D01*
X101110583Y-82792396D01*
X101110582Y-82792394D01*
X101053527Y-82591866D01*
X101053521Y-82591851D01*
X100960593Y-82405227D01*
X100955313Y-82398238D01*
X100375000Y-82978551D01*
X100375000Y-82950630D01*
X100349444Y-82855255D01*
X100300075Y-82769745D01*
X100230255Y-82699925D01*
X100144745Y-82650556D01*
X100049370Y-82625000D01*
X100021448Y-82625000D01*
X100598847Y-82047599D01*
X100503602Y-81988626D01*
X100503601Y-81988625D01*
X100309197Y-81913313D01*
X100309187Y-81913310D01*
X100104244Y-81875000D01*
X99895756Y-81875000D01*
X99690812Y-81913310D01*
X99690811Y-81913310D01*
X99496398Y-81988625D01*
X99496392Y-81988629D01*
X99401152Y-82047598D01*
X99401151Y-82047599D01*
X99978553Y-82625000D01*
X99950630Y-82625000D01*
X99855255Y-82650556D01*
X99769745Y-82699925D01*
X99699925Y-82769745D01*
X99650556Y-82855255D01*
X99625000Y-82950630D01*
X99625000Y-82978552D01*
X99044685Y-82398237D01*
X99039412Y-82405219D01*
X99039404Y-82405232D01*
X98946478Y-82591851D01*
X98946472Y-82591866D01*
X98889417Y-82792394D01*
X98889416Y-82792396D01*
X98870180Y-82999999D01*
X91050500Y-82999999D01*
X91050500Y-77514998D01*
X100466502Y-77514998D01*
X100466502Y-77515001D01*
X100486456Y-77743081D01*
X100486457Y-77743089D01*
X100545714Y-77964238D01*
X100545718Y-77964249D01*
X100617692Y-78118597D01*
X100642477Y-78171749D01*
X100773802Y-78359300D01*
X100935700Y-78521198D01*
X101123251Y-78652523D01*
X101248091Y-78710736D01*
X101330750Y-78749281D01*
X101330752Y-78749281D01*
X101330757Y-78749284D01*
X101551913Y-78808543D01*
X101714832Y-78822796D01*
X101779998Y-78828498D01*
X101780000Y-78828498D01*
X101780002Y-78828498D01*
X101839013Y-78823335D01*
X102008087Y-78808543D01*
X102229243Y-78749284D01*
X102436749Y-78652523D01*
X102624300Y-78521198D01*
X102786198Y-78359300D01*
X102917523Y-78171749D01*
X102942307Y-78118598D01*
X102988479Y-78066159D01*
X103055672Y-78047007D01*
X103122553Y-78067222D01*
X103167071Y-78118599D01*
X103189864Y-78167479D01*
X103189865Y-78167481D01*
X103320342Y-78353820D01*
X103481179Y-78514657D01*
X103667517Y-78645134D01*
X103873673Y-78741265D01*
X103873682Y-78741269D01*
X104069999Y-78793872D01*
X104070000Y-78793871D01*
X104070000Y-77948012D01*
X104127007Y-77980925D01*
X104254174Y-78015000D01*
X104385826Y-78015000D01*
X104512993Y-77980925D01*
X104570000Y-77948012D01*
X104570000Y-78793872D01*
X104766317Y-78741269D01*
X104766326Y-78741265D01*
X104972482Y-78645134D01*
X105158820Y-78514657D01*
X105319657Y-78353820D01*
X105450133Y-78167483D01*
X105472927Y-78118600D01*
X105519098Y-78066160D01*
X105586292Y-78047007D01*
X105653173Y-78067221D01*
X105697691Y-78118596D01*
X105722477Y-78171749D01*
X105853802Y-78359300D01*
X106015700Y-78521198D01*
X106203251Y-78652523D01*
X106328091Y-78710736D01*
X106410750Y-78749281D01*
X106410752Y-78749281D01*
X106410757Y-78749284D01*
X106631913Y-78808543D01*
X106794832Y-78822796D01*
X106859998Y-78828498D01*
X106860000Y-78828498D01*
X106860002Y-78828498D01*
X106919013Y-78823335D01*
X107088087Y-78808543D01*
X107309243Y-78749284D01*
X107516749Y-78652523D01*
X107704300Y-78521198D01*
X107866198Y-78359300D01*
X107997523Y-78171749D01*
X108017618Y-78128655D01*
X108063790Y-78076215D01*
X108130983Y-78057063D01*
X108197864Y-78077278D01*
X108242382Y-78128655D01*
X108262477Y-78171749D01*
X108393802Y-78359300D01*
X108555700Y-78521198D01*
X108743251Y-78652523D01*
X108868091Y-78710736D01*
X108950750Y-78749281D01*
X108950752Y-78749281D01*
X108950757Y-78749284D01*
X109171913Y-78808543D01*
X109334832Y-78822796D01*
X109399998Y-78828498D01*
X109400000Y-78828498D01*
X109400002Y-78828498D01*
X109459013Y-78823335D01*
X109628087Y-78808543D01*
X109849243Y-78749284D01*
X110056749Y-78652523D01*
X110244300Y-78521198D01*
X110406198Y-78359300D01*
X110537523Y-78171749D01*
X110557618Y-78128655D01*
X110603790Y-78076215D01*
X110670983Y-78057063D01*
X110737864Y-78077278D01*
X110782382Y-78128655D01*
X110802477Y-78171749D01*
X110933802Y-78359300D01*
X111095700Y-78521198D01*
X111283251Y-78652523D01*
X111408091Y-78710736D01*
X111490750Y-78749281D01*
X111490752Y-78749281D01*
X111490757Y-78749284D01*
X111711913Y-78808543D01*
X111874832Y-78822796D01*
X111939998Y-78828498D01*
X111940000Y-78828498D01*
X111940002Y-78828498D01*
X111999013Y-78823335D01*
X112168087Y-78808543D01*
X112389243Y-78749284D01*
X112596749Y-78652523D01*
X112784300Y-78521198D01*
X112946198Y-78359300D01*
X113077523Y-78171749D01*
X113097618Y-78128655D01*
X113143790Y-78076215D01*
X113210983Y-78057063D01*
X113277864Y-78077278D01*
X113322382Y-78128655D01*
X113342477Y-78171749D01*
X113473802Y-78359300D01*
X113635700Y-78521198D01*
X113823251Y-78652523D01*
X113948091Y-78710736D01*
X114030750Y-78749281D01*
X114030752Y-78749281D01*
X114030757Y-78749284D01*
X114251913Y-78808543D01*
X114414832Y-78822796D01*
X114479998Y-78828498D01*
X114480000Y-78828498D01*
X114480002Y-78828498D01*
X114539013Y-78823335D01*
X114708087Y-78808543D01*
X114929243Y-78749284D01*
X115136749Y-78652523D01*
X115324300Y-78521198D01*
X115486198Y-78359300D01*
X115617523Y-78171749D01*
X115637618Y-78128655D01*
X115683790Y-78076215D01*
X115750983Y-78057063D01*
X115817864Y-78077278D01*
X115862382Y-78128655D01*
X115882477Y-78171749D01*
X116013802Y-78359300D01*
X116175700Y-78521198D01*
X116363251Y-78652523D01*
X116488091Y-78710736D01*
X116570750Y-78749281D01*
X116570752Y-78749281D01*
X116570757Y-78749284D01*
X116791913Y-78808543D01*
X116954832Y-78822796D01*
X117019998Y-78828498D01*
X117020000Y-78828498D01*
X117020002Y-78828498D01*
X117079013Y-78823335D01*
X117248087Y-78808543D01*
X117469243Y-78749284D01*
X117676749Y-78652523D01*
X117864300Y-78521198D01*
X118026198Y-78359300D01*
X118157523Y-78171749D01*
X118177618Y-78128655D01*
X118223790Y-78076215D01*
X118290983Y-78057063D01*
X118357864Y-78077278D01*
X118402382Y-78128655D01*
X118422477Y-78171749D01*
X118553802Y-78359300D01*
X118715700Y-78521198D01*
X118903251Y-78652523D01*
X119028091Y-78710736D01*
X119110750Y-78749281D01*
X119110752Y-78749281D01*
X119110757Y-78749284D01*
X119331913Y-78808543D01*
X119494832Y-78822796D01*
X119559998Y-78828498D01*
X119560000Y-78828498D01*
X119560002Y-78828498D01*
X119619013Y-78823335D01*
X119788087Y-78808543D01*
X120009243Y-78749284D01*
X120216749Y-78652523D01*
X120404300Y-78521198D01*
X120566198Y-78359300D01*
X120697523Y-78171749D01*
X120717618Y-78128655D01*
X120763790Y-78076215D01*
X120830983Y-78057063D01*
X120897864Y-78077278D01*
X120942382Y-78128655D01*
X120962477Y-78171749D01*
X121093802Y-78359300D01*
X121255700Y-78521198D01*
X121443251Y-78652523D01*
X121568091Y-78710736D01*
X121650750Y-78749281D01*
X121650752Y-78749281D01*
X121650757Y-78749284D01*
X121871913Y-78808543D01*
X122034832Y-78822796D01*
X122099998Y-78828498D01*
X122100000Y-78828498D01*
X122100002Y-78828498D01*
X122159013Y-78823335D01*
X122328087Y-78808543D01*
X122549243Y-78749284D01*
X122756749Y-78652523D01*
X122944300Y-78521198D01*
X123106198Y-78359300D01*
X123237523Y-78171749D01*
X123257618Y-78128655D01*
X123303790Y-78076215D01*
X123370983Y-78057063D01*
X123437864Y-78077278D01*
X123482382Y-78128655D01*
X123502477Y-78171749D01*
X123633802Y-78359300D01*
X123795700Y-78521198D01*
X123983251Y-78652523D01*
X124108091Y-78710736D01*
X124190750Y-78749281D01*
X124190752Y-78749281D01*
X124190757Y-78749284D01*
X124411913Y-78808543D01*
X124574832Y-78822796D01*
X124639998Y-78828498D01*
X124640000Y-78828498D01*
X124640002Y-78828498D01*
X124699013Y-78823335D01*
X124868087Y-78808543D01*
X125089243Y-78749284D01*
X125296749Y-78652523D01*
X125484300Y-78521198D01*
X125646198Y-78359300D01*
X125777523Y-78171749D01*
X125797618Y-78128655D01*
X125843790Y-78076215D01*
X125910983Y-78057063D01*
X125977864Y-78077278D01*
X126022382Y-78128655D01*
X126042477Y-78171749D01*
X126173802Y-78359300D01*
X126335700Y-78521198D01*
X126523251Y-78652523D01*
X126648091Y-78710736D01*
X126730750Y-78749281D01*
X126730752Y-78749281D01*
X126730757Y-78749284D01*
X126951913Y-78808543D01*
X127114832Y-78822796D01*
X127179998Y-78828498D01*
X127180000Y-78828498D01*
X127180002Y-78828498D01*
X127239013Y-78823335D01*
X127408087Y-78808543D01*
X127629243Y-78749284D01*
X127836749Y-78652523D01*
X128024300Y-78521198D01*
X128186198Y-78359300D01*
X128317523Y-78171749D01*
X128337618Y-78128655D01*
X128383790Y-78076215D01*
X128450983Y-78057063D01*
X128517864Y-78077278D01*
X128562382Y-78128655D01*
X128582477Y-78171749D01*
X128713802Y-78359300D01*
X128875700Y-78521198D01*
X129063251Y-78652523D01*
X129188091Y-78710736D01*
X129270750Y-78749281D01*
X129270752Y-78749281D01*
X129270757Y-78749284D01*
X129491913Y-78808543D01*
X129654832Y-78822796D01*
X129719998Y-78828498D01*
X129720000Y-78828498D01*
X129720002Y-78828498D01*
X129779013Y-78823335D01*
X129948087Y-78808543D01*
X130169243Y-78749284D01*
X130376749Y-78652523D01*
X130564300Y-78521198D01*
X130726198Y-78359300D01*
X130857523Y-78171749D01*
X130877618Y-78128655D01*
X130923790Y-78076215D01*
X130990983Y-78057063D01*
X131057864Y-78077278D01*
X131102382Y-78128655D01*
X131122477Y-78171749D01*
X131253802Y-78359300D01*
X131415700Y-78521198D01*
X131603251Y-78652523D01*
X131728091Y-78710736D01*
X131810750Y-78749281D01*
X131810752Y-78749281D01*
X131810757Y-78749284D01*
X132031913Y-78808543D01*
X132194832Y-78822796D01*
X132259998Y-78828498D01*
X132259999Y-78828498D01*
X132259999Y-78828497D01*
X132260000Y-78828498D01*
X132282902Y-78826494D01*
X132351401Y-78840260D01*
X132401585Y-78888874D01*
X132417519Y-78956903D01*
X132394145Y-79022747D01*
X132381391Y-79037703D01*
X130088915Y-81330181D01*
X130027592Y-81363666D01*
X130001234Y-81366500D01*
X129937602Y-81366500D01*
X129815219Y-81390843D01*
X129815214Y-81390845D01*
X129781448Y-81404829D01*
X129781449Y-81404830D01*
X129699926Y-81438598D01*
X129699922Y-81438600D01*
X129596171Y-81507924D01*
X129596163Y-81507930D01*
X128937942Y-82166151D01*
X128876619Y-82199636D01*
X128864148Y-82201690D01*
X128818953Y-82206783D01*
X128646983Y-82266957D01*
X128492718Y-82363889D01*
X128363889Y-82492718D01*
X128266958Y-82646982D01*
X128206782Y-82818953D01*
X128206781Y-82818958D01*
X128186384Y-82999996D01*
X128186384Y-83000003D01*
X128206781Y-83181041D01*
X128206782Y-83181046D01*
X128247949Y-83298693D01*
X128266957Y-83353015D01*
X128363889Y-83507281D01*
X128492719Y-83636111D01*
X128646985Y-83733043D01*
X128818953Y-83793217D01*
X128818958Y-83793218D01*
X128999996Y-83813616D01*
X129000000Y-83813616D01*
X129000004Y-83813616D01*
X129181041Y-83793218D01*
X129181044Y-83793217D01*
X129181047Y-83793217D01*
X129353015Y-83733043D01*
X129507281Y-83636111D01*
X129636111Y-83507281D01*
X129733043Y-83353015D01*
X129793217Y-83181047D01*
X129798309Y-83135850D01*
X129825374Y-83071440D01*
X129833838Y-83062065D01*
X130226086Y-82669819D01*
X130287409Y-82636334D01*
X130313767Y-82633500D01*
X130377395Y-82633500D01*
X130377396Y-82633499D01*
X130499785Y-82609155D01*
X130615075Y-82561400D01*
X130718833Y-82492071D01*
X132409558Y-80801345D01*
X156741500Y-80801345D01*
X156741500Y-87198654D01*
X156748011Y-87259202D01*
X156748011Y-87259204D01*
X156783002Y-87353015D01*
X156799111Y-87396204D01*
X156886739Y-87513261D01*
X157003796Y-87600889D01*
X157140799Y-87651989D01*
X157168050Y-87654918D01*
X157201345Y-87658499D01*
X157201362Y-87658500D01*
X163492627Y-87658500D01*
X163558600Y-87677507D01*
X163646982Y-87733041D01*
X163646980Y-87733041D01*
X163646984Y-87733042D01*
X163646985Y-87733043D01*
X163731200Y-87762511D01*
X163818953Y-87793217D01*
X163818958Y-87793218D01*
X163999996Y-87813616D01*
X164000000Y-87813616D01*
X164000004Y-87813616D01*
X164181041Y-87793218D01*
X164181044Y-87793217D01*
X164181047Y-87793217D01*
X164353015Y-87733043D01*
X164507281Y-87636111D01*
X164636111Y-87507281D01*
X164733043Y-87353015D01*
X164793217Y-87181047D01*
X164799393Y-87126239D01*
X164799463Y-87125614D01*
X164826529Y-87061200D01*
X164884123Y-87021645D01*
X164953960Y-87019506D01*
X165013867Y-87055464D01*
X165044823Y-87118102D01*
X165045972Y-87126239D01*
X165048011Y-87145203D01*
X165048011Y-87145204D01*
X165090532Y-87259204D01*
X165099111Y-87282204D01*
X165186739Y-87399261D01*
X165303796Y-87486889D01*
X165440799Y-87537989D01*
X165468050Y-87540918D01*
X165501345Y-87544499D01*
X165501362Y-87544500D01*
X168498638Y-87544500D01*
X168498654Y-87544499D01*
X168525692Y-87541591D01*
X168559201Y-87537989D01*
X168696204Y-87486889D01*
X168813261Y-87399261D01*
X168900889Y-87282204D01*
X168951989Y-87145201D01*
X168955591Y-87111692D01*
X168958499Y-87084654D01*
X168958500Y-87084637D01*
X168958500Y-85487362D01*
X168958499Y-85487345D01*
X168955157Y-85456270D01*
X168951989Y-85426799D01*
X168900889Y-85289796D01*
X168813261Y-85172739D01*
X168696204Y-85085111D01*
X168559203Y-85034011D01*
X168498654Y-85027500D01*
X168498638Y-85027500D01*
X165501362Y-85027500D01*
X165501345Y-85027500D01*
X165440797Y-85034011D01*
X165440795Y-85034011D01*
X165303795Y-85085111D01*
X165186739Y-85172739D01*
X165099111Y-85289795D01*
X165048011Y-85426795D01*
X165048011Y-85426797D01*
X165041500Y-85487345D01*
X165041500Y-86814498D01*
X165021815Y-86881537D01*
X164969011Y-86927292D01*
X164899853Y-86937236D01*
X164836297Y-86908211D01*
X164798523Y-86849433D01*
X164794280Y-86828382D01*
X164793218Y-86818957D01*
X164793217Y-86818953D01*
X164790948Y-86812469D01*
X164733043Y-86646985D01*
X164636111Y-86492719D01*
X164507281Y-86363889D01*
X164353017Y-86266958D01*
X164353018Y-86266958D01*
X164351473Y-86266417D01*
X164341542Y-86262942D01*
X164284768Y-86222220D01*
X164259022Y-86157266D01*
X164258500Y-86145902D01*
X164258500Y-80915345D01*
X165041500Y-80915345D01*
X165041500Y-82512654D01*
X165048011Y-82573202D01*
X165048011Y-82573204D01*
X165075530Y-82646982D01*
X165099111Y-82710204D01*
X165186739Y-82827261D01*
X165303796Y-82914889D01*
X165440799Y-82965989D01*
X165468050Y-82968918D01*
X165501345Y-82972499D01*
X165501362Y-82972500D01*
X168498638Y-82972500D01*
X168498654Y-82972499D01*
X168525692Y-82969591D01*
X168559201Y-82965989D01*
X168696204Y-82914889D01*
X168813261Y-82827261D01*
X168900889Y-82710204D01*
X168951989Y-82573201D01*
X168955591Y-82539692D01*
X168958499Y-82512654D01*
X168958500Y-82512637D01*
X168958500Y-80915362D01*
X168958499Y-80915345D01*
X168955157Y-80884270D01*
X168951989Y-80854799D01*
X168932051Y-80801345D01*
X168929522Y-80794564D01*
X168900889Y-80717796D01*
X168813261Y-80600739D01*
X168696204Y-80513111D01*
X168559203Y-80462011D01*
X168498654Y-80455500D01*
X168498638Y-80455500D01*
X165501362Y-80455500D01*
X165501345Y-80455500D01*
X165440797Y-80462011D01*
X165440795Y-80462011D01*
X165303795Y-80513111D01*
X165186739Y-80600739D01*
X165099111Y-80717795D01*
X165048011Y-80854795D01*
X165048011Y-80854797D01*
X165041500Y-80915345D01*
X164258500Y-80915345D01*
X164258500Y-80801362D01*
X164258499Y-80801345D01*
X164255157Y-80770270D01*
X164251989Y-80740799D01*
X164243409Y-80717796D01*
X164229522Y-80680564D01*
X164200889Y-80603796D01*
X164113261Y-80486739D01*
X163996204Y-80399111D01*
X163859203Y-80348011D01*
X163798654Y-80341500D01*
X163798638Y-80341500D01*
X157201362Y-80341500D01*
X157201345Y-80341500D01*
X157140797Y-80348011D01*
X157140795Y-80348011D01*
X157003795Y-80399111D01*
X156886739Y-80486739D01*
X156799111Y-80603795D01*
X156748011Y-80740795D01*
X156748011Y-80740797D01*
X156741500Y-80801345D01*
X132409558Y-80801345D01*
X134387569Y-78823333D01*
X134448890Y-78789850D01*
X134507341Y-78791241D01*
X134525979Y-78796234D01*
X134571913Y-78808543D01*
X134734832Y-78822796D01*
X134799998Y-78828498D01*
X134800000Y-78828498D01*
X134800002Y-78828498D01*
X134859013Y-78823335D01*
X135028087Y-78808543D01*
X135249243Y-78749284D01*
X135456749Y-78652523D01*
X135644300Y-78521198D01*
X135806198Y-78359300D01*
X135937523Y-78171749D01*
X135957618Y-78128655D01*
X136003790Y-78076215D01*
X136070983Y-78057063D01*
X136137864Y-78077278D01*
X136182382Y-78128655D01*
X136202477Y-78171749D01*
X136333802Y-78359300D01*
X136495700Y-78521198D01*
X136683251Y-78652523D01*
X136808091Y-78710736D01*
X136890750Y-78749281D01*
X136890752Y-78749281D01*
X136890757Y-78749284D01*
X137111913Y-78808543D01*
X137274832Y-78822796D01*
X137339998Y-78828498D01*
X137340000Y-78828498D01*
X137340002Y-78828498D01*
X137399013Y-78823335D01*
X137568087Y-78808543D01*
X137789243Y-78749284D01*
X137996749Y-78652523D01*
X138184300Y-78521198D01*
X138346198Y-78359300D01*
X138477523Y-78171749D01*
X138574284Y-77964243D01*
X138633543Y-77743087D01*
X138653498Y-77515000D01*
X138633543Y-77286913D01*
X138574284Y-77065757D01*
X138477523Y-76858251D01*
X138346198Y-76670700D01*
X138184300Y-76508802D01*
X137996749Y-76377477D01*
X137996745Y-76377475D01*
X137789249Y-76280718D01*
X137789238Y-76280714D01*
X137568089Y-76221457D01*
X137568081Y-76221456D01*
X137340002Y-76201502D01*
X137339998Y-76201502D01*
X137111918Y-76221456D01*
X137111910Y-76221457D01*
X136890761Y-76280714D01*
X136890750Y-76280718D01*
X136683254Y-76377475D01*
X136683252Y-76377476D01*
X136683251Y-76377477D01*
X136495700Y-76508802D01*
X136495698Y-76508803D01*
X136495695Y-76508806D01*
X136333806Y-76670695D01*
X136202476Y-76858251D01*
X136182382Y-76901345D01*
X136136209Y-76953784D01*
X136069016Y-76972936D01*
X136002135Y-76952720D01*
X135957618Y-76901345D01*
X135937523Y-76858251D01*
X135806198Y-76670700D01*
X135644300Y-76508802D01*
X135456749Y-76377477D01*
X135456745Y-76377475D01*
X135249249Y-76280718D01*
X135249238Y-76280714D01*
X135028089Y-76221457D01*
X135028081Y-76221456D01*
X134800002Y-76201502D01*
X134799998Y-76201502D01*
X134571918Y-76221456D01*
X134571910Y-76221457D01*
X134350761Y-76280714D01*
X134350750Y-76280718D01*
X134143254Y-76377475D01*
X134143252Y-76377476D01*
X134143251Y-76377477D01*
X133955700Y-76508802D01*
X133955698Y-76508803D01*
X133955695Y-76508806D01*
X133793806Y-76670695D01*
X133662476Y-76858251D01*
X133642382Y-76901345D01*
X133596209Y-76953784D01*
X133529016Y-76972936D01*
X133462135Y-76952720D01*
X133417618Y-76901345D01*
X133397523Y-76858251D01*
X133266198Y-76670700D01*
X133104300Y-76508802D01*
X132916749Y-76377477D01*
X132916745Y-76377475D01*
X132709249Y-76280718D01*
X132709238Y-76280714D01*
X132488089Y-76221457D01*
X132488081Y-76221456D01*
X132260002Y-76201502D01*
X132259998Y-76201502D01*
X132031918Y-76221456D01*
X132031910Y-76221457D01*
X131810761Y-76280714D01*
X131810750Y-76280718D01*
X131603254Y-76377475D01*
X131603252Y-76377476D01*
X131603251Y-76377477D01*
X131415700Y-76508802D01*
X131415698Y-76508803D01*
X131415695Y-76508806D01*
X131253806Y-76670695D01*
X131122476Y-76858251D01*
X131102382Y-76901345D01*
X131056209Y-76953784D01*
X130989016Y-76972936D01*
X130922135Y-76952720D01*
X130877618Y-76901345D01*
X130857523Y-76858251D01*
X130726198Y-76670700D01*
X130564300Y-76508802D01*
X130376749Y-76377477D01*
X130376745Y-76377475D01*
X130169249Y-76280718D01*
X130169238Y-76280714D01*
X129948089Y-76221457D01*
X129948081Y-76221456D01*
X129720002Y-76201502D01*
X129719998Y-76201502D01*
X129491918Y-76221456D01*
X129491910Y-76221457D01*
X129270761Y-76280714D01*
X129270750Y-76280718D01*
X129063254Y-76377475D01*
X129063252Y-76377476D01*
X129063251Y-76377477D01*
X128875700Y-76508802D01*
X128875698Y-76508803D01*
X128875695Y-76508806D01*
X128713806Y-76670695D01*
X128582476Y-76858251D01*
X128562382Y-76901345D01*
X128516209Y-76953784D01*
X128449016Y-76972936D01*
X128382135Y-76952720D01*
X128337618Y-76901345D01*
X128317523Y-76858251D01*
X128186198Y-76670700D01*
X128024300Y-76508802D01*
X127836749Y-76377477D01*
X127836745Y-76377475D01*
X127629249Y-76280718D01*
X127629238Y-76280714D01*
X127408089Y-76221457D01*
X127408081Y-76221456D01*
X127180002Y-76201502D01*
X127179998Y-76201502D01*
X126951918Y-76221456D01*
X126951910Y-76221457D01*
X126730761Y-76280714D01*
X126730750Y-76280718D01*
X126523254Y-76377475D01*
X126523252Y-76377476D01*
X126523251Y-76377477D01*
X126335700Y-76508802D01*
X126335698Y-76508803D01*
X126335695Y-76508806D01*
X126173806Y-76670695D01*
X126042476Y-76858251D01*
X126022382Y-76901345D01*
X125976209Y-76953784D01*
X125909016Y-76972936D01*
X125842135Y-76952720D01*
X125797618Y-76901345D01*
X125777523Y-76858251D01*
X125646198Y-76670700D01*
X125484300Y-76508802D01*
X125296749Y-76377477D01*
X125296745Y-76377475D01*
X125089249Y-76280718D01*
X125089238Y-76280714D01*
X124868089Y-76221457D01*
X124868081Y-76221456D01*
X124640002Y-76201502D01*
X124639998Y-76201502D01*
X124411918Y-76221456D01*
X124411910Y-76221457D01*
X124190761Y-76280714D01*
X124190750Y-76280718D01*
X123983254Y-76377475D01*
X123983252Y-76377476D01*
X123983251Y-76377477D01*
X123795700Y-76508802D01*
X123795698Y-76508803D01*
X123795695Y-76508806D01*
X123633806Y-76670695D01*
X123502476Y-76858251D01*
X123482382Y-76901345D01*
X123436209Y-76953784D01*
X123369016Y-76972936D01*
X123302135Y-76952720D01*
X123257618Y-76901345D01*
X123237523Y-76858251D01*
X123106198Y-76670700D01*
X122944300Y-76508802D01*
X122756749Y-76377477D01*
X122756745Y-76377475D01*
X122549249Y-76280718D01*
X122549238Y-76280714D01*
X122328089Y-76221457D01*
X122328081Y-76221456D01*
X122100002Y-76201502D01*
X122099998Y-76201502D01*
X121871918Y-76221456D01*
X121871910Y-76221457D01*
X121650761Y-76280714D01*
X121650750Y-76280718D01*
X121443254Y-76377475D01*
X121443252Y-76377476D01*
X121443251Y-76377477D01*
X121255700Y-76508802D01*
X121255698Y-76508803D01*
X121255695Y-76508806D01*
X121093806Y-76670695D01*
X120962476Y-76858251D01*
X120942382Y-76901345D01*
X120896209Y-76953784D01*
X120829016Y-76972936D01*
X120762135Y-76952720D01*
X120717618Y-76901345D01*
X120697523Y-76858251D01*
X120566198Y-76670700D01*
X120404300Y-76508802D01*
X120216749Y-76377477D01*
X120216745Y-76377475D01*
X120009249Y-76280718D01*
X120009238Y-76280714D01*
X119788089Y-76221457D01*
X119788081Y-76221456D01*
X119560002Y-76201502D01*
X119559998Y-76201502D01*
X119331918Y-76221456D01*
X119331910Y-76221457D01*
X119110761Y-76280714D01*
X119110750Y-76280718D01*
X118903254Y-76377475D01*
X118903252Y-76377476D01*
X118903251Y-76377477D01*
X118715700Y-76508802D01*
X118715698Y-76508803D01*
X118715695Y-76508806D01*
X118553806Y-76670695D01*
X118422476Y-76858251D01*
X118402382Y-76901345D01*
X118356209Y-76953784D01*
X118289016Y-76972936D01*
X118222135Y-76952720D01*
X118177618Y-76901345D01*
X118157523Y-76858251D01*
X118026198Y-76670700D01*
X117864300Y-76508802D01*
X117676749Y-76377477D01*
X117676745Y-76377475D01*
X117469249Y-76280718D01*
X117469238Y-76280714D01*
X117248089Y-76221457D01*
X117248081Y-76221456D01*
X117020002Y-76201502D01*
X117019998Y-76201502D01*
X116791918Y-76221456D01*
X116791910Y-76221457D01*
X116570761Y-76280714D01*
X116570750Y-76280718D01*
X116363254Y-76377475D01*
X116363252Y-76377476D01*
X116363251Y-76377477D01*
X116175700Y-76508802D01*
X116175698Y-76508803D01*
X116175695Y-76508806D01*
X116013806Y-76670695D01*
X115882476Y-76858251D01*
X115862382Y-76901345D01*
X115816209Y-76953784D01*
X115749016Y-76972936D01*
X115682135Y-76952720D01*
X115637618Y-76901345D01*
X115617523Y-76858251D01*
X115486198Y-76670700D01*
X115324300Y-76508802D01*
X115136749Y-76377477D01*
X115136745Y-76377475D01*
X114929249Y-76280718D01*
X114929238Y-76280714D01*
X114708089Y-76221457D01*
X114708081Y-76221456D01*
X114480002Y-76201502D01*
X114479998Y-76201502D01*
X114251918Y-76221456D01*
X114251910Y-76221457D01*
X114030761Y-76280714D01*
X114030750Y-76280718D01*
X113823254Y-76377475D01*
X113823252Y-76377476D01*
X113823251Y-76377477D01*
X113635700Y-76508802D01*
X113635698Y-76508803D01*
X113635695Y-76508806D01*
X113473806Y-76670695D01*
X113342476Y-76858251D01*
X113322382Y-76901345D01*
X113276209Y-76953784D01*
X113209016Y-76972936D01*
X113142135Y-76952720D01*
X113097618Y-76901345D01*
X113077523Y-76858251D01*
X112946198Y-76670700D01*
X112784300Y-76508802D01*
X112596749Y-76377477D01*
X112596745Y-76377475D01*
X112389249Y-76280718D01*
X112389238Y-76280714D01*
X112168089Y-76221457D01*
X112168081Y-76221456D01*
X111940002Y-76201502D01*
X111939998Y-76201502D01*
X111711918Y-76221456D01*
X111711910Y-76221457D01*
X111490761Y-76280714D01*
X111490750Y-76280718D01*
X111283254Y-76377475D01*
X111283252Y-76377476D01*
X111283251Y-76377477D01*
X111095700Y-76508802D01*
X111095698Y-76508803D01*
X111095695Y-76508806D01*
X110933806Y-76670695D01*
X110802476Y-76858251D01*
X110782382Y-76901345D01*
X110736209Y-76953784D01*
X110669016Y-76972936D01*
X110602135Y-76952720D01*
X110557618Y-76901345D01*
X110537523Y-76858251D01*
X110406198Y-76670700D01*
X110244300Y-76508802D01*
X110056749Y-76377477D01*
X110056745Y-76377475D01*
X109849249Y-76280718D01*
X109849238Y-76280714D01*
X109628089Y-76221457D01*
X109628081Y-76221456D01*
X109400002Y-76201502D01*
X109399998Y-76201502D01*
X109171918Y-76221456D01*
X109171910Y-76221457D01*
X108950761Y-76280714D01*
X108950750Y-76280718D01*
X108743254Y-76377475D01*
X108743252Y-76377476D01*
X108743251Y-76377477D01*
X108555700Y-76508802D01*
X108555698Y-76508803D01*
X108555695Y-76508806D01*
X108393806Y-76670695D01*
X108262476Y-76858251D01*
X108242382Y-76901345D01*
X108196209Y-76953784D01*
X108129016Y-76972936D01*
X108062135Y-76952720D01*
X108017618Y-76901345D01*
X107997523Y-76858251D01*
X107866198Y-76670700D01*
X107704300Y-76508802D01*
X107516749Y-76377477D01*
X107516745Y-76377475D01*
X107309249Y-76280718D01*
X107309238Y-76280714D01*
X107088089Y-76221457D01*
X107088081Y-76221456D01*
X106860002Y-76201502D01*
X106859998Y-76201502D01*
X106631918Y-76221456D01*
X106631910Y-76221457D01*
X106410761Y-76280714D01*
X106410750Y-76280718D01*
X106203254Y-76377475D01*
X106203252Y-76377476D01*
X106203251Y-76377477D01*
X106015700Y-76508802D01*
X106015698Y-76508803D01*
X106015695Y-76508806D01*
X105853806Y-76670695D01*
X105722476Y-76858252D01*
X105722474Y-76858256D01*
X105697691Y-76911402D01*
X105651518Y-76963841D01*
X105584324Y-76982992D01*
X105517444Y-76962775D01*
X105472927Y-76911399D01*
X105450133Y-76862517D01*
X105319657Y-76676179D01*
X105158820Y-76515342D01*
X104972482Y-76384865D01*
X104766328Y-76288734D01*
X104570000Y-76236127D01*
X104570000Y-77081988D01*
X104512993Y-77049075D01*
X104385826Y-77015000D01*
X104254174Y-77015000D01*
X104127007Y-77049075D01*
X104070000Y-77081988D01*
X104070000Y-76236127D01*
X103873671Y-76288734D01*
X103667517Y-76384865D01*
X103481179Y-76515342D01*
X103320342Y-76676179D01*
X103189865Y-76862517D01*
X103167071Y-76911401D01*
X103120898Y-76963840D01*
X103053705Y-76982992D01*
X102986824Y-76962776D01*
X102942307Y-76911401D01*
X102917523Y-76858251D01*
X102786198Y-76670700D01*
X102624300Y-76508802D01*
X102436749Y-76377477D01*
X102436745Y-76377475D01*
X102229249Y-76280718D01*
X102229238Y-76280714D01*
X102008089Y-76221457D01*
X102008081Y-76221456D01*
X101780002Y-76201502D01*
X101779998Y-76201502D01*
X101551918Y-76221456D01*
X101551910Y-76221457D01*
X101330761Y-76280714D01*
X101330750Y-76280718D01*
X101123254Y-76377475D01*
X101123252Y-76377476D01*
X101123251Y-76377477D01*
X100935700Y-76508802D01*
X100935698Y-76508803D01*
X100935695Y-76508806D01*
X100773806Y-76670695D01*
X100642476Y-76858252D01*
X100642475Y-76858254D01*
X100545718Y-77065750D01*
X100545714Y-77065761D01*
X100486457Y-77286910D01*
X100486456Y-77286918D01*
X100466502Y-77514998D01*
X91050500Y-77514998D01*
X91050500Y-73499999D01*
X93745225Y-73499999D01*
X93745225Y-73500000D01*
X93764287Y-73717884D01*
X93764289Y-73717894D01*
X93820894Y-73929150D01*
X93820898Y-73929159D01*
X93913333Y-74127387D01*
X93956874Y-74189571D01*
X94517037Y-73629408D01*
X94534075Y-73692993D01*
X94599901Y-73807007D01*
X94692993Y-73900099D01*
X94807007Y-73965925D01*
X94870590Y-73982962D01*
X94310427Y-74543124D01*
X94372612Y-74586666D01*
X94570840Y-74679101D01*
X94570849Y-74679105D01*
X94782105Y-74735710D01*
X94782115Y-74735712D01*
X94999999Y-74754775D01*
X95000001Y-74754775D01*
X95217884Y-74735712D01*
X95217894Y-74735710D01*
X95429150Y-74679105D01*
X95429164Y-74679100D01*
X95627383Y-74586669D01*
X95627385Y-74586668D01*
X95689571Y-74543124D01*
X95129410Y-73982962D01*
X95192993Y-73965925D01*
X95307007Y-73900099D01*
X95400099Y-73807007D01*
X95465925Y-73692993D01*
X95482962Y-73629409D01*
X96043124Y-74189570D01*
X96086668Y-74127385D01*
X96086669Y-74127383D01*
X96179100Y-73929164D01*
X96179105Y-73929150D01*
X96235710Y-73717894D01*
X96235712Y-73717884D01*
X96254775Y-73500000D01*
X96254775Y-73499999D01*
X96235712Y-73282115D01*
X96235710Y-73282105D01*
X96179105Y-73070849D01*
X96179101Y-73070840D01*
X96086667Y-72872614D01*
X96086666Y-72872612D01*
X96043124Y-72810428D01*
X96043124Y-72810427D01*
X95482962Y-73370589D01*
X95465925Y-73307007D01*
X95400099Y-73192993D01*
X95307007Y-73099901D01*
X95192993Y-73034075D01*
X95129409Y-73017037D01*
X95689571Y-72456874D01*
X95627387Y-72413333D01*
X95429159Y-72320898D01*
X95429150Y-72320894D01*
X95217894Y-72264289D01*
X95217884Y-72264287D01*
X95000001Y-72245225D01*
X94999999Y-72245225D01*
X94782115Y-72264287D01*
X94782105Y-72264289D01*
X94570849Y-72320894D01*
X94570840Y-72320898D01*
X94372613Y-72413333D01*
X94310428Y-72456874D01*
X94870591Y-73017037D01*
X94807007Y-73034075D01*
X94692993Y-73099901D01*
X94599901Y-73192993D01*
X94534075Y-73307007D01*
X94517037Y-73370591D01*
X93956874Y-72810428D01*
X93913333Y-72872613D01*
X93820898Y-73070840D01*
X93820894Y-73070849D01*
X93764289Y-73282105D01*
X93764287Y-73282115D01*
X93745225Y-73499999D01*
X91050500Y-73499999D01*
X91050500Y-70801345D01*
X157716500Y-70801345D01*
X157716500Y-77198654D01*
X157723011Y-77259202D01*
X157723011Y-77259204D01*
X157774111Y-77396204D01*
X157861739Y-77513261D01*
X157978796Y-77600889D01*
X158115799Y-77651989D01*
X158143050Y-77654918D01*
X158176345Y-77658499D01*
X158176362Y-77658500D01*
X164773638Y-77658500D01*
X164773654Y-77658499D01*
X164800692Y-77655591D01*
X164834201Y-77651989D01*
X164971204Y-77600889D01*
X165088261Y-77513261D01*
X165175889Y-77396204D01*
X165226989Y-77259201D01*
X165230591Y-77225692D01*
X165233499Y-77198654D01*
X165233500Y-77198637D01*
X165233500Y-75487345D01*
X166016500Y-75487345D01*
X166016500Y-77084654D01*
X166023011Y-77145202D01*
X166023011Y-77145204D01*
X166065532Y-77259204D01*
X166074111Y-77282204D01*
X166161739Y-77399261D01*
X166278796Y-77486889D01*
X166415799Y-77537989D01*
X166443050Y-77540918D01*
X166476345Y-77544499D01*
X166476362Y-77544500D01*
X169473638Y-77544500D01*
X169473654Y-77544499D01*
X169500692Y-77541591D01*
X169534201Y-77537989D01*
X169671204Y-77486889D01*
X169788261Y-77399261D01*
X169875889Y-77282204D01*
X169926989Y-77145201D01*
X169930591Y-77111692D01*
X169933499Y-77084654D01*
X169933500Y-77084637D01*
X169933500Y-75487362D01*
X169933499Y-75487345D01*
X169930157Y-75456270D01*
X169926989Y-75426799D01*
X169875889Y-75289796D01*
X169788261Y-75172739D01*
X169671204Y-75085111D01*
X169534203Y-75034011D01*
X169473654Y-75027500D01*
X169473638Y-75027500D01*
X166476362Y-75027500D01*
X166476345Y-75027500D01*
X166415797Y-75034011D01*
X166415795Y-75034011D01*
X166278795Y-75085111D01*
X166161739Y-75172739D01*
X166074111Y-75289795D01*
X166023011Y-75426795D01*
X166023011Y-75426797D01*
X166016500Y-75487345D01*
X165233500Y-75487345D01*
X165233500Y-70915345D01*
X166016500Y-70915345D01*
X166016500Y-72512654D01*
X166023011Y-72573202D01*
X166023011Y-72573204D01*
X166074111Y-72710204D01*
X166161739Y-72827261D01*
X166278796Y-72914889D01*
X166415799Y-72965989D01*
X166443050Y-72968918D01*
X166476345Y-72972499D01*
X166476362Y-72972500D01*
X169473638Y-72972500D01*
X169473654Y-72972499D01*
X169500692Y-72969591D01*
X169534201Y-72965989D01*
X169671204Y-72914889D01*
X169788261Y-72827261D01*
X169875889Y-72710204D01*
X169926989Y-72573201D01*
X169930591Y-72539692D01*
X169933499Y-72512654D01*
X169933500Y-72512637D01*
X169933500Y-71499996D01*
X174686384Y-71499996D01*
X174686384Y-71500003D01*
X174706781Y-71681041D01*
X174706782Y-71681046D01*
X174747949Y-71798693D01*
X174766957Y-71853015D01*
X174863889Y-72007281D01*
X174992719Y-72136111D01*
X175146985Y-72233043D01*
X175318953Y-72293217D01*
X175318958Y-72293218D01*
X175499996Y-72313616D01*
X175500000Y-72313616D01*
X175500004Y-72313616D01*
X175681041Y-72293218D01*
X175681044Y-72293217D01*
X175681047Y-72293217D01*
X175853015Y-72233043D01*
X176007281Y-72136111D01*
X176136111Y-72007281D01*
X176233043Y-71853015D01*
X176293217Y-71681047D01*
X176313616Y-71500000D01*
X176293217Y-71318953D01*
X176233043Y-71146985D01*
X176136111Y-70992719D01*
X176007281Y-70863889D01*
X175853015Y-70766957D01*
X175798693Y-70747949D01*
X175681046Y-70706782D01*
X175681041Y-70706781D01*
X175500004Y-70686384D01*
X175499996Y-70686384D01*
X175318958Y-70706781D01*
X175318953Y-70706782D01*
X175146982Y-70766958D01*
X174992718Y-70863889D01*
X174863889Y-70992718D01*
X174766958Y-71146982D01*
X174706782Y-71318953D01*
X174706781Y-71318958D01*
X174686384Y-71499996D01*
X169933500Y-71499996D01*
X169933500Y-70915362D01*
X169933499Y-70915345D01*
X169927966Y-70863889D01*
X169926989Y-70854799D01*
X169907051Y-70801345D01*
X169904522Y-70794564D01*
X169875889Y-70717796D01*
X169788261Y-70600739D01*
X169671204Y-70513111D01*
X169534203Y-70462011D01*
X169473654Y-70455500D01*
X169473638Y-70455500D01*
X166476362Y-70455500D01*
X166476345Y-70455500D01*
X166415797Y-70462011D01*
X166415795Y-70462011D01*
X166278795Y-70513111D01*
X166161739Y-70600739D01*
X166074111Y-70717795D01*
X166023011Y-70854795D01*
X166023011Y-70854797D01*
X166016500Y-70915345D01*
X165233500Y-70915345D01*
X165233500Y-70801362D01*
X165233499Y-70801345D01*
X165229801Y-70766957D01*
X165226989Y-70740799D01*
X165218409Y-70717796D01*
X165204522Y-70680564D01*
X165175889Y-70603796D01*
X165088261Y-70486739D01*
X164971204Y-70399111D01*
X164834203Y-70348011D01*
X164773654Y-70341500D01*
X164773638Y-70341500D01*
X158176362Y-70341500D01*
X158176345Y-70341500D01*
X158115797Y-70348011D01*
X158115795Y-70348011D01*
X157978795Y-70399111D01*
X157861739Y-70486739D01*
X157774111Y-70603795D01*
X157723011Y-70740795D01*
X157723011Y-70740797D01*
X157716500Y-70801345D01*
X91050500Y-70801345D01*
X91050500Y-63750000D01*
X111699016Y-63750000D01*
X112491988Y-63750000D01*
X112459075Y-63807007D01*
X112425000Y-63934174D01*
X112425000Y-64065826D01*
X112459075Y-64192993D01*
X112491988Y-64250000D01*
X111699016Y-64250000D01*
X111705781Y-64292716D01*
X111766581Y-64479837D01*
X111855904Y-64655143D01*
X111971555Y-64814321D01*
X112110678Y-64953444D01*
X112269856Y-65069095D01*
X112445164Y-65158418D01*
X112632294Y-65219221D01*
X112826618Y-65250000D01*
X114750000Y-65250000D01*
X114750000Y-64500000D01*
X115250000Y-64500000D01*
X115250000Y-65250000D01*
X117173382Y-65250000D01*
X117367705Y-65219221D01*
X117554835Y-65158418D01*
X117730143Y-65069095D01*
X117889321Y-64953444D01*
X118028444Y-64814321D01*
X118144095Y-64655143D01*
X118233418Y-64479837D01*
X118294218Y-64292716D01*
X118300984Y-64250000D01*
X117508012Y-64250000D01*
X117540925Y-64192993D01*
X117575000Y-64065826D01*
X117575000Y-63934174D01*
X117540925Y-63807007D01*
X117508012Y-63750000D01*
X118300984Y-63750000D01*
X118294218Y-63707283D01*
X118233418Y-63520162D01*
X118144095Y-63344856D01*
X118028444Y-63185678D01*
X117889321Y-63046555D01*
X117730143Y-62930904D01*
X117554835Y-62841581D01*
X117367705Y-62780778D01*
X117173382Y-62750000D01*
X115250000Y-62750000D01*
X115250000Y-63500000D01*
X114750000Y-63500000D01*
X114750000Y-62750000D01*
X112826618Y-62750000D01*
X112632294Y-62780778D01*
X112445164Y-62841581D01*
X112269856Y-62930904D01*
X112110678Y-63046555D01*
X111971555Y-63185678D01*
X111855904Y-63344856D01*
X111766581Y-63520162D01*
X111705781Y-63707283D01*
X111699016Y-63750000D01*
X91050500Y-63750000D01*
X91050500Y-60432499D01*
X154335430Y-60432499D01*
X154335430Y-60432500D01*
X154355667Y-60650896D01*
X154415691Y-60861863D01*
X154513453Y-61058195D01*
X154513458Y-61058203D01*
X154602783Y-61176487D01*
X154645636Y-61233234D01*
X154807727Y-61380999D01*
X154994209Y-61496464D01*
X155198732Y-61575697D01*
X155225025Y-61580612D01*
X155287303Y-61612280D01*
X155322576Y-61672592D01*
X155319642Y-61742400D01*
X155279433Y-61799540D01*
X155225025Y-61824387D01*
X155198732Y-61829303D01*
X155154055Y-61846611D01*
X154994209Y-61908535D01*
X154994207Y-61908536D01*
X154807725Y-62024002D01*
X154645637Y-62171764D01*
X154513458Y-62346796D01*
X154513453Y-62346804D01*
X154415691Y-62543136D01*
X154355667Y-62754103D01*
X154335430Y-62972499D01*
X154335430Y-62972500D01*
X154355667Y-63190896D01*
X154415691Y-63401863D01*
X154513453Y-63598195D01*
X154513458Y-63598203D01*
X154585041Y-63692993D01*
X154645636Y-63773234D01*
X154807727Y-63920999D01*
X154994209Y-64036464D01*
X155198732Y-64115697D01*
X155414333Y-64156000D01*
X155414335Y-64156000D01*
X155633665Y-64156000D01*
X155633667Y-64156000D01*
X155849268Y-64115697D01*
X156053791Y-64036464D01*
X156240273Y-63920999D01*
X156402364Y-63773234D01*
X156534543Y-63598201D01*
X156632309Y-63401861D01*
X156674734Y-63252750D01*
X156712012Y-63193658D01*
X156775322Y-63164100D01*
X156844561Y-63173462D01*
X156897748Y-63218771D01*
X156913265Y-63252748D01*
X156928207Y-63305263D01*
X156955691Y-63401863D01*
X157053453Y-63598195D01*
X157053458Y-63598203D01*
X157125041Y-63692993D01*
X157185636Y-63773234D01*
X157347727Y-63920999D01*
X157534209Y-64036464D01*
X157738732Y-64115697D01*
X157954333Y-64156000D01*
X157954335Y-64156000D01*
X158173665Y-64156000D01*
X158173667Y-64156000D01*
X158389268Y-64115697D01*
X158593791Y-64036464D01*
X158780273Y-63920999D01*
X158942364Y-63773234D01*
X159074543Y-63598201D01*
X159172309Y-63401861D01*
X159177233Y-63384555D01*
X159214511Y-63325461D01*
X159277821Y-63295902D01*
X159347060Y-63305263D01*
X159400247Y-63350572D01*
X159420496Y-63417443D01*
X159420500Y-63418487D01*
X159420500Y-63696154D01*
X159427011Y-63756702D01*
X159427011Y-63756704D01*
X159445774Y-63807007D01*
X159478111Y-63893704D01*
X159565739Y-64010761D01*
X159682796Y-64098389D01*
X159819799Y-64149489D01*
X159847050Y-64152418D01*
X159880345Y-64155999D01*
X159880362Y-64156000D01*
X161327638Y-64156000D01*
X161327654Y-64155999D01*
X161354692Y-64153091D01*
X161388201Y-64149489D01*
X161525204Y-64098389D01*
X161642261Y-64010761D01*
X161729889Y-63893704D01*
X161780989Y-63756701D01*
X161786302Y-63707283D01*
X161787499Y-63696154D01*
X161787500Y-63696137D01*
X161787500Y-62248862D01*
X161787499Y-62248845D01*
X161784157Y-62217770D01*
X161780989Y-62188299D01*
X161774822Y-62171766D01*
X161758522Y-62128064D01*
X161729889Y-62051296D01*
X161642261Y-61934239D01*
X161525204Y-61846611D01*
X161388203Y-61795511D01*
X161327654Y-61789000D01*
X161327638Y-61789000D01*
X161042010Y-61789000D01*
X160974971Y-61769315D01*
X160929216Y-61716511D01*
X160919272Y-61647353D01*
X160948297Y-61583797D01*
X160997213Y-61549374D01*
X161133791Y-61496464D01*
X161320273Y-61380999D01*
X161482364Y-61233234D01*
X161614543Y-61058201D01*
X161704651Y-60877241D01*
X161752154Y-60826004D01*
X161819817Y-60808583D01*
X161886157Y-60830509D01*
X161930112Y-60884820D01*
X161934916Y-60898575D01*
X161938515Y-60911222D01*
X162032150Y-61099267D01*
X162158745Y-61266905D01*
X162313987Y-61408428D01*
X162313989Y-61408429D01*
X162313990Y-61408430D01*
X162492587Y-61519013D01*
X162492593Y-61519016D01*
X162534090Y-61535091D01*
X162688474Y-61594900D01*
X162894966Y-61633500D01*
X162894968Y-61633500D01*
X163105032Y-61633500D01*
X163105034Y-61633500D01*
X163311526Y-61594900D01*
X163507409Y-61519015D01*
X163686013Y-61408428D01*
X163841255Y-61266905D01*
X163967850Y-61099267D01*
X164061485Y-60911222D01*
X164118973Y-60709172D01*
X164138356Y-60500000D01*
X166861644Y-60500000D01*
X166881026Y-60709167D01*
X166881026Y-60709169D01*
X166881027Y-60709172D01*
X166938515Y-60911222D01*
X167032150Y-61099267D01*
X167158745Y-61266905D01*
X167313987Y-61408428D01*
X167313989Y-61408429D01*
X167313990Y-61408430D01*
X167492587Y-61519013D01*
X167492593Y-61519016D01*
X167534090Y-61535091D01*
X167688474Y-61594900D01*
X167894966Y-61633500D01*
X167894968Y-61633500D01*
X168105032Y-61633500D01*
X168105034Y-61633500D01*
X168311526Y-61594900D01*
X168507409Y-61519015D01*
X168686013Y-61408428D01*
X168841255Y-61266905D01*
X168967850Y-61099267D01*
X169061485Y-60911222D01*
X169118973Y-60709172D01*
X169138356Y-60500000D01*
X169118973Y-60290828D01*
X169061485Y-60088778D01*
X168967850Y-59900733D01*
X168841255Y-59733095D01*
X168686013Y-59591572D01*
X168686010Y-59591570D01*
X168686009Y-59591569D01*
X168507412Y-59480986D01*
X168507406Y-59480983D01*
X168353025Y-59421176D01*
X168311526Y-59405100D01*
X168105034Y-59366500D01*
X167894966Y-59366500D01*
X167688474Y-59405100D01*
X167688471Y-59405100D01*
X167688471Y-59405101D01*
X167492593Y-59480983D01*
X167492587Y-59480986D01*
X167313990Y-59591569D01*
X167158744Y-59733095D01*
X167032150Y-59900732D01*
X166938516Y-60088774D01*
X166881026Y-60290832D01*
X166861644Y-60500000D01*
X164138356Y-60500000D01*
X164118973Y-60290828D01*
X164061485Y-60088778D01*
X163967850Y-59900733D01*
X163841255Y-59733095D01*
X163686013Y-59591572D01*
X163686010Y-59591570D01*
X163686009Y-59591569D01*
X163507412Y-59480986D01*
X163507406Y-59480983D01*
X163353025Y-59421176D01*
X163311526Y-59405100D01*
X163105034Y-59366500D01*
X162894966Y-59366500D01*
X162688474Y-59405100D01*
X162688471Y-59405100D01*
X162688471Y-59405101D01*
X162492593Y-59480983D01*
X162492587Y-59480986D01*
X162313990Y-59591569D01*
X162158744Y-59733095D01*
X162032150Y-59900732D01*
X161952741Y-60060206D01*
X161905238Y-60111443D01*
X161837575Y-60128864D01*
X161771235Y-60106938D01*
X161727280Y-60052627D01*
X161722474Y-60038866D01*
X161712309Y-60003138D01*
X161712308Y-60003137D01*
X161614546Y-59806804D01*
X161614541Y-59806796D01*
X161482362Y-59631764D01*
X161320274Y-59484002D01*
X161320273Y-59484001D01*
X161249257Y-59440029D01*
X161133792Y-59368536D01*
X161133790Y-59368535D01*
X161063195Y-59341187D01*
X160929268Y-59289303D01*
X160713667Y-59249000D01*
X160494333Y-59249000D01*
X160278732Y-59289303D01*
X160221623Y-59311426D01*
X160074209Y-59368535D01*
X160074207Y-59368536D01*
X159887725Y-59484002D01*
X159725637Y-59631764D01*
X159593458Y-59806796D01*
X159593453Y-59806804D01*
X159495691Y-60003136D01*
X159453267Y-60152247D01*
X159415988Y-60211341D01*
X159352678Y-60240899D01*
X159283439Y-60231537D01*
X159230252Y-60186228D01*
X159214733Y-60152247D01*
X159203123Y-60111443D01*
X159172309Y-60003139D01*
X159121317Y-59900733D01*
X159074546Y-59806804D01*
X159074541Y-59806796D01*
X158942362Y-59631764D01*
X158780274Y-59484002D01*
X158780273Y-59484001D01*
X158709257Y-59440029D01*
X158593792Y-59368536D01*
X158593790Y-59368535D01*
X158523195Y-59341187D01*
X158389268Y-59289303D01*
X158173667Y-59249000D01*
X157954333Y-59249000D01*
X157738732Y-59289303D01*
X157681623Y-59311426D01*
X157534209Y-59368535D01*
X157534207Y-59368536D01*
X157347725Y-59484002D01*
X157185637Y-59631764D01*
X157053458Y-59806796D01*
X157053453Y-59806804D01*
X156955691Y-60003136D01*
X156913267Y-60152247D01*
X156875988Y-60211341D01*
X156812678Y-60240899D01*
X156743439Y-60231537D01*
X156690252Y-60186228D01*
X156674733Y-60152247D01*
X156663123Y-60111443D01*
X156632309Y-60003139D01*
X156581317Y-59900733D01*
X156534546Y-59806804D01*
X156534541Y-59806796D01*
X156402362Y-59631764D01*
X156240274Y-59484002D01*
X156240273Y-59484001D01*
X156169257Y-59440029D01*
X156053792Y-59368536D01*
X156053790Y-59368535D01*
X155983195Y-59341187D01*
X155849268Y-59289303D01*
X155633667Y-59249000D01*
X155414333Y-59249000D01*
X155198732Y-59289303D01*
X155141623Y-59311426D01*
X154994209Y-59368535D01*
X154994207Y-59368536D01*
X154807725Y-59484002D01*
X154645637Y-59631764D01*
X154513458Y-59806796D01*
X154513453Y-59806804D01*
X154415691Y-60003136D01*
X154355667Y-60214103D01*
X154335430Y-60432499D01*
X91050500Y-60432499D01*
X91050500Y-55711345D01*
X111666500Y-55711345D01*
X111666500Y-57308654D01*
X111673011Y-57369202D01*
X111673011Y-57369204D01*
X111724111Y-57506204D01*
X111811739Y-57623261D01*
X111928796Y-57710889D01*
X112065799Y-57761989D01*
X112093050Y-57764918D01*
X112126345Y-57768499D01*
X112126362Y-57768500D01*
X117873638Y-57768500D01*
X117873654Y-57768499D01*
X117900692Y-57765591D01*
X117934201Y-57761989D01*
X118071204Y-57710889D01*
X118188261Y-57623261D01*
X118275889Y-57506204D01*
X118326989Y-57369201D01*
X118330591Y-57335692D01*
X118333499Y-57308654D01*
X118333500Y-57308637D01*
X118333500Y-55711362D01*
X118333499Y-55711345D01*
X118330157Y-55680270D01*
X118326989Y-55650799D01*
X118275889Y-55513796D01*
X118188261Y-55396739D01*
X118071204Y-55309111D01*
X117934203Y-55258011D01*
X117873654Y-55251500D01*
X117873638Y-55251500D01*
X112126362Y-55251500D01*
X112126345Y-55251500D01*
X112065797Y-55258011D01*
X112065795Y-55258011D01*
X111928795Y-55309111D01*
X111811739Y-55396739D01*
X111724111Y-55513795D01*
X111673011Y-55650795D01*
X111673011Y-55650797D01*
X111666500Y-55711345D01*
X91050500Y-55711345D01*
X91050500Y-51012161D01*
X91051765Y-50994497D01*
X91110788Y-50584380D01*
X91112767Y-50573874D01*
X91208225Y-50165212D01*
X91211096Y-50154948D01*
X91341519Y-49756064D01*
X91345274Y-49746068D01*
X91509671Y-49359979D01*
X91514285Y-49350323D01*
X91711431Y-48979894D01*
X91716873Y-48970658D01*
X91732759Y-48946178D01*
X91945295Y-48618658D01*
X91951489Y-48609961D01*
X92209501Y-48278995D01*
X92216425Y-48270863D01*
X92502075Y-47963436D01*
X92509695Y-47955918D01*
X92597935Y-47876063D01*
X92820812Y-47674361D01*
X92829055Y-47667526D01*
X93163366Y-47413894D01*
X93172142Y-47407815D01*
X93527148Y-47184011D01*
X93536408Y-47178719D01*
X93909425Y-46986437D01*
X93919114Y-46981962D01*
X94307327Y-46822650D01*
X94317392Y-46819019D01*
X94717938Y-46693850D01*
X94728275Y-46691106D01*
X95138096Y-46601034D01*
X95148662Y-46599187D01*
X95564758Y-46544869D01*
X95575414Y-46543945D01*
X95965084Y-46527074D01*
X95997321Y-46525679D01*
X96002684Y-46525563D01*
X96016408Y-46525563D01*
X166332072Y-46525563D01*
X166399111Y-46545248D01*
G37*
%TD.AperFunction*%
%TD*%
M02*
